<svg xmlns="http://www.w3.org/2000/svg" xmlns:xlink="http://www.w3.org/1999/xlink" width="134" height="50" viewBox="0 0 134 50">
  <defs>
    <clipPath id="clip-_1_FE">
      <rect width="134" height="50"/>
    </clipPath>
  </defs>
  <g id="_1_FE" data-name="1 FE" clip-path="url(#clip-_1_FE)">
    <g id="Group_389" data-name="Group 389" transform="translate(-45.354 -45.354)">
      <g id="Group_386" data-name="Group 386" transform="translate(45.354 45.354)">
        <path id="Path_552" data-name="Path 552" d="M70.358,95.354l-25-4.688v-37.5l25-7.812Z" transform="translate(-45.354 -45.354)" fill="#003383"/>
        <path id="Path_553" data-name="Path 553" d="M45.361,99.255V89.519a4.879,4.879,0,0,0,3.583-.054c2.02-1.2,5.078-4.893,5.078-4.893s-1.613,3.978-1,5.438c.643,1.55,4.464,1.634,4.464,1.634a63.21,63.21,0,0,0-6.331,4.367c-2.067,1.775-3.5,8.3-3.5,8.3s-1-4.184-2.288-5.059" transform="translate(-45.357 -62.954)" fill="#ffe800"/>
        <path id="Path_554" data-name="Path 554" d="M80.23,79.379a7.849,7.849,0,0,1-2.352,1.1c-2.009.388-4.159-1.92-4.159-1.92s.5,3.374-.759,5.453c-1.33,2.191-5.609,4.934-5.609,4.934S72.08,88.029,73,89.5c.978,1.573,1.109,7.052,1.109,7.052s2.409-6.578,4.6-7.475a13.565,13.565,0,0,1,1.525-.51Z" transform="translate(-55.226 -60.255)" fill="#d9000d"/>
        <path id="Path_555" data-name="Path 555" d="M60.765,74.16s2.417-3.786,2.27-5.134c-.143-1.279-2.65-1.741-2.65-1.741s3.281-.805,4.712-2.092a14.634,14.634,0,0,0,2.587-3.822s.305,2.134,1.533,2.44c1.267.319,4.651-1.047,4.651-1.047a47.724,47.724,0,0,0-3.72,3.906c-1.1,1.438.443,4.174.443,4.174s-2.835-.987-4.421-.69c-1.562.3-5.406,4.006-5.406,4.006" transform="translate(-52.1 -52.542)" fill="#fff"/>
      </g>
      <g id="Group_387" data-name="Group 387" transform="translate(82.851 54.726)">
        <path id="Path_556" data-name="Path 556" d="M113.379,71.734V62.357h5.927v1.448h-4.222v2.4h3.748v1.447h-3.748v4.087Z" transform="translate(-113.379 -62.357)" fill="#161615"/>
        <path id="Path_557" data-name="Path 557" d="M131.809,73.12q-.474.122-1.231.25a9.962,9.962,0,0,1-1.665.128,3.665,3.665,0,0,1-1.428-.244,2.283,2.283,0,0,1-.92-.676,2.665,2.665,0,0,1-.494-1.035,5.466,5.466,0,0,1-.149-1.319V66.26h1.637v3.707a3,3,0,0,0,.331,1.624,1.3,1.3,0,0,0,1.158.487c.2,0,.408-.009.629-.027a3.356,3.356,0,0,0,.494-.068V66.26h1.637Z" transform="translate(-119.008 -64.109)" fill="#161615"/>
        <path id="Path_558" data-name="Path 558" d="M140.235,66.639a10.984,10.984,0,0,1,1.231-.257,10.624,10.624,0,0,1,1.677-.122,3.852,3.852,0,0,1,1.448.237,2.253,2.253,0,0,1,.927.663,2.525,2.525,0,0,1,.487,1.028,5.737,5.737,0,0,1,.142,1.319v3.979h-1.637V69.765a5.373,5.373,0,0,0-.074-.967,1.719,1.719,0,0,0-.244-.649.973.973,0,0,0-.46-.365,1.937,1.937,0,0,0-.71-.115,5.47,5.47,0,0,0-.65.041c-.225.027-.392.05-.5.067v5.711h-1.637Z" transform="translate(-125.431 -64.109)" fill="#161615"/>
        <path id="Path_559" data-name="Path 559" d="M160.109,71.355a10.054,10.054,0,0,1-2.774.392,4.129,4.129,0,0,1-1.5-.257,3.132,3.132,0,0,1-1.13-.738,3.248,3.248,0,0,1-.717-1.164,4.439,4.439,0,0,1-.25-1.536,5.168,5.168,0,0,1,.209-1.522,3.334,3.334,0,0,1,.616-1.17,2.739,2.739,0,0,1,.988-.751,3.214,3.214,0,0,1,1.34-.264,3.05,3.05,0,0,1,.906.122,4.1,4.1,0,0,1,.677.27V62.628l1.637-.271Zm-4.7-3.342a2.571,2.571,0,0,0,.514,1.7,1.75,1.75,0,0,0,1.42.616,5.648,5.648,0,0,0,.67-.034,4.536,4.536,0,0,0,.453-.075V66.159a2.539,2.539,0,0,0-.575-.277,2.24,2.24,0,0,0-.765-.128,1.465,1.465,0,0,0-1.306.609A2.905,2.905,0,0,0,155.414,68.013Z" transform="translate(-131.49 -62.357)" fill="#161615"/>
        <path id="Path_560" data-name="Path 560" d="M174.67,73.12q-.473.122-1.231.25a9.946,9.946,0,0,1-1.664.128,3.665,3.665,0,0,1-1.428-.244,2.287,2.287,0,0,1-.92-.676,2.65,2.65,0,0,1-.494-1.035,5.492,5.492,0,0,1-.149-1.319V66.26h1.637v3.707a2.991,2.991,0,0,0,.331,1.624,1.3,1.3,0,0,0,1.157.487q.3,0,.63-.027a3.346,3.346,0,0,0,.494-.068V66.26h1.637Z" transform="translate(-138.244 -64.109)" fill="#161615"/>
        <path id="Path_561" data-name="Path 561" d="M184.427,71.993a2.153,2.153,0,0,0,.947-.156.552.552,0,0,0,.3-.534.692.692,0,0,0-.318-.582,4.664,4.664,0,0,0-1.048-.5,8.358,8.358,0,0,1-.819-.345,2.789,2.789,0,0,1-.643-.427,1.737,1.737,0,0,1-.426-.588,2.048,2.048,0,0,1-.155-.846,1.843,1.843,0,0,1,.717-1.536,3.081,3.081,0,0,1,1.949-.561,6,6,0,0,1,1.191.115,5.859,5.859,0,0,1,.852.223l-.3,1.326a4.008,4.008,0,0,0-.69-.223,4.164,4.164,0,0,0-.975-.1,1.7,1.7,0,0,0-.812.169.557.557,0,0,0-.311.521.754.754,0,0,0,.061.311.672.672,0,0,0,.21.25,2.139,2.139,0,0,0,.392.23,5.974,5.974,0,0,0,.6.236,9.2,9.2,0,0,1,.988.426,2.665,2.665,0,0,1,.67.474,1.618,1.618,0,0,1,.386.6,2.408,2.408,0,0,1,.122.812,1.749,1.749,0,0,1-.751,1.536,3.741,3.741,0,0,1-2.145.521,5.88,5.88,0,0,1-1.5-.155,7.7,7.7,0,0,1-.8-.25l.284-1.367a7.3,7.3,0,0,0,.873.284A4.493,4.493,0,0,0,184.427,71.993Z" transform="translate(-144.226 -63.955)" fill="#161615"/>
        <path id="Path_562" data-name="Path 562" d="M198.633,67.68q-.271.284-.711.8t-.94,1.143q-.5.63-1.008,1.313t-.913,1.305h3.654v1.367h-5.629V72.592a12.766,12.766,0,0,1,.744-1.177q.447-.636.92-1.279t.94-1.224q.468-.582.832-1.015h-3.261V66.53h5.372Z" transform="translate(-149.15 -64.23)" fill="#161615"/>
        <path id="Path_563" data-name="Path 563" d="M204.77,69.665a4.44,4.44,0,0,1,.277-1.637,3.434,3.434,0,0,1,.738-1.17,3.046,3.046,0,0,1,1.056-.7,3.271,3.271,0,0,1,1.218-.236,2.917,2.917,0,0,1,2.28.906,3.927,3.927,0,0,1,.818,2.706c0,.09,0,.191-.006.3s-.012.214-.021.3h-4.668a1.864,1.864,0,0,0,.6,1.32,2.29,2.29,0,0,0,1.549.467,5.057,5.057,0,0,0,1.089-.109,4.5,4.5,0,0,0,.778-.23l.217,1.339a2.624,2.624,0,0,1-.372.142,5.2,5.2,0,0,1-.541.135c-.2.041-.422.075-.656.1a6.15,6.15,0,0,1-.718.041,4.331,4.331,0,0,1-1.623-.277,3.02,3.02,0,0,1-1.137-.771,3.153,3.153,0,0,1-.663-1.164A4.752,4.752,0,0,1,204.77,69.665Zm4.75-.73a2.159,2.159,0,0,0-.095-.643,1.562,1.562,0,0,0-.278-.528,1.311,1.311,0,0,0-.446-.352,1.426,1.426,0,0,0-.629-.128,1.467,1.467,0,0,0-.664.142,1.515,1.515,0,0,0-.48.373,1.7,1.7,0,0,0-.3.528,2.849,2.849,0,0,0-.149.609Z" transform="translate(-154.394 -63.955)" fill="#161615"/>
        <path id="Path_564" data-name="Path 564" d="M113.379,94.411V85.034H119.4v1.448h-4.317V88.8h3.843v1.42h-3.843v2.747h4.641v1.448Z" transform="translate(-113.379 -72.534)" fill="#161615"/>
        <path id="Path_565" data-name="Path 565" d="M132.79,95.8q-.474.122-1.231.251a10.015,10.015,0,0,1-1.665.128,3.664,3.664,0,0,1-1.427-.244,2.283,2.283,0,0,1-.92-.676,2.652,2.652,0,0,1-.494-1.035,5.5,5.5,0,0,1-.149-1.32V88.937h1.638v3.708a2.993,2.993,0,0,0,.331,1.624,1.3,1.3,0,0,0,1.157.487q.3,0,.629-.027a3.36,3.36,0,0,0,.494-.068V88.937h1.637Z" transform="translate(-119.449 -74.286)" fill="#161615"/>
        <path id="Path_566" data-name="Path 566" d="M145.249,90.561a5.127,5.127,0,0,0-.562-.142,4.134,4.134,0,0,0-.832-.075,3.369,3.369,0,0,0-.575.054,3.555,3.555,0,0,0-.427.095v5.67h-1.637V89.424a9.061,9.061,0,0,1,1.184-.331,7.393,7.393,0,0,1,1.576-.156c.108,0,.234.007.379.02s.288.032.433.054.284.05.419.082.244.061.325.088Z" transform="translate(-125.872 -74.286)" fill="#161615"/>
        <path id="Path_567" data-name="Path 567" d="M157.042,92.277a4.56,4.56,0,0,1-.243,1.529,3.379,3.379,0,0,1-.69,1.177,3.1,3.1,0,0,1-1.075.758,3.479,3.479,0,0,1-1.387.27,3.426,3.426,0,0,1-1.38-.27,3.118,3.118,0,0,1-1.069-.758,3.469,3.469,0,0,1-.7-1.177,4.45,4.45,0,0,1-.25-1.529,4.4,4.4,0,0,1,.25-1.522,3.428,3.428,0,0,1,.7-1.171,3.106,3.106,0,0,1,1.075-.751,3.47,3.47,0,0,1,1.367-.264,3.515,3.515,0,0,1,1.373.264,3.03,3.03,0,0,1,1.077.751,3.5,3.5,0,0,1,.7,1.171A4.4,4.4,0,0,1,157.042,92.277Zm-1.677,0a2.758,2.758,0,0,0-.453-1.671,1.608,1.608,0,0,0-2.531,0,2.762,2.762,0,0,0-.453,1.671,2.819,2.819,0,0,0,.453,1.691,1.6,1.6,0,0,0,2.531,0A2.816,2.816,0,0,0,155.365,92.277Z" transform="translate(-129.926 -74.12)" fill="#161615"/>
        <path id="Path_568" data-name="Path 568" d="M171.868,92.631a5.02,5.02,0,0,1-.209,1.488,3.475,3.475,0,0,1-.6,1.164,2.669,2.669,0,0,1-.981.758,3.157,3.157,0,0,1-1.333.271,3.294,3.294,0,0,1-.92-.122,3.431,3.431,0,0,1-.69-.271v2.747h-1.637v-9.35c.333-.09.744-.176,1.231-.257a9.4,9.4,0,0,1,1.543-.122,4.128,4.128,0,0,1,1.5.257,3.132,3.132,0,0,1,1.13.738,3.242,3.242,0,0,1,.717,1.164A4.436,4.436,0,0,1,171.868,92.631Zm-1.678.027a2.639,2.639,0,0,0-.493-1.7,1.932,1.932,0,0,0-1.59-.609c-.153,0-.313.007-.48.02a2.646,2.646,0,0,0-.494.088V94.5a2.487,2.487,0,0,0,.575.278,2.24,2.24,0,0,0,.765.128,1.464,1.464,0,0,0,1.306-.609A2.88,2.88,0,0,0,170.19,92.658Z" transform="translate(-136.768 -74.286)" fill="#161615"/>
        <path id="Path_569" data-name="Path 569" d="M179.266,92.342a4.443,4.443,0,0,1,.277-1.638,3.434,3.434,0,0,1,.738-1.17,3.054,3.054,0,0,1,1.056-.7,3.271,3.271,0,0,1,1.218-.236,2.917,2.917,0,0,1,2.28.906,3.927,3.927,0,0,1,.818,2.706c0,.09,0,.192-.006.3s-.012.214-.02.3h-4.668a1.862,1.862,0,0,0,.6,1.319,2.287,2.287,0,0,0,1.55.467,5.094,5.094,0,0,0,1.089-.108,4.548,4.548,0,0,0,.778-.23l.217,1.339a2.627,2.627,0,0,1-.372.142,5.5,5.5,0,0,1-.541.135q-.3.06-.656.1a6.277,6.277,0,0,1-.718.04,4.344,4.344,0,0,1-1.623-.277,3.021,3.021,0,0,1-1.137-.772,3.153,3.153,0,0,1-.663-1.164A4.746,4.746,0,0,1,179.266,92.342Zm4.75-.731a2.162,2.162,0,0,0-.095-.643,1.548,1.548,0,0,0-.278-.528,1.311,1.311,0,0,0-.446-.352,1.426,1.426,0,0,0-.629-.128,1.463,1.463,0,0,0-.663.142,1.517,1.517,0,0,0-.481.372,1.708,1.708,0,0,0-.3.528,2.851,2.851,0,0,0-.149.609Z" transform="translate(-142.948 -74.132)" fill="#161615"/>
        <path id="Path_570" data-name="Path 570" d="M191.343,96.289c-.117,0-.282-.012-.494-.034a2.2,2.2,0,0,1-.561-.128l.217-1.34a2.371,2.371,0,0,0,.717.095.9.9,0,0,0,.8-.331,1.755,1.755,0,0,0,.23-.995V86.7h1.637v6.887a2.8,2.8,0,0,1-.656,2.043A2.541,2.541,0,0,1,191.343,96.289Zm2.72-11.664a.94.94,0,0,1-.3.73,1.011,1.011,0,0,1-.7.271,1.026,1.026,0,0,1-.717-.271.938.938,0,0,1-.3-.73.957.957,0,0,1,.3-.745,1.029,1.029,0,0,1,.717-.271,1.014,1.014,0,0,1,.7.271A.959.959,0,0,1,194.063,84.625Z" transform="translate(-147.894 -71.895)" fill="#161615"/>
        <path id="Path_571" data-name="Path 571" d="M201.783,94.67a2.158,2.158,0,0,0,.947-.155.553.553,0,0,0,.3-.535.694.694,0,0,0-.319-.582,4.676,4.676,0,0,0-1.048-.5,8.157,8.157,0,0,1-.818-.345,2.788,2.788,0,0,1-.643-.426,1.753,1.753,0,0,1-.426-.589,2.052,2.052,0,0,1-.155-.846,1.845,1.845,0,0,1,.717-1.536,3.083,3.083,0,0,1,1.949-.561,6.039,6.039,0,0,1,1.191.115,5.758,5.758,0,0,1,.852.224l-.3,1.326a4.023,4.023,0,0,0-.69-.223,4.163,4.163,0,0,0-.974-.1,1.7,1.7,0,0,0-.812.169.556.556,0,0,0-.311.521.754.754,0,0,0,.061.311.658.658,0,0,0,.21.25,2.1,2.1,0,0,0,.392.23,6.114,6.114,0,0,0,.6.237,9.024,9.024,0,0,1,.988.426,2.661,2.661,0,0,1,.669.473,1.625,1.625,0,0,1,.386.6,2.427,2.427,0,0,1,.121.812,1.75,1.75,0,0,1-.751,1.536,3.74,3.74,0,0,1-2.145.52,5.848,5.848,0,0,1-1.5-.155,7.658,7.658,0,0,1-.8-.25l.284-1.366a7.341,7.341,0,0,0,.873.284A4.5,4.5,0,0,0,201.783,94.67Z" transform="translate(-152.015 -74.132)" fill="#161615"/>
        <path id="Path_572" data-name="Path 572" d="M213.158,90.095q.311-.325.663-.7t.69-.744q.338-.372.643-.717t.521-.6h1.935q-.676.757-1.428,1.569t-1.508,1.583a9.575,9.575,0,0,1,.852.819q.447.48.866,1.022t.785,1.083a11.089,11.089,0,0,1,.609,1h-1.895q-.244-.419-.562-.88t-.684-.893q-.365-.432-.744-.819a6.406,6.406,0,0,0-.745-.657v3.248h-1.637V85.3l1.637-.271Z" transform="translate(-157.423 -72.534)" fill="#161615"/>
        <path id="Path_573" data-name="Path 573" d="M226.572,84.625a.94.94,0,0,1-.3.73,1.01,1.01,0,0,1-.7.271,1.025,1.025,0,0,1-.717-.271.937.937,0,0,1-.3-.73.955.955,0,0,1,.3-.745,1.027,1.027,0,0,1,.717-.271,1.013,1.013,0,0,1,.7.271A.959.959,0,0,1,226.572,84.625Zm-.176,9.147h-1.637V86.7H226.4Z" transform="translate(-163.273 -71.895)" fill="#161615"/>
        <path id="Path_574" data-name="Path 574" d="M230.816,92.342a4.443,4.443,0,0,1,.277-1.638,3.425,3.425,0,0,1,.738-1.17,3.048,3.048,0,0,1,1.056-.7,3.271,3.271,0,0,1,1.218-.236,2.917,2.917,0,0,1,2.28.906,3.928,3.928,0,0,1,.818,2.706c0,.09,0,.192-.006.3s-.012.214-.021.3h-4.668a1.864,1.864,0,0,0,.6,1.319,2.289,2.289,0,0,0,1.55.467,5.094,5.094,0,0,0,1.089-.108,4.546,4.546,0,0,0,.778-.23l.217,1.339a2.61,2.61,0,0,1-.373.142,5.439,5.439,0,0,1-.541.135c-.2.04-.422.074-.656.1a6.276,6.276,0,0,1-.718.04,4.342,4.342,0,0,1-1.623-.277,3.021,3.021,0,0,1-1.137-.772,3.154,3.154,0,0,1-.663-1.164A4.746,4.746,0,0,1,230.816,92.342Zm4.749-.731a2.16,2.16,0,0,0-.094-.643,1.568,1.568,0,0,0-.278-.528,1.316,1.316,0,0,0-.446-.352,1.426,1.426,0,0,0-.629-.128,1.466,1.466,0,0,0-.664.142,1.521,1.521,0,0,0-.48.372,1.7,1.7,0,0,0-.3.528,2.85,2.85,0,0,0-.149.609Z" transform="translate(-166.083 -74.132)" fill="#161615"/>
      </g>
      <g id="Group_388" data-name="Group 388" transform="translate(82.343 82.076)">
        <path id="Path_575" data-name="Path 575" d="M116.361,115.5q-.375,1.2-.76,2.215t-.768,1.982h-.866q-.474-1.366-.835-2.885t-.674-3.3h.911q.125.7.259,1.393t.277,1.353q.142.656.286,1.255t.295,1.107q.357-.938.758-2.059t.75-2.317h.75q.349,1.2.759,2.317t.768,2.059q.142-.5.286-1.1t.281-1.255q.138-.657.272-1.357t.259-1.4h.884q-.322,1.787-.683,3.3t-.826,2.885h-.866q-.394-.965-.768-1.982T116.361,115.5Z" transform="translate(-112.458 -112.664)" fill="#161615"/>
        <path id="Path_576" data-name="Path 576" d="M128.578,113.905a.535.535,0,0,1-.38-.147.584.584,0,0,1,0-.795.564.564,0,0,1,.76,0,.584.584,0,0,1,0,.795A.534.534,0,0,1,128.578,113.905Zm.42,5.483h-.831v-4.643H129Z" transform="translate(-119.452 -112.351)" fill="#161615"/>
        <path id="Path_577" data-name="Path 577" d="M131.817,118.357a2.964,2.964,0,0,1,.179-1.076,2.248,2.248,0,0,1,.473-.764,1.935,1.935,0,0,1,.679-.455,2.124,2.124,0,0,1,.785-.152,1.79,1.79,0,0,1,1.438.585,2.693,2.693,0,0,1,.5,1.782v.138a1.341,1.341,0,0,1-.009.156h-3.179a1.7,1.7,0,0,0,.42,1.1,1.535,1.535,0,0,0,1.143.375,3.046,3.046,0,0,0,.737-.076,2.708,2.708,0,0,0,.451-.147l.116.7a2.466,2.466,0,0,1-.531.17,3.776,3.776,0,0,1-.862.089,2.736,2.736,0,0,1-1.049-.183,1.95,1.95,0,0,1-.728-.5,2.054,2.054,0,0,1-.424-.763A3.216,3.216,0,0,1,131.817,118.357ZM135,117.9a1.392,1.392,0,0,0-.281-.924.967.967,0,0,0-.8-.362,1.1,1.1,0,0,0-.5.111,1.2,1.2,0,0,0-.37.29,1.333,1.333,0,0,0-.237.411,2.006,2.006,0,0,0-.111.473Z" transform="translate(-121.146 -113.74)" fill="#161615"/>
        <path id="Path_578" data-name="Path 578" d="M144.05,112.116l.831-.143v6.8q-.286.081-.732.161a5.857,5.857,0,0,1-1.027.08,2.6,2.6,0,0,1-.964-.17,2.053,2.053,0,0,1-.732-.482,2.124,2.124,0,0,1-.469-.763,2.926,2.926,0,0,1-.165-1.013,3.316,3.316,0,0,1,.138-.983,2.2,2.2,0,0,1,.407-.768,1.844,1.844,0,0,1,.656-.5,2.105,2.105,0,0,1,.889-.179,2.153,2.153,0,0,1,.71.107,2.205,2.205,0,0,1,.46.205Zm0,3.125a1.732,1.732,0,0,0-.438-.241,1.646,1.646,0,0,0-.625-.116,1.339,1.339,0,0,0-.612.129,1.131,1.131,0,0,0-.416.357,1.5,1.5,0,0,0-.232.54,2.991,2.991,0,0,0-.072.67,1.8,1.8,0,0,0,.4,1.255,1.379,1.379,0,0,0,1.072.442,4.264,4.264,0,0,0,.567-.031,2.612,2.612,0,0,0,.353-.067Z" transform="translate(-125.173 -111.973)" fill="#161615"/>
        <path id="Path_579" data-name="Path 579" d="M153.482,116.94q-.188.205-.495.58t-.661.83q-.353.456-.706.956t-.621.955h2.554v.7h-3.545v-.553q.214-.394.527-.867t.656-.942q.344-.469.67-.884t.567-.7h-2.295v-.7h3.348Z" transform="translate(-129.31 -113.922)" fill="#161615"/>
        <path id="Path_580" data-name="Path 580" d="M159.5,115.943a2.417,2.417,0,0,1,.844.129,1.374,1.374,0,0,1,.553.366,1.4,1.4,0,0,1,.3.563,2.74,2.74,0,0,1,.089.719v2.9l-.3.049c-.128.021-.272.04-.433.058s-.336.034-.523.048-.373.023-.558.023a3.062,3.062,0,0,1-.723-.08,1.628,1.628,0,0,1-.572-.255,1.17,1.17,0,0,1-.375-.46,1.608,1.608,0,0,1-.134-.687,1.325,1.325,0,0,1,.157-.661,1.244,1.244,0,0,1,.424-.446,1.953,1.953,0,0,1,.625-.25,3.375,3.375,0,0,1,.75-.08c.083,0,.17,0,.259.013s.174.021.255.036l.21.04.125.026v-.232a1.865,1.865,0,0,0-.045-.406.932.932,0,0,0-.16-.357.82.82,0,0,0-.317-.25,1.248,1.248,0,0,0-.523-.094,3.984,3.984,0,0,0-.719.058,2.575,2.575,0,0,0-.46.121l-.1-.687a2.586,2.586,0,0,1,.536-.138A4.631,4.631,0,0,1,159.5,115.943Zm.071,4.161c.2,0,.37,0,.523-.013a2.229,2.229,0,0,0,.379-.049v-1.384a1.043,1.043,0,0,0-.29-.076,3.141,3.141,0,0,0-.487-.031,3.177,3.177,0,0,0-.4.026,1.215,1.215,0,0,0-.384.112.82.82,0,0,0-.29.232.608.608,0,0,0-.116.389.665.665,0,0,0,.286.62A1.484,1.484,0,0,0,159.573,120.1Z" transform="translate(-132.749 -113.755)" fill="#161615"/>
        <path id="Path_581" data-name="Path 581" d="M170.4,119.7v-6.189h3.777v.741h-2.911v1.839h2.59v.723h-2.59v2.143h3.134v.741Z" transform="translate(-138.464 -112.664)" fill="#161615"/>
        <path id="Path_582" data-name="Path 582" d="M181.99,112.116l.831-.143v6.8q-.286.081-.733.161a5.859,5.859,0,0,1-1.027.08,2.607,2.607,0,0,1-.965-.17,2.058,2.058,0,0,1-.732-.482,2.122,2.122,0,0,1-.469-.763,2.913,2.913,0,0,1-.165-1.013,3.318,3.318,0,0,1,.138-.983,2.2,2.2,0,0,1,.406-.768,1.854,1.854,0,0,1,.656-.5,2.106,2.106,0,0,1,.889-.179,2.155,2.155,0,0,1,.71.107,2.233,2.233,0,0,1,.46.205Zm0,3.125a1.742,1.742,0,0,0-.438-.241,1.652,1.652,0,0,0-.625-.116,1.337,1.337,0,0,0-.611.129,1.122,1.122,0,0,0-.416.357,1.511,1.511,0,0,0-.232.54,2.989,2.989,0,0,0-.072.67,1.8,1.8,0,0,0,.4,1.255,1.377,1.377,0,0,0,1.071.442,4.273,4.273,0,0,0,.567-.031,2.612,2.612,0,0,0,.353-.067Z" transform="translate(-142.2 -111.973)" fill="#161615"/>
        <path id="Path_583" data-name="Path 583" d="M192.316,120.646q-.285.071-.755.152a6.482,6.482,0,0,1-1.084.08,2.288,2.288,0,0,1-.9-.157,1.448,1.448,0,0,1-.589-.442,1.793,1.793,0,0,1-.321-.674,3.477,3.477,0,0,1-.1-.862v-2.607h.83v2.429a2.106,2.106,0,0,0,.268,1.214,1.043,1.043,0,0,0,.9.366c.089,0,.182,0,.277-.009s.184-.013.267-.022.159-.018.228-.027a.7.7,0,0,0,.148-.031v-3.92h.83Z" transform="translate(-146.614 -113.842)" fill="#161615"/>
        <path id="Path_584" data-name="Path 584" d="M199.559,116.544a5.482,5.482,0,0,1,.567.509q.3.3.59.657t.549.714a7.925,7.925,0,0,1,.438.674h-.973a7.235,7.235,0,0,0-.433-.638q-.246-.326-.513-.626a7.546,7.546,0,0,0-.545-.549,4.951,4.951,0,0,0-.527-.419V119.1h-.831v-6.787l.831-.143V116.4l.473-.473q.26-.259.509-.527t.473-.513c.148-.164.277-.308.384-.433h.973c-.137.149-.286.313-.447.491s-.327.358-.5.54-.347.363-.523.545Z" transform="translate(-150.794 -112.06)" fill="#161615"/>
        <path id="Path_585" data-name="Path 585" d="M207.487,115.943a2.418,2.418,0,0,1,.844.129,1.374,1.374,0,0,1,.553.366,1.39,1.39,0,0,1,.3.563,2.739,2.739,0,0,1,.089.719v2.9l-.3.049q-.192.031-.433.058c-.161.018-.335.034-.523.048s-.374.023-.558.023a3.058,3.058,0,0,1-.723-.08,1.626,1.626,0,0,1-.572-.255,1.164,1.164,0,0,1-.375-.46,1.608,1.608,0,0,1-.134-.687,1.319,1.319,0,0,1,.157-.661,1.238,1.238,0,0,1,.424-.446,1.959,1.959,0,0,1,.625-.25,3.379,3.379,0,0,1,.75-.08c.084,0,.17,0,.259.013s.175.021.255.036l.21.04.125.026v-.232a1.9,1.9,0,0,0-.045-.406.933.933,0,0,0-.161-.357.816.816,0,0,0-.317-.25,1.247,1.247,0,0,0-.523-.094,3.983,3.983,0,0,0-.719.058,2.575,2.575,0,0,0-.46.121l-.1-.687a2.569,2.569,0,0,1,.535-.138A4.635,4.635,0,0,1,207.487,115.943Zm.072,4.161c.2,0,.37,0,.522-.013a2.237,2.237,0,0,0,.38-.049v-1.384a1.054,1.054,0,0,0-.29-.076,3.141,3.141,0,0,0-.487-.031,3.175,3.175,0,0,0-.4.026,1.218,1.218,0,0,0-.385.112.825.825,0,0,0-.29.232.608.608,0,0,0-.116.389.664.664,0,0,0,.286.62A1.481,1.481,0,0,0,207.558,120.1Z" transform="translate(-154.284 -113.755)" fill="#161615"/>
        <path id="Path_586" data-name="Path 586" d="M216.437,120.793a2.527,2.527,0,0,1-.987-.179,1.988,1.988,0,0,1-.714-.5,2.081,2.081,0,0,1-.433-.763,3.165,3.165,0,0,1-.143-.978,2.957,2.957,0,0,1,.157-.982,2.323,2.323,0,0,1,.442-.772,1.988,1.988,0,0,1,.7-.509,2.268,2.268,0,0,1,.924-.183,3.733,3.733,0,0,1,.625.053,2.889,2.889,0,0,1,.6.17l-.187.706a2.013,2.013,0,0,0-.434-.143,2.431,2.431,0,0,0-.522-.053,1.318,1.318,0,0,0-1.067.437,1.927,1.927,0,0,0-.371,1.277,2.631,2.631,0,0,0,.085.687,1.428,1.428,0,0,0,.267.536,1.193,1.193,0,0,0,.469.344,1.791,1.791,0,0,0,.7.121,2.633,2.633,0,0,0,.6-.063,2.138,2.138,0,0,0,.419-.134l.116.7a.889.889,0,0,1-.206.085,2.829,2.829,0,0,1-.3.071c-.113.021-.233.039-.361.053A3.215,3.215,0,0,1,216.437,120.793Z" transform="translate(-158.1 -113.747)" fill="#161615"/>
        <path id="Path_587" data-name="Path 587" d="M220.247,121.058a1.875,1.875,0,0,1-.277-.026,1.443,1.443,0,0,1-.286-.072l.107-.679a1.632,1.632,0,0,0,.206.045,1.385,1.385,0,0,0,.214.018.69.69,0,0,0,.611-.263,1.347,1.347,0,0,0,.183-.772v-4.563h.831V119.3a1.882,1.882,0,0,1-.406,1.326A1.546,1.546,0,0,1,220.247,121.058Zm1.17-7.153a.534.534,0,0,1-.38-.147.584.584,0,0,1,0-.795.563.563,0,0,1,.759,0,.583.583,0,0,1,0,.795A.533.533,0,0,1,221.417,113.905Z" transform="translate(-160.579 -112.351)" fill="#161615"/>
        <path id="Path_588" data-name="Path 588" d="M227.331,115.943a2.418,2.418,0,0,1,.844.129,1.374,1.374,0,0,1,.553.366,1.4,1.4,0,0,1,.3.563,2.74,2.74,0,0,1,.089.719v2.9l-.3.049q-.192.031-.433.058c-.161.018-.336.034-.523.048s-.373.023-.558.023a3.063,3.063,0,0,1-.723-.08,1.628,1.628,0,0,1-.572-.255,1.164,1.164,0,0,1-.375-.46,1.6,1.6,0,0,1-.135-.687,1.325,1.325,0,0,1,.157-.661,1.244,1.244,0,0,1,.424-.446,1.953,1.953,0,0,1,.625-.25,3.375,3.375,0,0,1,.75-.08c.083,0,.17,0,.259.013s.174.021.255.036l.21.04.125.026v-.232a1.868,1.868,0,0,0-.045-.406.924.924,0,0,0-.16-.357.82.82,0,0,0-.317-.25,1.248,1.248,0,0,0-.523-.094,3.983,3.983,0,0,0-.719.058,2.574,2.574,0,0,0-.46.121l-.1-.687a2.587,2.587,0,0,1,.536-.138A4.63,4.63,0,0,1,227.331,115.943Zm.072,4.161c.2,0,.37,0,.522-.013a2.222,2.222,0,0,0,.379-.049v-1.384a1.044,1.044,0,0,0-.29-.076,3.141,3.141,0,0,0-.487-.031,3.185,3.185,0,0,0-.4.026,1.215,1.215,0,0,0-.384.112.82.82,0,0,0-.29.232.608.608,0,0,0-.116.389.665.665,0,0,0,.286.62A1.484,1.484,0,0,0,227.4,120.1Z" transform="translate(-163.189 -113.755)" fill="#161615"/>
        <path id="Path_589" data-name="Path 589" d="M241.261,117.06q.143.179.362.469t.451.643q.232.353.46.736a7.613,7.613,0,0,1,.389.741h-.947q-.179-.339-.388-.688t-.424-.665c-.143-.212-.284-.41-.424-.594s-.267-.345-.38-.482c-.077.006-.157.009-.237.009H239.1v2.42h-.866v-6.1a4.885,4.885,0,0,1,.817-.12q.451-.031.826-.031a3.381,3.381,0,0,1,1.987.491,1.687,1.687,0,0,1,.683,1.465,1.716,1.716,0,0,1-.326,1.054A1.92,1.92,0,0,1,241.261,117.06Zm-1.312-2.9c-.369,0-.652.009-.848.026v2.331h.616a6.52,6.52,0,0,0,.8-.045,1.827,1.827,0,0,0,.6-.17.907.907,0,0,0,.379-.353,1.182,1.182,0,0,0,.134-.6,1.144,1.144,0,0,0-.134-.58.99.99,0,0,0-.362-.367,1.578,1.578,0,0,0-.536-.187A3.813,3.813,0,0,0,239.948,114.158Z" transform="translate(-168.904 -112.613)" fill="#161615"/>
        <path id="Path_590" data-name="Path 590" d="M252.132,118.348a2.944,2.944,0,0,1-.16,1,2.294,2.294,0,0,1-.451.768,1.979,1.979,0,0,1-.692.5,2.285,2.285,0,0,1-1.75,0,1.984,1.984,0,0,1-.692-.5,2.291,2.291,0,0,1-.45-.768,3.174,3.174,0,0,1,0-2,2.285,2.285,0,0,1,.45-.772,1.984,1.984,0,0,1,.692-.5,2.285,2.285,0,0,1,1.75,0,1.979,1.979,0,0,1,.692.5,2.288,2.288,0,0,1,.451.772A2.957,2.957,0,0,1,252.132,118.348Zm-.866,0a2,2,0,0,0-.353-1.246,1.232,1.232,0,0,0-1.92,0,2.376,2.376,0,0,0,0,2.492,1.231,1.231,0,0,0,1.92,0A2,2,0,0,0,251.266,118.348Z" transform="translate(-173.186 -113.74)" fill="#161615"/>
        <path id="Path_591" data-name="Path 591" d="M260.158,116.94q-.188.205-.5.58t-.661.83q-.353.456-.706.956t-.62.955h2.554v.7h-3.545v-.553q.215-.394.527-.867t.656-.942q.344-.469.67-.884t.567-.7h-2.3v-.7h3.349Z" transform="translate(-177.184 -113.922)" fill="#161615"/>
        <path id="Path_592" data-name="Path 592" d="M268.29,120.958q-.249-.643-.531-1.469t-.514-1.719q-.232.893-.509,1.719t-.527,1.469h-.723q-.411-.919-.8-2.1t-.74-2.545h.892q.089.42.214.911t.263.982q.138.491.29.946t.286.795q.152-.419.3-.888t.281-.947q.134-.477.255-.938t.21-.862h.687q.08.4.2.862t.25.938q.134.478.281.947t.3.888q.134-.339.281-.795t.29-.946q.142-.491.267-.982t.214-.911h.858q-.348,1.366-.741,2.545t-.8,2.1Z" transform="translate(-180.441 -113.922)" fill="#161615"/>
        <path id="Path_593" data-name="Path 593" d="M281.145,116.669a2.944,2.944,0,0,1-.16,1,2.294,2.294,0,0,1-.451.768,1.972,1.972,0,0,1-.692.5,2.285,2.285,0,0,1-1.75,0,1.974,1.974,0,0,1-.692-.5,2.293,2.293,0,0,1-.451-.768,3.174,3.174,0,0,1,0-2,2.286,2.286,0,0,1,.451-.772,1.974,1.974,0,0,1,.692-.5,2.285,2.285,0,0,1,1.75,0,1.972,1.972,0,0,1,.692.5,2.287,2.287,0,0,1,.451.772A2.957,2.957,0,0,1,281.145,116.669Zm-.867,0a2,2,0,0,0-.352-1.246,1.233,1.233,0,0,0-1.92,0,2.379,2.379,0,0,0,0,2.492,1.232,1.232,0,0,0,1.92,0A2,2,0,0,0,280.278,116.669Zm-.232-3.974-1.259,1.223-.419-.375,1.143-1.375Z" transform="translate(-186.206 -112.06)" fill="#161615"/>
        <path id="Path_594" data-name="Path 594" d="M284.9,121.058a1.867,1.867,0,0,1-.277-.026,1.459,1.459,0,0,1-.286-.072l.108-.679a1.589,1.589,0,0,0,.206.045,1.372,1.372,0,0,0,.214.018.691.691,0,0,0,.612-.263,1.352,1.352,0,0,0,.183-.772v-4.563h.831V119.3a1.883,1.883,0,0,1-.407,1.326A1.545,1.545,0,0,1,284.9,121.058Zm1.17-7.153a.535.535,0,0,1-.38-.147.584.584,0,0,1,0-.795.563.563,0,0,1,.759,0,.581.581,0,0,1,0,.795A.533.533,0,0,1,286.069,113.905Z" transform="translate(-189.594 -112.351)" fill="#161615"/>
      </g>
    </g>
  </g>
</svg>
