<svg xmlns="http://www.w3.org/2000/svg" xmlns:xlink="http://www.w3.org/1999/xlink" width="143" height="34" viewBox="0 0 143 34">
  <defs>
    <clipPath id="clip-_2_RP">
      <rect width="143" height="34"/>
    </clipPath>
  </defs>
  <g id="_2_RP" data-name="2 RP" clip-path="url(#clip-_2_RP)">
    <g id="Group_392" data-name="Group 392" transform="translate(-33.044 -32.458)">
      <g id="Group_390" data-name="Group 390" transform="translate(93.094 39.355)">
        <path id="Path_595" data-name="Path 595" d="M217.632,55.32c-.318,0-.612.013-.881.035v2.673h.656a6.761,6.761,0,0,0,.965-.061,1.991,1.991,0,0,0,.7-.214,1.047,1.047,0,0,0,.424-.417,1.4,1.4,0,0,0,.142-.669,1.335,1.335,0,0,0-.142-.643,1.071,1.071,0,0,0-.413-.418,1.884,1.884,0,0,0-.638-.22,4.685,4.685,0,0,0-.811-.066m-.106-1.3a4.784,4.784,0,0,1,2.738.656,2.471,2.471,0,0,1-.711,4.282c.152.184.322.405.514.669s.385.547.584.853.388.621.572.943.346.637.491.948h-1.683q-.228-.43-.49-.865c-.175-.29-.351-.573-.531-.848s-.356-.532-.531-.776-.338-.459-.489-.65c-.111.009-.206.012-.286.012h-.954v3.126h-1.505V54.223a8.175,8.175,0,0,1,1.171-.162c.413-.028.783-.04,1.109-.04" transform="translate(-215.245 -53.412)" fill="#161615"/>
        <path id="Path_596" data-name="Path 596" d="M241.788,61.438c-.161.165-.367.4-.626.7s-.535.638-.831,1.008-.589.756-.887,1.158-.567.785-.805,1.152h3.219v1.2H236.9V65.77a11.269,11.269,0,0,1,.657-1.04q.393-.56.81-1.128t.83-1.079c.274-.342.519-.641.733-.894h-2.875V60.424h4.737Z" transform="translate(-229.76 -57.704)" fill="#161615"/>
        <path id="Path_597" data-name="Path 597" d="M258.532,62.615a1.886,1.886,0,0,0-.084-.566,1.351,1.351,0,0,0-.243-.465,1.192,1.192,0,0,0-.4-.311,1.253,1.253,0,0,0-.554-.113,1.291,1.291,0,0,0-.585.125,1.342,1.342,0,0,0-.423.329,1.487,1.487,0,0,0-.268.465,2.611,2.611,0,0,0-.133.537Zm-4.188.644a3.894,3.894,0,0,1,.245-1.443,3.029,3.029,0,0,1,.649-1.033,2.714,2.714,0,0,1,.932-.621,2.9,2.9,0,0,1,1.073-.208,2.57,2.57,0,0,1,2.011.8,3.453,3.453,0,0,1,.721,2.385c0,.081,0,.17-.007.269s-.011.19-.018.268h-4.116a1.637,1.637,0,0,0,.53,1.162,2.018,2.018,0,0,0,1.367.414,4.533,4.533,0,0,0,.959-.1,3.959,3.959,0,0,0,.686-.2l.192,1.181a2.2,2.2,0,0,1-.33.127,4.588,4.588,0,0,1-.475.119c-.18.036-.372.066-.581.089a5.386,5.386,0,0,1-.631.036,3.831,3.831,0,0,1-1.433-.244,2.691,2.691,0,0,1-1-.681,2.765,2.765,0,0,1-.584-1.026,4.166,4.166,0,0,1-.191-1.294" transform="translate(-241.458 -57.39)" fill="#161615"/>
        <path id="Path_598" data-name="Path 598" d="M275.013,63.235a3.786,3.786,0,0,1,.217-1.294,3.055,3.055,0,0,1,.612-1.044,2.856,2.856,0,0,1,.974-.692,3.185,3.185,0,0,1,1.289-.251,4.341,4.341,0,0,1,1.67.322l-.309,1.181a3.3,3.3,0,0,0-.566-.177,3.016,3.016,0,0,0-.675-.072,1.575,1.575,0,0,0-1.289.531,2.282,2.282,0,0,0-.441,1.5,2.345,2.345,0,0,0,.418,1.473,1.661,1.661,0,0,0,1.407.544,3.831,3.831,0,0,0,.728-.072,3.473,3.473,0,0,0,.621-.179l.2,1.193a3.059,3.059,0,0,1-.722.214,5.045,5.045,0,0,1-1,.1,3.636,3.636,0,0,1-1.391-.243,2.653,2.653,0,0,1-.977-.681,2.782,2.782,0,0,1-.578-1.038,4.28,4.28,0,0,1-.192-1.306" transform="translate(-255.314 -57.389)" fill="#161615"/>
        <path id="Path_599" data-name="Path 599" d="M296.45,61.438c-.158.165-.369.4-.626.7s-.536.638-.829,1.008-.591.756-.889,1.158-.568.785-.806,1.152h3.222v1.2h-4.962V65.77a10.962,10.962,0,0,1,.656-1.04q.393-.56.812-1.128t.828-1.079c.276-.342.52-.641.735-.894h-2.876V60.424h4.737Z" transform="translate(-266.407 -57.704)" fill="#161615"/>
        <path id="Path_600" data-name="Path 600" d="M314.809,63.305a2.321,2.321,0,0,0-.436-1.5,1.7,1.7,0,0,0-1.4-.537c-.134,0-.277.006-.423.017a2.344,2.344,0,0,0-.436.079v3.567a2.327,2.327,0,0,0,.507.243,1.96,1.96,0,0,0,.673.114,1.291,1.291,0,0,0,1.153-.537,2.543,2.543,0,0,0,.364-1.444m1.479-.023a4.39,4.39,0,0,1-.185,1.313,3.072,3.072,0,0,1-.529,1.026,2.353,2.353,0,0,1-.866.668,2.774,2.774,0,0,1-1.175.24,2.864,2.864,0,0,1-.811-.108,2.97,2.97,0,0,1-.608-.24V68.6h-1.444V60.359q.44-.119,1.085-.225a8.17,8.17,0,0,1,1.36-.109,3.622,3.622,0,0,1,1.324.228,2.774,2.774,0,0,1,1,.65,2.847,2.847,0,0,1,.632,1.026,3.912,3.912,0,0,1,.22,1.354" transform="translate(-279.219 -57.436)" fill="#161615"/>
        <path id="Path_601" data-name="Path 601" d="M335.7,63.223a2.421,2.421,0,0,0-.4-1.472,1.418,1.418,0,0,0-2.232,0,2.439,2.439,0,0,0-.4,1.472,2.5,2.5,0,0,0,.4,1.492,1.409,1.409,0,0,0,2.232,0,2.482,2.482,0,0,0,.4-1.492m1.481,0a4.017,4.017,0,0,1-.215,1.348,2.981,2.981,0,0,1-.609,1.039,2.758,2.758,0,0,1-.947.669,3.088,3.088,0,0,1-1.225.238,3.033,3.033,0,0,1-1.216-.238,2.763,2.763,0,0,1-.943-.669,3.047,3.047,0,0,1-.613-1.039,3.873,3.873,0,0,1-.222-1.348,3.828,3.828,0,0,1,.222-1.342,3.014,3.014,0,0,1,.619-1.032,2.717,2.717,0,0,1,.951-.661,3.026,3.026,0,0,1,1.2-.233,3.1,3.1,0,0,1,1.213.233,2.666,2.666,0,0,1,.947.661,3.082,3.082,0,0,1,.616,1.032,3.9,3.9,0,0,1,.22,1.342" transform="translate(-292.979 -57.39)" fill="#161615"/>
        <path id="Path_602" data-name="Path 602" d="M354.478,65.31a1.906,1.906,0,0,0,.836-.137.489.489,0,0,0,.264-.471.608.608,0,0,0-.282-.512,4.044,4.044,0,0,0-.925-.442,6.694,6.694,0,0,1-.721-.306,2.434,2.434,0,0,1-.568-.374,1.544,1.544,0,0,1-.375-.52,1.8,1.8,0,0,1-.136-.745,1.625,1.625,0,0,1,.631-1.354,2.712,2.712,0,0,1,1.719-.5,5.276,5.276,0,0,1,1.048.1,5.17,5.17,0,0,1,.754.2l-.264,1.168a3.6,3.6,0,0,0-.609-.2,3.666,3.666,0,0,0-.859-.09,1.5,1.5,0,0,0-.715.149.487.487,0,0,0-.276.459.649.649,0,0,0,.054.275.606.606,0,0,0,.185.222,1.94,1.94,0,0,0,.347.2,5.245,5.245,0,0,0,.524.208,7.933,7.933,0,0,1,.871.375,2.369,2.369,0,0,1,.591.417,1.439,1.439,0,0,1,.339.533,2.067,2.067,0,0,1,.108.715,1.54,1.54,0,0,1-.663,1.354,3.29,3.29,0,0,1-1.89.459,5.2,5.2,0,0,1-1.326-.137,6.838,6.838,0,0,1-.7-.22l.252-1.206a6.076,6.076,0,0,0,.769.25,3.9,3.9,0,0,0,1.019.12" transform="translate(-307.221 -57.389)" fill="#161615"/>
        <path id="Path_603" data-name="Path 603" d="M374.574,63.305a2.332,2.332,0,0,0-.436-1.5,1.7,1.7,0,0,0-1.4-.537q-.2,0-.426.017a2.336,2.336,0,0,0-.433.079v3.567a2.229,2.229,0,0,0,.507.243,1.966,1.966,0,0,0,.673.114,1.294,1.294,0,0,0,1.153-.537,2.532,2.532,0,0,0,.364-1.444m1.479-.023a4.465,4.465,0,0,1-.185,1.313,3.028,3.028,0,0,1-.532,1.026,2.342,2.342,0,0,1-.864.668,2.77,2.77,0,0,1-1.175.24,3.016,3.016,0,0,1-1.42-.348V68.6h-1.444V60.359c.295-.079.656-.155,1.085-.225a8.176,8.176,0,0,1,1.36-.109,3.635,3.635,0,0,1,1.327.228,2.77,2.77,0,0,1,.994.65,2.881,2.881,0,0,1,.633,1.026,3.9,3.9,0,0,1,.221,1.354" transform="translate(-319.286 -57.436)" fill="#161615"/>
        <path id="Path_604" data-name="Path 604" d="M395.47,63.223a2.439,2.439,0,0,0-.4-1.472,1.418,1.418,0,0,0-2.232,0,2.425,2.425,0,0,0-.4,1.472,2.487,2.487,0,0,0,.4,1.492,1.409,1.409,0,0,0,2.232,0,2.5,2.5,0,0,0,.4-1.492m1.479,0a4.01,4.01,0,0,1-.215,1.348,2.991,2.991,0,0,1-.608,1.039,2.766,2.766,0,0,1-.949.669,3.071,3.071,0,0,1-1.223.238,3.029,3.029,0,0,1-1.216-.238,2.765,2.765,0,0,1-.943-.669,3.041,3.041,0,0,1-.613-1.039,3.873,3.873,0,0,1-.222-1.348,3.828,3.828,0,0,1,.222-1.342,3,3,0,0,1,.62-1.032,2.735,2.735,0,0,1,.947-.661,3.056,3.056,0,0,1,1.206-.233,3.111,3.111,0,0,1,1.213.233,2.66,2.66,0,0,1,.947.661,3.039,3.039,0,0,1,.613,1.032,3.828,3.828,0,0,1,.222,1.342" transform="translate(-333.047 -57.39)" fill="#161615"/>
        <path id="Path_605" data-name="Path 605" d="M415.777,62.823a3.892,3.892,0,0,1-1.067-.143,1.611,1.611,0,0,1-.674-.376,1.312,1.312,0,0,1-.352-.608,3.071,3.071,0,0,1-.1-.829V54.757l1.443-.239v6.075a2.036,2.036,0,0,0,.041.442.693.693,0,0,0,.151.3.652.652,0,0,0,.29.191,2.232,2.232,0,0,0,.471.1Z" transform="translate(-348.214 -53.745)" fill="#161615"/>
        <path id="Path_606" data-name="Path 606" d="M425.522,61.131H424.08v-6.24h1.442Zm.156-8.064a.828.828,0,0,1-.262.643.89.89,0,0,1-.621.239.9.9,0,0,1-.631-.239.829.829,0,0,1-.262-.643.842.842,0,0,1,.262-.656.9.9,0,0,1,.631-.239.89.89,0,0,1,.621.239.842.842,0,0,1,.262.656" transform="translate(-355.132 -52.172)" fill="#161615"/>
        <path id="Path_607" data-name="Path 607" d="M434.177,54.758l1.444-.238v1.946h2.219v1.206h-2.219v2.541a1.839,1.839,0,0,0,.238,1.072.942.942,0,0,0,.811.324,2.643,2.643,0,0,0,.7-.084,4.383,4.383,0,0,0,.482-.156l.24,1.147a5.819,5.819,0,0,1-.658.22,3.588,3.588,0,0,1-.954.113,3,3,0,0,1-1.114-.179,1.644,1.644,0,0,1-.711-.519,2.031,2.031,0,0,1-.368-.824,4.958,4.958,0,0,1-.109-1.1Z" transform="translate(-362.021 -53.746)" fill="#161615"/>
        <path id="Path_608" data-name="Path 608" d="M450.825,65.336a5.425,5.425,0,0,0,1.015-.073v-1.6a3.067,3.067,0,0,0-.346-.072,3.434,3.434,0,0,0-.5-.036,3.582,3.582,0,0,0-.482.036,1.566,1.566,0,0,0-.442.132.809.809,0,0,0-.314.269.741.741,0,0,0-.12.435.764.764,0,0,0,.322.71,1.655,1.655,0,0,0,.871.2m-.12-5.382a3.541,3.541,0,0,1,1.206.179,1.952,1.952,0,0,1,.782.5,1.9,1.9,0,0,1,.418.783,3.88,3.88,0,0,1,.123,1.008v3.781q-.332.071-1.007.173a10.409,10.409,0,0,1-1.522.1,4.568,4.568,0,0,1-1.025-.107,2.161,2.161,0,0,1-.793-.346,1.617,1.617,0,0,1-.513-.621,2.136,2.136,0,0,1-.186-.942,1.836,1.836,0,0,1,.208-.907,1.725,1.725,0,0,1,.569-.6,2.438,2.438,0,0,1,.829-.334,4.713,4.713,0,0,1,.985-.1,4.237,4.237,0,0,1,.5.03,4.49,4.49,0,0,1,.562.1v-.239a1.828,1.828,0,0,0-.06-.476.96.96,0,0,0-.21-.4.982.982,0,0,0-.393-.269,1.7,1.7,0,0,0-.614-.1,5.606,5.606,0,0,0-.92.072,3.79,3.79,0,0,0-.678.167l-.18-1.169a5.606,5.606,0,0,1,.8-.19,6.176,6.176,0,0,1,1.121-.1" transform="translate(-371.414 -57.389)" fill="#161615"/>
        <path id="Path_609" data-name="Path 609" d="M217.69,88.881c-.38,0-.693.014-.942.036v2.817h.73a3.676,3.676,0,0,0,1.67-.306,1.174,1.174,0,0,0,.585-1.151,1.366,1.366,0,0,0-.157-.679,1.1,1.1,0,0,0-.428-.43,2.052,2.052,0,0,0-.653-.221,4.764,4.764,0,0,0-.805-.067m-.105-1.3a4.869,4.869,0,0,1,2.761.656,2.307,2.307,0,0,1,.96,2.053,2.81,2.81,0,0,1-.255,1.246,2.17,2.17,0,0,1-.745.846,3.444,3.444,0,0,1-1.193.484,7.5,7.5,0,0,1-1.611.155h-.752v2.911h-1.5V87.784a7.535,7.535,0,0,1,1.163-.161q.639-.042,1.177-.042" transform="translate(-215.245 -75.911)" fill="#161615"/>
        <path id="Path_610" data-name="Path 610" d="M240.388,96.787a2.424,2.424,0,0,0-.4-1.473,1.416,1.416,0,0,0-2.229,0,2.433,2.433,0,0,0-.4,1.473,2.482,2.482,0,0,0,.4,1.491,1.405,1.405,0,0,0,2.229,0,2.473,2.473,0,0,0,.4-1.491m1.479,0a4.017,4.017,0,0,1-.215,1.347,2.939,2.939,0,0,1-.608,1.039,2.723,2.723,0,0,1-.949.668,3.053,3.053,0,0,1-1.224.239,2.988,2.988,0,0,1-1.215-.239,2.718,2.718,0,0,1-.943-.668,3.021,3.021,0,0,1-.616-1.039,3.919,3.919,0,0,1-.221-1.347,3.866,3.866,0,0,1,.221-1.342,3,3,0,0,1,.621-1.032,2.7,2.7,0,0,1,.95-.662,3.043,3.043,0,0,1,1.2-.233,3.106,3.106,0,0,1,1.212.233,2.633,2.633,0,0,1,.948.662,3.063,3.063,0,0,1,.616,1.032,3.89,3.89,0,0,1,.22,1.342" transform="translate(-229.078 -79.891)" fill="#161615"/>
        <path id="Path_611" data-name="Path 611" d="M260.7,96.415a4,4,0,0,1-1.069-.142,1.675,1.675,0,0,1-.675-.377,1.349,1.349,0,0,1-.352-.61,3.136,3.136,0,0,1-.1-.828v-6.1l1.444-.239v6.062a2.1,2.1,0,0,0,.042.441.7.7,0,0,0,.149.3.683.683,0,0,0,.293.191,2.235,2.235,0,0,0,.47.1Z" transform="translate(-244.247 -76.275)" fill="#161615"/>
        <path id="Path_612" data-name="Path 612" d="M269.922,98.873a1.9,1.9,0,0,0,.835-.137.488.488,0,0,0,.262-.47.608.608,0,0,0-.28-.513,4.109,4.109,0,0,0-.925-.441,7.252,7.252,0,0,1-.721-.305,2.416,2.416,0,0,1-.568-.376,1.5,1.5,0,0,1-.375-.518,1.823,1.823,0,0,1-.137-.746,1.623,1.623,0,0,1,.632-1.354,2.721,2.721,0,0,1,1.717-.5,5.392,5.392,0,0,1,1.052.1,5.268,5.268,0,0,1,.752.2l-.264,1.169a3.449,3.449,0,0,0-.607-.2,3.667,3.667,0,0,0-.86-.089,1.512,1.512,0,0,0-.717.148.49.49,0,0,0-.273.459.686.686,0,0,0,.052.275.59.59,0,0,0,.186.221,1.854,1.854,0,0,0,.344.2c.145.069.32.136.526.209a7.922,7.922,0,0,1,.873.376,2.445,2.445,0,0,1,.592.417,1.458,1.458,0,0,1,.338.531,2.165,2.165,0,0,1,.106.717,1.539,1.539,0,0,1-.663,1.353,3.289,3.289,0,0,1-1.892.46,5.2,5.2,0,0,1-1.322-.138,6.594,6.594,0,0,1-.7-.221l.25-1.2a6.642,6.642,0,0,0,.767.25,3.953,3.953,0,0,0,1.022.12" transform="translate(-250.534 -79.89)" fill="#161615"/>
        <path id="Path_613" data-name="Path 613" d="M287.311,92.49c.184-.189.378-.395.586-.613s.411-.437.609-.656.387-.43.568-.633.331-.38.458-.531h1.705q-.594.666-1.254,1.385t-1.329,1.4a7.83,7.83,0,0,1,.75.721q.393.424.764.9c.245.319.476.636.689.954a10.062,10.062,0,0,1,.537.882h-1.673q-.213-.369-.494-.775t-.6-.789c-.215-.253-.434-.494-.655-.72a5.581,5.581,0,0,0-.658-.579V96.3h-1.444V88.363l1.444-.239Z" transform="translate(-262.591 -76.275)" fill="#161615"/>
        <path id="Path_614" data-name="Path 614" d="M307.117,98.9a5.466,5.466,0,0,0,1.015-.072v-1.6a2.552,2.552,0,0,0-.348-.072,3.211,3.211,0,0,0-.5-.037,3.273,3.273,0,0,0-.481.037,1.528,1.528,0,0,0-.444.131.826.826,0,0,0-.315.269.753.753,0,0,0-.12.436.761.761,0,0,0,.325.71,1.647,1.647,0,0,0,.87.2M307,93.516a3.528,3.528,0,0,1,1.2.18,1.931,1.931,0,0,1,.781.5,1.9,1.9,0,0,1,.418.782,3.8,3.8,0,0,1,.126,1.008v3.783c-.222.047-.559.105-1.009.172a10.277,10.277,0,0,1-1.521.1,4.653,4.653,0,0,1-1.027-.106,2.167,2.167,0,0,1-.793-.348,1.629,1.629,0,0,1-.513-.62,2.132,2.132,0,0,1-.184-.943,1.841,1.841,0,0,1,.207-.907,1.735,1.735,0,0,1,.568-.6,2.411,2.411,0,0,1,.829-.333,4.573,4.573,0,0,1,.982-.1,4.275,4.275,0,0,1,.5.03,4.405,4.405,0,0,1,.563.1v-.239a1.79,1.79,0,0,0-.062-.477.984.984,0,0,0-.208-.4,1,1,0,0,0-.395-.269,1.712,1.712,0,0,0-.614-.095,5.433,5.433,0,0,0-.919.073,3.83,3.83,0,0,0-.679.167l-.18-1.17a5.722,5.722,0,0,1,.8-.191,6.281,6.281,0,0,1,1.121-.1" transform="translate(-275.07 -79.89)" fill="#161615"/>
      </g>
      <g id="Group_391" data-name="Group 391" transform="translate(33.044 33.055)">
        <rect id="Rectangle_1319" data-name="Rectangle 1319" width="49.157" height="16.405" transform="translate(0)" fill="#fff"/>
        <rect id="Rectangle_1320" data-name="Rectangle 1320" width="49.157" height="16.401" transform="translate(0 16.405)" fill="#a40b1f"/>
      </g>
      <path id="Path_615" data-name="Path 615" d="M33.2,33.21h48.85v32.5H33.2Zm-.154,32.651H82.2V33.055H33.044Z" transform="translate(0 0)" fill="#757474"/>
    </g>
  </g>
</svg>
