<svg xmlns="http://www.w3.org/2000/svg" xmlns:xlink="http://www.w3.org/1999/xlink" width="145" height="30" viewBox="0 0 145 30">
  <defs>
    <clipPath id="clip-_4_UE">
      <rect width="145" height="30"/>
    </clipPath>
  </defs>
  <g id="_4_UE" data-name="4 UE" clip-path="url(#clip-_4_UE)">
    <g id="Group_437" data-name="Group 437" transform="translate(-44.384 -10.515)">
      <g id="Group_436" data-name="Group 436" transform="translate(45.354 11.052)">
        <g id="Group_431" data-name="Group 431" transform="translate(100.644)">
          <rect id="Rectangle_1336" data-name="Rectangle 1336" width="43.387" height="28.925" fill="#003383"/>
          <path id="Path_978" data-name="Path 978" d="M330.1,56.339l.917-.669.915.669-.35-1.08.931-.668H331.37l-.35-1.093-.35,1.093h-1.15l.928.668Z" transform="translate(-309.334 -50.035)" fill="#ffe800"/>
          <path id="Path_979" data-name="Path 979" d="M318.964,59.325l.918-.669.915.669-.349-1.08.93-.669h-1.146l-.352-1.1-.35,1.1-1.144,0,.928.669Z" transform="translate(-302.934 -51.75)" fill="#ffe800"/>
          <path id="Path_980" data-name="Path 980" d="M311.723,64.656l-.35,1.1-1.146,0,.928.669-.347,1.08.915-.666.918.666-.349-1.08.931-.669h-1.147Z" transform="translate(-298.244 -56.449)" fill="#ffe800"/>
          <path id="Path_981" data-name="Path 981" d="M308.734,77.954l.912.672-.347-1.08.931-.668h-1.146l-.35-1.1-.355,1.1-1.144,0,.928.668-.346,1.08Z" transform="translate(-296.524 -62.843)" fill="#ffe800"/>
          <path id="Path_982" data-name="Path 982" d="M312.074,88.04l-.352-1.093-.349,1.093h-1.147l.928.672-.347,1.077.915-.669.917.669-.349-1.077.931-.672Z" transform="translate(-298.244 -69.261)" fill="#ffe800"/>
          <path id="Path_983" data-name="Path 983" d="M320.239,96.209l-.35-1.093-.353,1.1-1.146,0,.931.669-.347,1.08.915-.669.917.669-.349-1.08.931-.669Z" transform="translate(-302.936 -73.957)" fill="#ffe800"/>
          <path id="Path_984" data-name="Path 984" d="M331.37,99.165l-.35-1.1-.35,1.1h-1.149l.931.667-.35,1.082.918-.669.917.669-.353-1.082.935-.667Z" transform="translate(-309.334 -75.654)" fill="#ffe800"/>
          <path id="Path_985" data-name="Path 985" d="M342.5,96.209l-.353-1.093-.353,1.1-1.141,0,.926.669-.347,1.08.915-.669.917.669-.35-1.08.935-.669Z" transform="translate(-315.735 -73.957)" fill="#ffe800"/>
          <path id="Path_986" data-name="Path 986" d="M350.674,88.04l-.353-1.093-.349,1.093h-1.145l.929.672-.353,1.077.917-.669.918.669-.35-1.077.932-.672Z" transform="translate(-320.432 -69.261)" fill="#ffe800"/>
          <path id="Path_987" data-name="Path 987" d="M354.776,76.846h-1.147l-.347-1.1-.355,1.1h-1.143l.93.669-.353,1.08.92-.669.915.669-.349-1.08Z" transform="translate(-322.131 -62.825)" fill="#ffe800"/>
          <path id="Path_988" data-name="Path 988" d="M349.405,67.461l.918-.665.917.665-.35-1.08.931-.665h-1.146l-.353-1.1-.349,1.1-1.145,0,.929.665Z" transform="translate(-320.432 -56.427)" fill="#ffe800"/>
          <path id="Path_989" data-name="Path 989" d="M342.18,56.481l-.346,1.1-1.15,0,.931.669-.347,1.082.918-.672.912.672-.347-1.082.928-.669h-1.146Z" transform="translate(-315.751 -51.75)" fill="#ffe800"/>
        </g>
        <g id="Group_433" data-name="Group 433" transform="translate(0 17.621)">
          <g id="Group_432" data-name="Group 432">
            <path id="Path_990" data-name="Path 990" d="M45.354,93.107V88.333h2.914V88.9H46.022v1.419h2v.558h-2v1.653H48.44v.572Z" transform="translate(-45.354 -87.679)" fill="#161615"/>
            <path id="Path_991" data-name="Path 991" d="M56.914,94.436q-.22.055-.582.117a4.962,4.962,0,0,1-.837.063,1.773,1.773,0,0,1-.7-.121,1.122,1.122,0,0,1-.455-.341,1.386,1.386,0,0,1-.248-.52,2.708,2.708,0,0,1-.076-.665V90.957h.641v1.874a1.624,1.624,0,0,0,.207.937.8.8,0,0,0,.7.282c.069,0,.14,0,.213-.007s.142-.011.207-.017l.176-.02a.506.506,0,0,0,.114-.024V90.957h.64Z" transform="translate(-50.336 -89.187)" fill="#161615"/>
            <path id="Path_992" data-name="Path 992" d="M64.659,90.957c.055,0,.118,0,.189.01s.141.017.21.028l.19.034c.057.012.1.022.128.031l-.111.558a2.135,2.135,0,0,0-.251-.065,2.184,2.184,0,0,0-.451-.038,1.665,1.665,0,0,0-.355.038q-.175.038-.23.051v3.01h-.641V91.184a4.368,4.368,0,0,1,.565-.155A3.639,3.639,0,0,1,64.659,90.957Z" transform="translate(-55.69 -89.187)" fill="#161615"/>
            <path id="Path_993" data-name="Path 993" d="M72.4,92.611a2.271,2.271,0,0,1-.124.772,1.77,1.77,0,0,1-.348.592,1.536,1.536,0,0,1-.534.382,1.763,1.763,0,0,1-1.35,0,1.537,1.537,0,0,1-.534-.382,1.762,1.762,0,0,1-.348-.592,2.449,2.449,0,0,1,0-1.54,1.753,1.753,0,0,1,.348-.6,1.533,1.533,0,0,1,.534-.383,1.763,1.763,0,0,1,1.35,0,1.532,1.532,0,0,1,.534.383,1.761,1.761,0,0,1,.348.6A2.278,2.278,0,0,1,72.4,92.611Zm-.668,0a1.544,1.544,0,0,0-.272-.961.95.95,0,0,0-1.481,0,1.833,1.833,0,0,0,0,1.922.95.95,0,0,0,1.481,0A1.543,1.543,0,0,0,71.731,92.611Z" transform="translate(-58.967 -89.056)" fill="#161615"/>
            <path id="Path_994" data-name="Path 994" d="M82.14,92.831a2.526,2.526,0,0,1-.107.75,1.709,1.709,0,0,1-.313.593,1.423,1.423,0,0,1-.506.386,1.624,1.624,0,0,1-.685.138,1.67,1.67,0,0,1-.548-.082,1.731,1.731,0,0,1-.355-.159v1.433h-.641V91.143q.228-.055.568-.121a4.239,4.239,0,0,1,.789-.065,2.008,2.008,0,0,1,.744.131,1.6,1.6,0,0,1,.565.372,1.647,1.647,0,0,1,.361.589A2.26,2.26,0,0,1,82.14,92.831Zm-.668,0a1.373,1.373,0,0,0-.31-.964,1.068,1.068,0,0,0-.827-.338,3.726,3.726,0,0,0-.451.021,1.8,1.8,0,0,0-.258.048v2.259a1.307,1.307,0,0,0,.337.186,1.274,1.274,0,0,0,.483.09,1.031,1.031,0,0,0,.472-.1.861.861,0,0,0,.32-.276,1.164,1.164,0,0,0,.179-.413A2.281,2.281,0,0,0,81.472,92.831Z" transform="translate(-64.685 -89.187)" fill="#161615"/>
            <path id="Path_995" data-name="Path 995" d="M87.976,92.618a2.286,2.286,0,0,1,.138-.83,1.736,1.736,0,0,1,.365-.589A1.487,1.487,0,0,1,89,90.847a1.63,1.63,0,0,1,.606-.117,1.38,1.38,0,0,1,1.109.451,2.079,2.079,0,0,1,.386,1.374v.107a1.046,1.046,0,0,1-.007.12H88.644a1.31,1.31,0,0,0,.324.847,1.185,1.185,0,0,0,.881.289,2.327,2.327,0,0,0,.568-.059,2.013,2.013,0,0,0,.348-.114l.089.537a1.91,1.91,0,0,1-.41.131,2.888,2.888,0,0,1-.665.069,2.1,2.1,0,0,1-.809-.142,1.508,1.508,0,0,1-.562-.389,1.588,1.588,0,0,1-.327-.589A2.483,2.483,0,0,1,87.976,92.618Zm2.459-.351a1.075,1.075,0,0,0-.217-.713.747.747,0,0,0-.617-.279.843.843,0,0,0-.389.086.912.912,0,0,0-.286.224,1.04,1.04,0,0,0-.183.317,1.556,1.556,0,0,0-.086.365Z" transform="translate(-69.853 -89.056)" fill="#161615"/>
            <path id="Path_996" data-name="Path 996" d="M95.457,93.994a1.4,1.4,0,0,1-.213-.021,1.086,1.086,0,0,1-.22-.055l.082-.523a1.227,1.227,0,0,0,.159.034,1.122,1.122,0,0,0,.165.014.534.534,0,0,0,.472-.2,1.044,1.044,0,0,0,.141-.6V89.124h.641v3.513a1.452,1.452,0,0,1-.313,1.023A1.192,1.192,0,0,1,95.457,93.994Zm.9-5.518a.413.413,0,0,1-.293-.114.451.451,0,0,1,0-.613.433.433,0,0,1,.586,0,.451.451,0,0,1,0,.613A.414.414,0,0,1,96.359,88.477Z" transform="translate(-73.903 -87.278)" fill="#161615"/>
            <path id="Path_997" data-name="Path 997" d="M101.9,93.94a1.261,1.261,0,0,0,.582-.1.35.35,0,0,0,.19-.331.44.44,0,0,0-.186-.372,2.937,2.937,0,0,0-.613-.31q-.207-.082-.4-.169a1.4,1.4,0,0,1-.327-.2.887.887,0,0,1-.22-.283.9.9,0,0,1-.082-.406.912.912,0,0,1,.351-.754,1.5,1.5,0,0,1,.957-.279,2.685,2.685,0,0,1,.3.017c.1.011.2.026.282.041s.164.034.231.052.118.034.155.048l-.117.551a1.618,1.618,0,0,0-.324-.114,2.086,2.086,0,0,0-.531-.059.982.982,0,0,0-.468.107.354.354,0,0,0-.2.334.451.451,0,0,0,.045.207.473.473,0,0,0,.137.162,1.121,1.121,0,0,0,.231.134c.092.042.2.085.331.131q.254.1.455.19a1.438,1.438,0,0,1,.341.217.832.832,0,0,1,.217.3,1.084,1.084,0,0,1,.076.43.854.854,0,0,1-.369.751,1.832,1.832,0,0,1-1.05.255,2.728,2.728,0,0,1-.744-.08,3.824,3.824,0,0,1-.365-.12l.117-.551c.074.027.191.069.351.124A2.023,2.023,0,0,0,101.9,93.94Z" transform="translate(-77.218 -89.056)" fill="#161615"/>
            <path id="Path_998" data-name="Path 998" d="M109.877,90.363a4.332,4.332,0,0,1,.437.393q.231.234.455.506c.15.182.29.365.424.551a6.063,6.063,0,0,1,.337.52h-.75a5.675,5.675,0,0,0-.334-.493q-.189-.251-.4-.482a5.654,5.654,0,0,0-.42-.424,3.814,3.814,0,0,0-.406-.324v1.722h-.641V87.1l.641-.111v3.265l.365-.365q.2-.2.392-.407t.365-.4q.172-.189.3-.334h.751q-.159.172-.344.378t-.386.417q-.2.21-.4.42Z" transform="translate(-81.697 -86.906)" fill="#161615"/>
            <path id="Path_999" data-name="Path 999" d="M117.144,88.477a.413.413,0,0,1-.293-.114.451.451,0,0,1,0-.613.433.433,0,0,1,.586,0,.45.45,0,0,1,0,.613A.414.414,0,0,1,117.144,88.477Zm.324,4.23h-.641V89.124h.641Z" transform="translate(-86.381 -87.278)" fill="#161615"/>
            <path id="Path_1000" data-name="Path 1000" d="M124.733,93.107V88.333h2.88V88.9H125.4v1.439h1.963v.565H125.4v2.2Z" transform="translate(-90.98 -87.679)" fill="#161615"/>
            <path id="Path_1001" data-name="Path 1001" d="M135.645,94.436q-.221.055-.582.117a4.961,4.961,0,0,1-.837.063,1.776,1.776,0,0,1-.7-.121,1.121,1.121,0,0,1-.455-.341,1.386,1.386,0,0,1-.248-.52,2.708,2.708,0,0,1-.076-.665V90.957h.641v1.874a1.625,1.625,0,0,0,.206.937.806.806,0,0,0,.7.282c.069,0,.14,0,.213-.007s.142-.011.207-.017l.176-.02a.5.5,0,0,0,.114-.024V90.957h.641Z" transform="translate(-95.59 -89.187)" fill="#161615"/>
            <path id="Path_1002" data-name="Path 1002" d="M142.067,91.136q.22-.055.586-.117a5.071,5.071,0,0,1,.84-.062,1.816,1.816,0,0,1,.71.121,1.107,1.107,0,0,1,.451.338,1.309,1.309,0,0,1,.238.52,3.016,3.016,0,0,1,.069.668v2.012h-.641V92.741a3.065,3.065,0,0,0-.045-.565.946.946,0,0,0-.148-.379.585.585,0,0,0-.276-.21,1.217,1.217,0,0,0-.427-.065c-.069,0-.14,0-.213.007s-.144.01-.21.017-.126.015-.179.024l-.114.021v3.024h-.64Z" transform="translate(-100.944 -89.187)" fill="#161615"/>
            <path id="Path_1003" data-name="Path 1003" d="M153.328,86.9l.641-.11v5.242q-.221.062-.565.124a4.483,4.483,0,0,1-.793.062,2.006,2.006,0,0,1-.744-.131,1.589,1.589,0,0,1-.565-.372,1.638,1.638,0,0,1-.362-.589,2.26,2.26,0,0,1-.128-.782,2.555,2.555,0,0,1,.107-.758,1.7,1.7,0,0,1,.313-.592,1.423,1.423,0,0,1,.506-.386,1.624,1.624,0,0,1,.685-.138,1.661,1.661,0,0,1,.548.082,1.73,1.73,0,0,1,.355.159Zm0,2.411a1.309,1.309,0,0,0-.338-.186,1.262,1.262,0,0,0-.482-.09,1.032,1.032,0,0,0-.472.1.868.868,0,0,0-.321.276,1.162,1.162,0,0,0-.179.417,2.325,2.325,0,0,0-.055.517,1.388,1.388,0,0,0,.31.968,1.062,1.062,0,0,0,.827.341,3.284,3.284,0,0,0,.437-.024,2.027,2.027,0,0,0,.272-.051Z" transform="translate(-105.971 -86.794)" fill="#161615"/>
            <path id="Path_1004" data-name="Path 1004" d="M163.541,94.436q-.221.055-.582.117a4.961,4.961,0,0,1-.837.063,1.776,1.776,0,0,1-.7-.121,1.121,1.121,0,0,1-.455-.341,1.386,1.386,0,0,1-.248-.52,2.708,2.708,0,0,1-.076-.665V90.957h.641v1.874a1.625,1.625,0,0,0,.206.937.806.806,0,0,0,.7.282c.069,0,.14,0,.213-.007s.142-.011.207-.017l.176-.02a.5.5,0,0,0,.114-.024V90.957h.641Z" transform="translate(-111.624 -89.187)" fill="#161615"/>
            <path id="Path_1005" data-name="Path 1005" d="M170.423,93.94a1.26,1.26,0,0,0,.582-.1.35.35,0,0,0,.19-.331.44.44,0,0,0-.186-.372,2.96,2.96,0,0,0-.613-.31q-.207-.082-.4-.169a1.4,1.4,0,0,1-.327-.2.887.887,0,0,1-.22-.283.9.9,0,0,1-.083-.406.913.913,0,0,1,.351-.754,1.5,1.5,0,0,1,.958-.279,2.685,2.685,0,0,1,.3.017c.1.011.2.026.282.041s.164.034.231.052.118.034.155.048l-.117.551a1.635,1.635,0,0,0-.324-.114,2.082,2.082,0,0,0-.53-.059.982.982,0,0,0-.469.107.355.355,0,0,0-.2.334.456.456,0,0,0,.045.207.474.474,0,0,0,.138.162,1.11,1.11,0,0,0,.231.134c.092.042.2.085.33.131q.254.1.455.19a1.428,1.428,0,0,1,.341.217.826.826,0,0,1,.217.3,1.084,1.084,0,0,1,.076.43.855.855,0,0,1-.369.751,1.833,1.833,0,0,1-1.05.255,2.729,2.729,0,0,1-.744-.08q-.269-.079-.365-.12l.117-.551c.073.027.19.069.351.124A2.021,2.021,0,0,0,170.423,93.94Z" transform="translate(-116.605 -89.056)" fill="#161615"/>
            <path id="Path_1006" data-name="Path 1006" d="M179.074,91.618q-.145.158-.382.448t-.51.64q-.272.351-.544.737t-.479.737h1.97v.537h-2.735v-.427q.165-.3.407-.668t.506-.727q.265-.362.517-.682t.437-.541h-1.77v-.537h2.583Z" transform="translate(-120.675 -89.29)" fill="#161615"/>
            <path id="Path_1007" data-name="Path 1007" d="M189.029,92.24q1.047,0,1.047-.716a.716.716,0,0,0-.093-.375.9.9,0,0,0-.251-.269,1.753,1.753,0,0,0-.362-.2q-.2-.083-.43-.165a4.425,4.425,0,0,1-.5-.2,1.735,1.735,0,0,1-.407-.269,1.135,1.135,0,0,1-.272-.369,1.209,1.209,0,0,1-.1-.517,1.2,1.2,0,0,1,.427-.978,1.8,1.8,0,0,1,1.178-.351,3.127,3.127,0,0,1,.789.093,1.815,1.815,0,0,1,.52.2l-.213.544a1.9,1.9,0,0,0-.43-.176,2.315,2.315,0,0,0-.665-.086,1.49,1.49,0,0,0-.358.041.922.922,0,0,0-.29.125.606.606,0,0,0-.2.21.6.6,0,0,0-.073.3.635.635,0,0,0,.076.324.745.745,0,0,0,.213.231,1.833,1.833,0,0,0,.32.183q.182.082.4.165.31.124.569.248a1.865,1.865,0,0,1,.447.3,1.186,1.186,0,0,1,.293.41,1.439,1.439,0,0,1,.1.575,1.126,1.126,0,0,1-.458.964,2.147,2.147,0,0,1-1.292.338,3.334,3.334,0,0,1-.52-.038,3.951,3.951,0,0,1-.424-.09,2.353,2.353,0,0,1-.32-.111q-.135-.058-.21-.1l.2-.551a3.026,3.026,0,0,0,.482.2A2.475,2.475,0,0,0,189.029,92.24Z" transform="translate(-127.09 -87.39)" fill="#161615"/>
            <path id="Path_1008" data-name="Path 1008" d="M200.009,92.831a2.513,2.513,0,0,1-.107.75,1.7,1.7,0,0,1-.313.593,1.425,1.425,0,0,1-.506.386,1.625,1.625,0,0,1-.685.138,1.67,1.67,0,0,1-.548-.082,1.72,1.72,0,0,1-.355-.159v1.433h-.641V91.143q.227-.055.568-.121a4.246,4.246,0,0,1,.789-.065,2.009,2.009,0,0,1,.744.131,1.593,1.593,0,0,1,.565.372,1.647,1.647,0,0,1,.362.589A2.26,2.26,0,0,1,200.009,92.831Zm-.668,0a1.375,1.375,0,0,0-.31-.964,1.069,1.069,0,0,0-.827-.338,3.716,3.716,0,0,0-.451.021,1.786,1.786,0,0,0-.258.048v2.259a1.293,1.293,0,0,0,.337.186,1.274,1.274,0,0,0,.482.09,1.029,1.029,0,0,0,.472-.1.859.859,0,0,0,.32-.276,1.171,1.171,0,0,0,.179-.413A2.28,2.28,0,0,0,199.341,92.831Z" transform="translate(-132.435 -89.187)" fill="#161615"/>
            <path id="Path_1009" data-name="Path 1009" d="M209.207,92.611a2.26,2.26,0,0,1-.124.772,1.769,1.769,0,0,1-.348.592,1.538,1.538,0,0,1-.534.382,1.763,1.763,0,0,1-1.35,0,1.532,1.532,0,0,1-.534-.382,1.77,1.77,0,0,1-.348-.592,2.456,2.456,0,0,1,0-1.54,1.761,1.761,0,0,1,.348-.6,1.528,1.528,0,0,1,.534-.383,1.763,1.763,0,0,1,1.35,0,1.533,1.533,0,0,1,.534.383,1.76,1.76,0,0,1,.348.6A2.268,2.268,0,0,1,209.207,92.611Zm-.668,0a1.541,1.541,0,0,0-.272-.961.95.95,0,0,0-1.481,0,1.833,1.833,0,0,0,0,1.922.95.95,0,0,0,1.481,0A1.54,1.54,0,0,0,208.538,92.611Z" transform="translate(-137.603 -89.056)" fill="#161615"/>
            <path id="Path_1010" data-name="Path 1010" d="M216.245,92.4a1.23,1.23,0,0,1-.84-.255,1.006,1.006,0,0,1-.248-.751v-1.4l-.393.2-.22-.427.613-.31V87.1l.64-.111v2.135l.5-.262.213.427-.716.372v1.632a1.042,1.042,0,0,0,.028.262.361.361,0,0,0,.09.165.381.381,0,0,0,.165.093,1.653,1.653,0,0,0,.255.052Z" transform="translate(-142.603 -86.906)" fill="#161615"/>
            <path id="Path_1011" data-name="Path 1011" d="M219.89,92.618a2.287,2.287,0,0,1,.138-.83,1.73,1.73,0,0,1,.365-.589,1.481,1.481,0,0,1,.523-.351,1.63,1.63,0,0,1,.606-.117,1.38,1.38,0,0,1,1.109.451,2.079,2.079,0,0,1,.386,1.374v.107a1.047,1.047,0,0,1-.007.12h-2.453a1.312,1.312,0,0,0,.324.847,1.185,1.185,0,0,0,.881.289,2.327,2.327,0,0,0,.569-.059,2.013,2.013,0,0,0,.348-.114l.089.537a1.9,1.9,0,0,1-.409.131,2.888,2.888,0,0,1-.665.069,2.1,2.1,0,0,1-.81-.142,1.508,1.508,0,0,1-.562-.389,1.588,1.588,0,0,1-.327-.589A2.483,2.483,0,0,1,219.89,92.618Zm2.459-.351a1.075,1.075,0,0,0-.217-.713.747.747,0,0,0-.617-.279.843.843,0,0,0-.389.086.912.912,0,0,0-.286.224,1.04,1.04,0,0,0-.183.317,1.577,1.577,0,0,0-.086.365Z" transform="translate(-145.676 -89.056)" fill="#161615"/>
            <path id="Path_1012" data-name="Path 1012" d="M230.621,94.5a1.95,1.95,0,0,1-.761-.138,1.535,1.535,0,0,1-.551-.386,1.6,1.6,0,0,1-.334-.589,2.439,2.439,0,0,1-.11-.754,2.281,2.281,0,0,1,.12-.758,1.787,1.787,0,0,1,.341-.6,1.532,1.532,0,0,1,.54-.392,1.747,1.747,0,0,1,.713-.141,2.84,2.84,0,0,1,.482.041,2.239,2.239,0,0,1,.462.131l-.145.544a1.548,1.548,0,0,0-.334-.111,1.882,1.882,0,0,0-.4-.041,1.019,1.019,0,0,0-.823.338,1.487,1.487,0,0,0-.286.985,2.015,2.015,0,0,0,.065.53,1.087,1.087,0,0,0,.207.413.918.918,0,0,0,.362.265,1.385,1.385,0,0,0,.537.093,2.044,2.044,0,0,0,.461-.048,1.688,1.688,0,0,0,.324-.1l.089.537a.693.693,0,0,1-.158.065,2.318,2.318,0,0,1-.234.055c-.088.016-.18.03-.279.041A2.481,2.481,0,0,1,230.621,94.5Z" transform="translate(-150.835 -89.066)" fill="#161615"/>
            <path id="Path_1013" data-name="Path 1013" d="M238.753,91.618q-.144.158-.382.448t-.509.64q-.272.351-.544.737t-.479.737h1.97v.537h-2.735v-.427q.166-.3.407-.668t.506-.727q.265-.362.517-.682t.438-.541h-1.77v-.537h2.583Z" transform="translate(-154.978 -89.29)" fill="#161615"/>
            <path id="Path_1014" data-name="Path 1014" d="M244.335,91.136q.221-.055.586-.117a5.076,5.076,0,0,1,.841-.062,1.815,1.815,0,0,1,.709.121,1.1,1.1,0,0,1,.451.338,1.3,1.3,0,0,1,.238.52,3.014,3.014,0,0,1,.069.668v2.012h-.64V92.741a3.1,3.1,0,0,0-.045-.565.959.959,0,0,0-.148-.379.588.588,0,0,0-.276-.21,1.217,1.217,0,0,0-.427-.065c-.069,0-.14,0-.213.007s-.144.01-.21.017-.127.015-.179.024l-.114.021v3.024h-.641Z" transform="translate(-159.727 -89.187)" fill="#161615"/>
            <path id="Path_1015" data-name="Path 1015" d="M252.115,95.386a1.241,1.241,0,0,0,.2.065.963.963,0,0,0,.238.031.931.931,0,0,0,.592-.169,1.461,1.461,0,0,0,.386-.548q-.434-.827-.81-1.753a15.215,15.215,0,0,1-.623-1.877h.689q.076.31.182.668t.238.737q.131.379.282.758t.317.73q.262-.723.455-1.433t.365-1.46h.661q-.247,1.012-.551,1.946t-.654,1.746a3.684,3.684,0,0,1-.286.534,1.609,1.609,0,0,1-.327.369,1.188,1.188,0,0,1-.4.213,1.72,1.72,0,0,1-.506.069A1.285,1.285,0,0,1,252.4,96c-.055-.007-.109-.016-.162-.028s-.1-.024-.145-.038A.651.651,0,0,1,252,95.9Z" transform="translate(-164.131 -89.29)" fill="#161615"/>
          </g>
        </g>
        <g id="Group_435" data-name="Group 435" transform="translate(15.514 5.57)">
          <g id="Group_434" data-name="Group 434">
            <path id="Path_1016" data-name="Path 1016" d="M84.679,66.923a3.4,3.4,0,0,1-1.273-.214,2.345,2.345,0,0,1-.882-.6,2.445,2.445,0,0,1-.517-.908,3.75,3.75,0,0,1-.167-1.148v-4.52h1.326v4.395a2.826,2.826,0,0,0,.11.84,1.464,1.464,0,0,0,.313.569,1.255,1.255,0,0,0,.48.324,1.756,1.756,0,0,0,.621.1,1.8,1.8,0,0,0,.626-.1,1.25,1.25,0,0,0,.486-.324,1.475,1.475,0,0,0,.313-.569,2.827,2.827,0,0,0,.11-.84V59.533H87.55v4.52a3.647,3.647,0,0,1-.172,1.148,2.5,2.5,0,0,1-.522.908,2.333,2.333,0,0,1-.892.6A3.491,3.491,0,0,1,84.679,66.923Z" transform="translate(-81.84 -59.074)" fill="#161615"/>
            <path id="Path_1017" data-name="Path 1017" d="M98.926,64.072a8.487,8.487,0,0,1,.949-.2,8.155,8.155,0,0,1,1.294-.094,2.981,2.981,0,0,1,1.117.182,1.741,1.741,0,0,1,.715.512,1.949,1.949,0,0,1,.376.793,4.425,4.425,0,0,1,.11,1.018v3.069h-1.263V66.483a4.186,4.186,0,0,0-.057-.746,1.328,1.328,0,0,0-.188-.5.756.756,0,0,0-.355-.282,1.5,1.5,0,0,0-.548-.088,4.131,4.131,0,0,0-.5.031c-.174.021-.3.038-.386.052v4.405H98.926Z" transform="translate(-91.661 -61.515)" fill="#161615"/>
            <path id="Path_1018" data-name="Path 1018" d="M114.35,59.236a.725.725,0,0,1-.23.564.78.78,0,0,1-.543.209.794.794,0,0,1-.553-.209.725.725,0,0,1-.23-.564.737.737,0,0,1,.23-.574.794.794,0,0,1,.553-.209.78.78,0,0,1,.543.209A.737.737,0,0,1,114.35,59.236Zm-.135,7.056h-1.263V60.833h1.263Z" transform="translate(-99.633 -58.453)" fill="#161615"/>
            <path id="Path_1019" data-name="Path 1019" d="M121.06,63.485a3.1,3.1,0,0,1,1.055.156,1.692,1.692,0,0,1,.684.439,1.648,1.648,0,0,1,.365.684,3.341,3.341,0,0,1,.11.882v3.309q-.293.063-.882.151a8.957,8.957,0,0,1-1.331.089,4,4,0,0,1-.9-.094,1.877,1.877,0,0,1-.694-.3,1.428,1.428,0,0,1-.449-.543,1.881,1.881,0,0,1-.162-.824,1.594,1.594,0,0,1,.182-.793,1.5,1.5,0,0,1,.5-.527,2.144,2.144,0,0,1,.725-.292,4.09,4.09,0,0,1,.861-.089,3.891,3.891,0,0,1,.438.026,4.118,4.118,0,0,1,.49.088v-.209a1.648,1.648,0,0,0-.052-.417.875.875,0,0,0-.183-.35.859.859,0,0,0-.344-.235,1.491,1.491,0,0,0-.537-.084,4.735,4.735,0,0,0-.8.063,3.573,3.573,0,0,0-.595.146l-.156-1.023a4.966,4.966,0,0,1,.7-.167A5.479,5.479,0,0,1,121.06,63.485Zm.1,4.708a4.7,4.7,0,0,0,.887-.063v-1.4a2.373,2.373,0,0,0-.3-.062,2.772,2.772,0,0,0-.438-.031,2.865,2.865,0,0,0-.423.031,1.3,1.3,0,0,0-.386.115.7.7,0,0,0-.277.235.654.654,0,0,0-.1.381.667.667,0,0,0,.282.621A1.454,1.454,0,0,0,121.165,68.193Z" transform="translate(-103.118 -61.345)" fill="#161615"/>
            <path id="Path_1020" data-name="Path 1020" d="M138.447,67.111V59.877h4.645v1.117h-3.33v1.785h2.964v1.1h-2.964v2.119h3.58v1.117Z" transform="translate(-114.377 -59.272)" fill="#161615"/>
            <path id="Path_1021" data-name="Path 1021" d="M156.513,69.072q-.365.094-.95.193a7.677,7.677,0,0,1-1.284.1,2.827,2.827,0,0,1-1.1-.188,1.761,1.761,0,0,1-.71-.522,2.056,2.056,0,0,1-.381-.8,4.236,4.236,0,0,1-.115-1.018V63.78h1.263v2.86a2.307,2.307,0,0,0,.256,1.253,1,1,0,0,0,.893.375q.23,0,.486-.02a2.589,2.589,0,0,0,.381-.052V63.78h1.263Z" transform="translate(-122.151 -61.515)" fill="#161615"/>
            <path id="Path_1022" data-name="Path 1022" d="M169.394,65.033a4,4,0,0,0-.433-.11,3.191,3.191,0,0,0-.642-.057,2.553,2.553,0,0,0-.443.042,2.723,2.723,0,0,0-.329.073v4.374h-1.263v-5.2a6.988,6.988,0,0,1,.913-.256,5.7,5.7,0,0,1,1.216-.12q.125,0,.292.016t.334.042q.166.026.324.063c.1.025.188.047.25.068Z" transform="translate(-130.378 -61.515)" fill="#161615"/>
            <path id="Path_1023" data-name="Path 1023" d="M180.558,66.272a3.531,3.531,0,0,1-.188,1.18,2.6,2.6,0,0,1-.532.908,2.384,2.384,0,0,1-.83.585,2.672,2.672,0,0,1-1.07.209,2.638,2.638,0,0,1-1.065-.209,2.4,2.4,0,0,1-.825-.585,2.668,2.668,0,0,1-.537-.908,3.435,3.435,0,0,1-.193-1.18,3.392,3.392,0,0,1,.193-1.174,2.631,2.631,0,0,1,.543-.9,2.381,2.381,0,0,1,.83-.579,2.667,2.667,0,0,1,1.054-.2,2.706,2.706,0,0,1,1.06.2,2.325,2.325,0,0,1,.83.579,2.688,2.688,0,0,1,.537.9A3.392,3.392,0,0,1,180.558,66.272Zm-1.294,0a2.131,2.131,0,0,0-.35-1.289,1.24,1.24,0,0,0-1.952,0,2.129,2.129,0,0,0-.35,1.289,2.173,2.173,0,0,0,.35,1.3,1.233,1.233,0,0,0,1.952,0A2.175,2.175,0,0,0,179.264,66.272Z" transform="translate(-135.57 -61.303)" fill="#161615"/>
            <path id="Path_1024" data-name="Path 1024" d="M195.478,66.629a3.861,3.861,0,0,1-.162,1.148,2.669,2.669,0,0,1-.464.9,2.068,2.068,0,0,1-.757.585,2.437,2.437,0,0,1-1.028.209,2.543,2.543,0,0,1-.71-.094,2.671,2.671,0,0,1-.532-.209v2.119h-1.263V64.072q.386-.1.95-.2a7.2,7.2,0,0,1,1.19-.094,3.185,3.185,0,0,1,1.159.2,2.41,2.41,0,0,1,.872.569,2.512,2.512,0,0,1,.553.9A3.436,3.436,0,0,1,195.478,66.629Zm-1.294.021a2.037,2.037,0,0,0-.381-1.316,1.489,1.489,0,0,0-1.226-.469c-.119,0-.242.005-.371.016a2.081,2.081,0,0,0-.381.068V68.07a1.971,1.971,0,0,0,.444.214,1.74,1.74,0,0,0,.59.1,1.13,1.13,0,0,0,1.007-.469A2.219,2.219,0,0,0,194.184,66.651Z" transform="translate(-144.332 -61.515)" fill="#161615"/>
            <path id="Path_1025" data-name="Path 1025" d="M204.333,66.327a3.425,3.425,0,0,1,.214-1.263,2.649,2.649,0,0,1,.569-.9,2.35,2.35,0,0,1,.814-.543,2.515,2.515,0,0,1,.939-.183,2.249,2.249,0,0,1,1.759.7,3.025,3.025,0,0,1,.632,2.088c0,.069,0,.148-.006.235s-.009.165-.016.235h-3.6a1.44,1.44,0,0,0,.465,1.018,1.765,1.765,0,0,0,1.195.36,3.931,3.931,0,0,0,.841-.083,3.479,3.479,0,0,0,.6-.177l.167,1.033a2.023,2.023,0,0,1-.287.11,4.013,4.013,0,0,1-.418.1q-.235.047-.506.078a4.746,4.746,0,0,1-.554.031,3.345,3.345,0,0,1-1.253-.214,2.332,2.332,0,0,1-.876-.595,2.438,2.438,0,0,1-.512-.9A3.661,3.661,0,0,1,204.333,66.327ZM208,65.764a1.664,1.664,0,0,0-.073-.5,1.2,1.2,0,0,0-.214-.407,1.015,1.015,0,0,0-.344-.271,1.1,1.1,0,0,0-.485-.1,1.129,1.129,0,0,0-.512.11,1.161,1.161,0,0,0-.371.287,1.314,1.314,0,0,0-.235.407,2.2,2.2,0,0,0-.115.47Z" transform="translate(-152.248 -61.317)" fill="#161615"/>
            <path id="Path_1026" data-name="Path 1026" d="M216.169,68.233c-.091,0-.217-.009-.381-.026a1.7,1.7,0,0,1-.433-.1l.167-1.033a1.847,1.847,0,0,0,.553.073.7.7,0,0,0,.616-.256,1.352,1.352,0,0,0,.177-.767V60.833h1.263v5.313a2.161,2.161,0,0,1-.506,1.576A1.96,1.96,0,0,1,216.169,68.233Zm2.1-9a.725.725,0,0,1-.23.564.781.781,0,0,1-.543.209.794.794,0,0,1-.553-.209.725.725,0,0,1-.23-.564.737.737,0,0,1,.23-.574.794.794,0,0,1,.553-.209.781.781,0,0,1,.543.209A.737.737,0,0,1,218.267,59.236Z" transform="translate(-158.583 -58.453)" fill="#161615"/>
            <path id="Path_1027" data-name="Path 1027" d="M226.321,68.123a1.663,1.663,0,0,0,.73-.12.426.426,0,0,0,.23-.412.534.534,0,0,0-.245-.449,3.6,3.6,0,0,0-.809-.386,6.506,6.506,0,0,1-.631-.266,2.155,2.155,0,0,1-.5-.329,1.34,1.34,0,0,1-.329-.454,1.583,1.583,0,0,1-.12-.652,1.423,1.423,0,0,1,.553-1.185,2.377,2.377,0,0,1,1.5-.433,4.626,4.626,0,0,1,.918.089,4.457,4.457,0,0,1,.658.172l-.23,1.023a3.092,3.092,0,0,0-.532-.172,3.215,3.215,0,0,0-.752-.078,1.313,1.313,0,0,0-.626.13.429.429,0,0,0-.24.4.581.581,0,0,0,.047.24.514.514,0,0,0,.162.193,1.675,1.675,0,0,0,.3.178,4.61,4.61,0,0,0,.459.182,7.094,7.094,0,0,1,.762.329,2.055,2.055,0,0,1,.517.366,1.254,1.254,0,0,1,.3.464,1.857,1.857,0,0,1,.094.626,1.35,1.35,0,0,1-.58,1.185,2.885,2.885,0,0,1-1.655.4,4.536,4.536,0,0,1-1.159-.12,6.047,6.047,0,0,1-.616-.193l.219-1.055a5.607,5.607,0,0,0,.673.219A3.465,3.465,0,0,0,226.321,68.123Z" transform="translate(-163.86 -61.317)" fill="#161615"/>
            <path id="Path_1028" data-name="Path 1028" d="M237.852,63.78q.24-.25.512-.537t.532-.574q.261-.286.5-.553t.4-.464h1.492q-.522.585-1.1,1.211t-1.164,1.222a7.159,7.159,0,0,1,.658.631q.344.371.668.788t.605.835a8.455,8.455,0,0,1,.469.773H239.96q-.188-.323-.433-.679T239,65.743q-.282-.334-.574-.632a4.939,4.939,0,0,0-.574-.506v2.505h-1.263V60.086l1.263-.209Z" transform="translate(-170.788 -59.272)" fill="#161615"/>
            <path id="Path_1029" data-name="Path 1029" d="M251.262,63.485a3.1,3.1,0,0,1,1.054.156,1.686,1.686,0,0,1,.684.439,1.648,1.648,0,0,1,.365.684,3.341,3.341,0,0,1,.11.882v3.309q-.293.063-.882.151a8.951,8.951,0,0,1-1.33.089,4,4,0,0,1-.9-.094,1.88,1.88,0,0,1-.694-.3,1.428,1.428,0,0,1-.449-.543,1.881,1.881,0,0,1-.162-.824,1.589,1.589,0,0,1,.183-.793,1.5,1.5,0,0,1,.5-.527,2.14,2.14,0,0,1,.725-.292,4.083,4.083,0,0,1,.861-.089,3.891,3.891,0,0,1,.438.026,4.125,4.125,0,0,1,.491.088v-.209a1.629,1.629,0,0,0-.052-.417.875.875,0,0,0-.183-.35.859.859,0,0,0-.344-.235,1.49,1.49,0,0,0-.537-.084,4.73,4.73,0,0,0-.8.063,3.552,3.552,0,0,0-.595.146l-.157-1.023a4.968,4.968,0,0,1,.7-.167A5.48,5.48,0,0,1,251.262,63.485Zm.1,4.708a4.71,4.71,0,0,0,.887-.063v-1.4a2.408,2.408,0,0,0-.3-.062,2.777,2.777,0,0,0-.439-.031,2.865,2.865,0,0,0-.423.031,1.3,1.3,0,0,0-.386.115.7.7,0,0,0-.276.235.655.655,0,0,0-.1.381.667.667,0,0,0,.282.621A1.454,1.454,0,0,0,251.366,68.193Z" transform="translate(-177.956 -61.345)" fill="#161615"/>
          </g>
        </g>
      </g>
    </g>
  </g>
</svg>
