<svg xmlns="http://www.w3.org/2000/svg" xmlns:xlink="http://www.w3.org/1999/xlink" width="19.25" height="18.13" viewBox="0 0 19.25 18.13">
  <defs>
    <clipPath id="clip-_4_moduł_internetowych_ofert_pracy">
      <rect width="19.25" height="18.13"/>
    </clipPath>
  </defs>
  <g id="_4_moduł_internetowych_ofert_pracy" data-name="4 moduł internetowych ofert pracy" clip-path="url(#clip-_4_moduł_internetowych_ofert_pracy)">
    <path id="briefcase" d="M18.87,18.178H14.527v-1.8a1.519,1.519,0,0,0-1.515-1.519H6.322a1.519,1.519,0,0,0-1.515,1.519v1.8H.376A.376.376,0,0,0,0,18.554v6.258a.376.376,0,0,0,.376.376H.8v7.42a.376.376,0,0,0,.376.376H18.069a.376.376,0,0,0,.376-.376v-7.42h.425a.376.376,0,0,0,.376-.376V18.554a.376.376,0,0,0-.376-.376Zm-13.311-1.8a.766.766,0,0,1,.763-.768h6.689a.766.766,0,0,1,.763.768v1.8H12.73V17.036a.376.376,0,0,0-.376-.376H6.98a.376.376,0,0,0-.376.376v1.143H5.559Zm1.8,1.8v-.767h4.622v.767ZM17.693,32.233H1.553V25.189H3.3v2.419a.376.376,0,0,0,.376.376H6.381a.376.376,0,0,0,.376-.376V25.189h5.732v2.419a.376.376,0,0,0,.376.376h2.707a.376.376,0,0,0,.376-.376V25.189h1.745Zm-13.643-5V23.469H6v3.763Zm9.191,0V23.469H15.2v3.763Zm5.253-2.8H15.948V23.093a.376.376,0,0,0-.376-.376H12.865a.376.376,0,0,0-.376.376v1.344H6.757V23.093a.376.376,0,0,0-.376-.376H3.674a.376.376,0,0,0-.376.376v1.344H.752V18.93H18.494Z" transform="translate(0 -14.856)" fill="#a8b0b6"/>
  </g>
</svg>
