<svg xmlns="http://www.w3.org/2000/svg" xmlns:xlink="http://www.w3.org/1999/xlink" width="18.52" height="18.52" viewBox="0 0 18.52 18.52">
  <defs>
    <clipPath id="clip-_9_wyloguj">
      <rect width="18.52" height="18.52"/>
    </clipPath>
  </defs>
  <g id="_9_wyloguj" data-name="9 wyloguj" clip-path="url(#clip-_9_wyloguj)">
    <path id="exit" d="M13.561,14.183V15.63a2.9,2.9,0,0,1-2.894,2.894H3.394A2.9,2.9,0,0,1,.5,15.63V2.894A2.9,2.9,0,0,1,3.394,0h7.272a2.9,2.9,0,0,1,2.894,2.894V4.342a.724.724,0,0,1-1.447,0V2.894a1.449,1.449,0,0,0-1.447-1.447H3.394A1.449,1.449,0,0,0,1.947,2.894V15.63a1.449,1.449,0,0,0,1.447,1.447h7.272a1.449,1.449,0,0,0,1.447-1.447V14.183a.724.724,0,0,1,1.447,0Zm4.933-6.164L16.874,6.4a.724.724,0,0,0-1.023,1.023L17,8.575H8.315a.724.724,0,1,0,0,1.447H17l-1.153,1.153A.724.724,0,1,0,16.874,12.2l1.62-1.62a1.811,1.811,0,0,0,0-2.558Zm0,0" transform="translate(-0.5)" fill="#f6f7fb"/>
  </g>
</svg>
