<svg xmlns="http://www.w3.org/2000/svg" xmlns:xlink="http://www.w3.org/1999/xlink" width="18.52" height="18.72" viewBox="0 0 18.52 18.72">
  <defs>
    <clipPath id="clip-_2_moduł_prognostyczny">
      <rect width="18.52" height="18.72"/>
    </clipPath>
  </defs>
  <g id="_2_moduł_prognostyczny" data-name="2 moduł prognostyczny" clip-path="url(#clip-_2_moduł_prognostyczny)">
    <g id="Group_438" data-name="Group 438">
      <g id="Group_1" data-name="Group 1">
        <path id="Path_14" data-name="Path 14" d="M146.628,218.936h-3.442a.522.522,0,0,0-.522.522v6.754a.522.522,0,0,0,.522.522h3.442a.522.522,0,0,0,.522-.522v-6.754A.522.522,0,0,0,146.628,218.936Zm-.522,6.754h-2.4v-5.711h2.4Z" transform="translate(-135.643 -208.009)" fill="#a8b0b6"/>
        <path id="Path_15" data-name="Path 15" d="M283.013,136.911h-3.468a.522.522,0,0,0-.522.522V148.28a.522.522,0,0,0,.522.522h3.468a.522.522,0,0,0,.522-.522V137.433A.522.522,0,0,0,283.013,136.911Zm-.521,10.848h-2.425v-9.8h2.425Z" transform="translate(-265.196 -130.078)" fill="#a8b0b6"/>
        <path id="Path_16" data-name="Path 16" d="M9.772,269.613H6.3a.522.522,0,0,0-.522.522v4.224a.521.521,0,0,0,.522.522H9.772a.521.521,0,0,0,.522-.522v-4.224A.522.522,0,0,0,9.772,269.613Zm-.522,4.224H6.825v-3.181H9.25Z" transform="translate(-5.593 -256.156)" fill="#a8b0b6"/>
        <path id="Path_17" data-name="Path 17" d="M20.393.523a.443.443,0,0,0-.339-.183L15.308,0a.523.523,0,1,0-.078,1.043l3.359.228L12.413,6.1,7.694,2.4a.522.522,0,0,0-.678.026L2.165,7.068a.522.522,0,0,0-.026.73.469.469,0,0,0,.391.183A.521.521,0,0,0,2.9,7.825L7.407,3.5l4.668,3.677a.522.522,0,0,0,.652,0L19.4,1.978l-.261,3.239a.548.548,0,0,0,.5.548h.026a.522.522,0,0,0,.522-.469L20.523.888A.417.417,0,0,0,20.393.523Z" transform="translate(-2.003 0)" fill="#a8b0b6"/>
      </g>
    </g>
  </g>
</svg>
