<svg xmlns="http://www.w3.org/2000/svg" xmlns:xlink="http://www.w3.org/1999/xlink" width="18.52" height="18.52" viewBox="0 0 18.52 18.52">
  <defs>
    <clipPath id="clip-_5_tw贸j_profil">
      <rect width="18.52" height="18.52"/>
    </clipPath>
  </defs>
  <g id="_5_tw贸j_profil" data-name="5 tw贸j profil" clip-path="url(#clip-_5_tw贸j_profil)">
    <g id="Group_439" data-name="Group 439" transform="translate(-57 -478.104)">
      <path id="Path_11" data-name="Path 11" d="M9.262,0a9.262,9.262,0,1,0,9.262,9.262A9.273,9.273,0,0,0,9.262,0Zm0,17.439a8.177,8.177,0,1,1,8.177-8.177A8.186,8.186,0,0,1,9.262,17.439Z" transform="translate(57 478.104)" fill="#a8b0b6"/>
      <path id="Path_12" data-name="Path 12" d="M154.8,67.6a3.8,3.8,0,1,0-3.8-3.8A3.8,3.8,0,0,0,154.8,67.6Zm0-6.512a2.714,2.714,0,1,1-2.714,2.714A2.717,2.717,0,0,1,154.8,61.085Z" transform="translate(-88.537 420.274)" fill="#a8b0b6"/>
      <path id="Path_13" data-name="Path 13" d="M92.7,301.282A3.8,3.8,0,0,0,89.856,300H83.344a3.8,3.8,0,0,0-2.846,1.282l-.257.291.192.337a7.093,7.093,0,0,0,12.334,0l.192-.337Zm-6.1,3.132a6.024,6.024,0,0,1-5.007-2.688,2.716,2.716,0,0,1,1.751-.641h6.512a2.716,2.716,0,0,1,1.751.641A6.024,6.024,0,0,1,86.6,304.414Z" transform="translate(-20.338 188.958)" fill="#a8b0b6"/>
    </g>
  </g>
</svg>
