<svg xmlns="http://www.w3.org/2000/svg" xmlns:xlink="http://www.w3.org/1999/xlink" width="55" height="21" viewBox="0 0 55 21">
  <defs>
    <clipPath id="clip-_1_FE_mobile">
      <rect width="55" height="21"/>
    </clipPath>
  </defs>
  <g id="_1_FE_mobile" data-name="1 FE mobile" clip-path="url(#clip-_1_FE_mobile)">
    <g id="Group_426" data-name="Group 426">
      <g id="Group_423" data-name="Group 423" transform="translate(0 0)">
        <path id="Path_932" data-name="Path 932" d="M55.558,65.76l-10.2-1.913v-15.3l10.2-3.188Z" transform="translate(-45.354 -45.354)" fill="#003383"/>
        <path id="Path_933" data-name="Path 933" d="M45.361,90.564V86.591a1.991,1.991,0,0,0,1.462-.022,11.965,11.965,0,0,0,2.073-2s-.658,1.623-.41,2.219c.262.633,1.822.667,1.822.667a25.8,25.8,0,0,0-2.584,1.782c-.844.725-1.43,3.388-1.43,3.388s-.409-1.707-.934-2.065" transform="translate(-45.359 -75.75)" fill="#ffe800"/>
        <path id="Path_934" data-name="Path 934" d="M72.607,78.892a3.2,3.2,0,0,1-.96.448c-.82.158-1.7-.784-1.7-.784a3.964,3.964,0,0,1-.31,2.225A9.376,9.376,0,0,1,67.351,82.8s1.93-.373,2.305.225a9.356,9.356,0,0,1,.452,2.878s.983-2.685,1.876-3.05a5.535,5.535,0,0,1,.622-.208Z" transform="translate(-62.403 -71.088)" fill="#d9000d"/>
        <path id="Path_935" data-name="Path 935" d="M60.541,66.59a6.216,6.216,0,0,0,.927-2.1c-.058-.522-1.081-.71-1.081-.71a5.694,5.694,0,0,0,1.923-.854,5.972,5.972,0,0,0,1.056-1.56s.125.871.626,1a5.119,5.119,0,0,0,1.9-.427,19.477,19.477,0,0,0-1.518,1.594c-.447.587.181,1.7.181,1.7a4.781,4.781,0,0,0-1.8-.281,8.732,8.732,0,0,0-2.206,1.635" transform="translate(-57.005 -57.768)" fill="#fff"/>
      </g>
      <g id="Group_424" data-name="Group 424" transform="translate(15.302 3.825)">
        <path id="Path_936" data-name="Path 936" d="M113.379,66.184V62.357H115.8v.591h-1.723v.977H115.6v.591h-1.529v1.668Z" transform="translate(-113.379 -62.357)" fill="#161615"/>
        <path id="Path_937" data-name="Path 937" d="M128.325,69.06q-.193.05-.5.1a4.066,4.066,0,0,1-.679.052,1.5,1.5,0,0,1-.583-.1.932.932,0,0,1-.375-.276,1.088,1.088,0,0,1-.2-.422,2.23,2.23,0,0,1-.061-.538V66.26h.668v1.513a1.223,1.223,0,0,0,.135.663.53.53,0,0,0,.472.2c.081,0,.166,0,.257-.011a1.371,1.371,0,0,0,.2-.028V66.26h.668Z" transform="translate(-123.101 -65.382)" fill="#161615"/>
        <path id="Path_938" data-name="Path 938" d="M140.235,66.415a4.484,4.484,0,0,1,.5-.1,4.337,4.337,0,0,1,.685-.05,1.572,1.572,0,0,1,.591.1.919.919,0,0,1,.378.271,1.031,1.031,0,0,1,.2.42,2.342,2.342,0,0,1,.058.538v1.624h-.668V67.69a2.195,2.195,0,0,0-.03-.395.7.7,0,0,0-.1-.265.4.4,0,0,0-.188-.149.79.79,0,0,0-.29-.047,2.232,2.232,0,0,0-.265.017c-.092.011-.16.02-.2.027v2.331h-.668Z" transform="translate(-134.194 -65.382)" fill="#161615"/>
        <path id="Path_939" data-name="Path 939" d="M156.337,66.029a4.1,4.1,0,0,1-1.132.16,1.685,1.685,0,0,1-.613-.1,1.278,1.278,0,0,1-.461-.3,1.326,1.326,0,0,1-.293-.475,1.812,1.812,0,0,1-.1-.627,2.109,2.109,0,0,1,.085-.621,1.36,1.36,0,0,1,.251-.478,1.118,1.118,0,0,1,.4-.307,1.312,1.312,0,0,1,.547-.108,1.245,1.245,0,0,1,.37.05,1.672,1.672,0,0,1,.276.11v-.861l.668-.11Zm-1.916-1.364a1.049,1.049,0,0,0,.21.693.714.714,0,0,0,.58.251,2.3,2.3,0,0,0,.274-.014,1.851,1.851,0,0,0,.185-.031V63.909a1.036,1.036,0,0,0-.235-.113.914.914,0,0,0-.312-.052.6.6,0,0,0-.533.248A1.186,1.186,0,0,0,154.421,64.665Z" transform="translate(-144.658 -62.357)" fill="#161615"/>
        <path id="Path_940" data-name="Path 940" d="M171.186,69.06q-.193.05-.5.1a4.059,4.059,0,0,1-.679.052,1.5,1.5,0,0,1-.583-.1.933.933,0,0,1-.375-.276,1.082,1.082,0,0,1-.2-.422,2.241,2.241,0,0,1-.061-.538V66.26h.668v1.513a1.221,1.221,0,0,0,.135.663.53.53,0,0,0,.472.2c.081,0,.166,0,.257-.011a1.367,1.367,0,0,0,.2-.028V66.26h.668Z" transform="translate(-156.32 -65.382)" fill="#161615"/>
        <path id="Path_941" data-name="Path 941" d="M183.057,68.4a.878.878,0,0,0,.386-.064.225.225,0,0,0,.121-.218.283.283,0,0,0-.13-.238,1.9,1.9,0,0,0-.428-.2,3.411,3.411,0,0,1-.334-.141,1.137,1.137,0,0,1-.263-.174.708.708,0,0,1-.174-.24.836.836,0,0,1-.063-.345.752.752,0,0,1,.292-.627,1.257,1.257,0,0,1,.8-.229,2.449,2.449,0,0,1,.486.047,2.392,2.392,0,0,1,.348.091l-.121.541a1.636,1.636,0,0,0-.282-.091,1.7,1.7,0,0,0-.4-.041.694.694,0,0,0-.331.069.227.227,0,0,0-.127.213.308.308,0,0,0,.025.127.274.274,0,0,0,.086.1.873.873,0,0,0,.16.094,2.436,2.436,0,0,0,.243.1,3.76,3.76,0,0,1,.4.174,1.089,1.089,0,0,1,.273.193.66.66,0,0,1,.157.246.983.983,0,0,1,.05.331.714.714,0,0,1-.306.627,1.527,1.527,0,0,1-.876.213,2.4,2.4,0,0,1-.613-.063,3.142,3.142,0,0,1-.326-.1l.116-.558a2.978,2.978,0,0,0,.356.116A1.833,1.833,0,0,0,183.057,68.4Z" transform="translate(-166.651 -65.116)" fill="#161615"/>
        <path id="Path_942" data-name="Path 942" d="M195.35,67q-.111.116-.29.326t-.384.467q-.2.257-.411.536t-.373.533h1.491v.558h-2.3V69a5.209,5.209,0,0,1,.3-.48q.182-.259.375-.522t.384-.5q.191-.238.34-.414h-1.331V66.53h2.192Z" transform="translate(-175.156 -65.591)" fill="#161615"/>
        <path id="Path_943" data-name="Path 943" d="M204.77,67.446a1.812,1.812,0,0,1,.113-.668,1.4,1.4,0,0,1,.3-.478,1.243,1.243,0,0,1,.431-.287,1.335,1.335,0,0,1,.5-.1,1.19,1.19,0,0,1,.931.37,1.6,1.6,0,0,1,.334,1.1c0,.037,0,.078,0,.124s0,.088-.009.124h-1.9a.761.761,0,0,0,.246.539.935.935,0,0,0,.632.191,2.063,2.063,0,0,0,.444-.044,1.835,1.835,0,0,0,.317-.094l.088.547a1.073,1.073,0,0,1-.152.058,2.119,2.119,0,0,1-.221.055c-.083.017-.172.031-.268.041a2.509,2.509,0,0,1-.293.017,1.768,1.768,0,0,1-.663-.113,1.233,1.233,0,0,1-.464-.315,1.287,1.287,0,0,1-.271-.475A1.939,1.939,0,0,1,204.77,67.446Zm1.938-.3a.881.881,0,0,0-.039-.262.638.638,0,0,0-.113-.215.535.535,0,0,0-.182-.144.582.582,0,0,0-.257-.052.6.6,0,0,0-.271.058.618.618,0,0,0-.2.152.7.7,0,0,0-.124.215,1.162,1.162,0,0,0-.061.249Z" transform="translate(-184.211 -65.116)" fill="#161615"/>
        <path id="Path_944" data-name="Path 944" d="M113.379,88.861V85.034h2.457v.591h-1.762v.944h1.568v.58h-1.568V88.27h1.894v.591Z" transform="translate(-113.379 -79.933)" fill="#161615"/>
        <path id="Path_945" data-name="Path 945" d="M129.306,91.737q-.193.05-.5.1a4.086,4.086,0,0,1-.679.052,1.5,1.5,0,0,1-.582-.1.932.932,0,0,1-.375-.276,1.082,1.082,0,0,1-.2-.422,2.242,2.242,0,0,1-.061-.539V88.937h.668V90.45a1.222,1.222,0,0,0,.135.663.53.53,0,0,0,.472.2q.121,0,.257-.011a1.369,1.369,0,0,0,.2-.028V88.937h.668Z" transform="translate(-123.861 -82.958)" fill="#161615"/>
        <path id="Path_946" data-name="Path 946" d="M142.862,89.6a2.092,2.092,0,0,0-.229-.058,1.687,1.687,0,0,0-.34-.031,1.376,1.376,0,0,0-.235.022,1.452,1.452,0,0,0-.174.039v2.314h-.668v-2.75A3.7,3.7,0,0,1,141.7,89a3.017,3.017,0,0,1,.643-.064c.044,0,.1,0,.155.008s.118.013.177.022.116.02.171.033.1.025.132.036Z" transform="translate(-134.954 -82.958)" fill="#161615"/>
        <path id="Path_947" data-name="Path 947" d="M153.022,90.082a1.861,1.861,0,0,1-.1.624,1.379,1.379,0,0,1-.282.481,1.263,1.263,0,0,1-.439.309,1.42,1.42,0,0,1-.566.11,1.4,1.4,0,0,1-.563-.11,1.272,1.272,0,0,1-.436-.309,1.416,1.416,0,0,1-.284-.481,1.816,1.816,0,0,1-.1-.624,1.793,1.793,0,0,1,.1-.621,1.4,1.4,0,0,1,.287-.478,1.268,1.268,0,0,1,.439-.306,1.416,1.416,0,0,1,.558-.108,1.435,1.435,0,0,1,.56.108,1.237,1.237,0,0,1,.439.306,1.429,1.429,0,0,1,.284.478A1.794,1.794,0,0,1,153.022,90.082Zm-.685,0a1.126,1.126,0,0,0-.185-.682.656.656,0,0,0-1.033,0,1.127,1.127,0,0,0-.185.682,1.151,1.151,0,0,0,.185.69.652.652,0,0,0,1.033,0A1.149,1.149,0,0,0,152.337,90.082Z" transform="translate(-141.956 -82.672)" fill="#161615"/>
        <path id="Path_948" data-name="Path 948" d="M168.1,90.445a2.048,2.048,0,0,1-.085.607,1.419,1.419,0,0,1-.246.475,1.089,1.089,0,0,1-.4.309,1.288,1.288,0,0,1-.544.11,1.344,1.344,0,0,1-.375-.05,1.4,1.4,0,0,1-.282-.11v1.121h-.668V89.092c.136-.037.3-.072.5-.105a3.836,3.836,0,0,1,.63-.05,1.685,1.685,0,0,1,.613.105,1.279,1.279,0,0,1,.461.3,1.323,1.323,0,0,1,.292.475A1.81,1.81,0,0,1,168.1,90.445Zm-.685.011a1.077,1.077,0,0,0-.2-.7.789.789,0,0,0-.649-.249c-.063,0-.128,0-.2.008a1.08,1.08,0,0,0-.2.036v1.651a1.014,1.014,0,0,0,.235.113.914.914,0,0,0,.312.052.6.6,0,0,0,.533-.249A1.175,1.175,0,0,0,167.411,90.456Z" transform="translate(-153.771 -82.958)" fill="#161615"/>
        <path id="Path_949" data-name="Path 949" d="M179.266,90.124a1.814,1.814,0,0,1,.113-.668,1.4,1.4,0,0,1,.3-.478,1.246,1.246,0,0,1,.431-.287,1.335,1.335,0,0,1,.5-.1,1.19,1.19,0,0,1,.931.37,1.6,1.6,0,0,1,.334,1.1c0,.037,0,.078,0,.124s0,.087-.008.124h-1.905a.76.76,0,0,0,.246.538.934.934,0,0,0,.632.191,2.079,2.079,0,0,0,.444-.044,1.855,1.855,0,0,0,.317-.094l.088.547a1.071,1.071,0,0,1-.152.058,2.239,2.239,0,0,1-.221.055q-.124.025-.268.041a2.56,2.56,0,0,1-.293.016,1.773,1.773,0,0,1-.663-.113,1.233,1.233,0,0,1-.464-.315,1.287,1.287,0,0,1-.271-.475A1.937,1.937,0,0,1,179.266,90.124Zm1.938-.3a.882.882,0,0,0-.039-.262.632.632,0,0,0-.113-.216.535.535,0,0,0-.182-.144.582.582,0,0,0-.257-.052.6.6,0,0,0-.271.058.619.619,0,0,0-.2.152.7.7,0,0,0-.124.215,1.163,1.163,0,0,0-.061.249Z" transform="translate(-164.444 -82.692)" fill="#161615"/>
        <path id="Path_950" data-name="Path 950" d="M190.719,88.784c-.048,0-.115,0-.2-.014a.9.9,0,0,1-.229-.052l.088-.547a.968.968,0,0,0,.292.039.369.369,0,0,0,.326-.135.716.716,0,0,0,.094-.406v-2.8h.668V87.68a1.143,1.143,0,0,1-.268.834A1.037,1.037,0,0,1,190.719,88.784Zm1.11-4.76a.384.384,0,0,1-.121.3.413.413,0,0,1-.287.11.419.419,0,0,1-.293-.11.383.383,0,0,1-.121-.3.39.39,0,0,1,.121-.3.42.42,0,0,1,.293-.11.414.414,0,0,1,.287.11A.391.391,0,0,1,191.829,84.024Z" transform="translate(-172.987 -78.829)" fill="#161615"/>
        <path id="Path_951" data-name="Path 951" d="M200.413,91.073a.88.88,0,0,0,.386-.063.226.226,0,0,0,.121-.218.283.283,0,0,0-.13-.238,1.909,1.909,0,0,0-.428-.2,3.332,3.332,0,0,1-.334-.141,1.138,1.138,0,0,1-.263-.174.715.715,0,0,1-.174-.24.837.837,0,0,1-.063-.345.753.753,0,0,1,.293-.627,1.258,1.258,0,0,1,.8-.229,2.465,2.465,0,0,1,.486.047,2.351,2.351,0,0,1,.348.091l-.121.541a1.643,1.643,0,0,0-.282-.091,1.7,1.7,0,0,0-.4-.041.694.694,0,0,0-.331.069.227.227,0,0,0-.127.213.308.308,0,0,0,.025.127.269.269,0,0,0,.086.1.859.859,0,0,0,.16.094,2.5,2.5,0,0,0,.243.1,3.686,3.686,0,0,1,.4.174,1.086,1.086,0,0,1,.273.193.663.663,0,0,1,.158.246.991.991,0,0,1,.049.331.714.714,0,0,1-.306.627,1.526,1.526,0,0,1-.876.212,2.386,2.386,0,0,1-.613-.063,3.125,3.125,0,0,1-.326-.1l.116-.558a3,3,0,0,0,.356.116A1.836,1.836,0,0,0,200.413,91.073Z" transform="translate(-180.103 -82.692)" fill="#161615"/>
        <path id="Path_952" data-name="Path 952" d="M212.189,87.1l.271-.284q.143-.152.282-.3t.262-.293q.124-.141.213-.246h.79q-.276.309-.583.64t-.615.646a3.91,3.91,0,0,1,.348.334q.182.2.353.417t.32.442a4.526,4.526,0,0,1,.249.409H213.3q-.1-.171-.229-.359t-.279-.364q-.149-.176-.3-.334a2.618,2.618,0,0,0-.3-.268v1.325h-.668V85.144l.668-.11Z" transform="translate(-189.444 -79.933)" fill="#161615"/>
        <path id="Path_953" data-name="Path 953" d="M225.379,84.024a.384.384,0,0,1-.121.3.412.412,0,0,1-.287.11.418.418,0,0,1-.292-.11.382.382,0,0,1-.122-.3.39.39,0,0,1,.122-.3.419.419,0,0,1,.292-.11.413.413,0,0,1,.287.11A.391.391,0,0,1,225.379,84.024Zm-.072,3.733h-.668V84.869h.668Z" transform="translate(-199.546 -78.829)" fill="#161615"/>
        <path id="Path_954" data-name="Path 954" d="M230.816,90.124a1.813,1.813,0,0,1,.113-.668,1.4,1.4,0,0,1,.3-.478,1.244,1.244,0,0,1,.431-.287,1.335,1.335,0,0,1,.5-.1,1.19,1.19,0,0,1,.931.37,1.6,1.6,0,0,1,.334,1.1c0,.037,0,.078,0,.124s0,.087-.009.124h-1.9a.761.761,0,0,0,.245.538.934.934,0,0,0,.633.191,2.079,2.079,0,0,0,.445-.044,1.854,1.854,0,0,0,.317-.094l.088.547a1.063,1.063,0,0,1-.152.058,2.217,2.217,0,0,1-.221.055c-.083.016-.172.03-.268.041a2.559,2.559,0,0,1-.293.016,1.772,1.772,0,0,1-.662-.113,1.233,1.233,0,0,1-.464-.315,1.287,1.287,0,0,1-.271-.475A1.936,1.936,0,0,1,230.816,90.124Zm1.938-.3a.882.882,0,0,0-.038-.262.64.64,0,0,0-.113-.216.537.537,0,0,0-.182-.144.582.582,0,0,0-.257-.052.6.6,0,0,0-.271.058.62.62,0,0,0-.2.152.693.693,0,0,0-.124.215,1.163,1.163,0,0,0-.061.249Z" transform="translate(-204.398 -82.692)" fill="#161615"/>
      </g>
      <g id="Group_425" data-name="Group 425" transform="translate(15.095 14.986)">
        <path id="Path_955" data-name="Path 955" d="M114.051,114.325q-.153.488-.31.9t-.313.809h-.353q-.193-.557-.341-1.177t-.275-1.348h.372q.051.284.106.569t.113.552q.058.268.117.512t.12.452q.146-.383.31-.84t.306-.946h.306q.142.489.31.946t.314.84q.058-.2.117-.448t.115-.512q.056-.268.111-.554t.106-.57h.361q-.131.729-.279,1.348t-.337,1.177h-.353q-.161-.394-.313-.809T114.051,114.325Z" transform="translate(-112.458 -113.166)" fill="#161615"/>
        <path id="Path_956" data-name="Path 956" d="M128.261,113.261a.218.218,0,0,1-.155-.06.238.238,0,0,1,0-.324.23.23,0,0,1,.31,0,.238.238,0,0,1,0,.324A.218.218,0,0,1,128.261,113.261Zm.171,2.238h-.339v-1.9h.339Z" transform="translate(-124.536 -112.626)" fill="#161615"/>
        <path id="Path_957" data-name="Path 957" d="M131.817,116.909a1.21,1.21,0,0,1,.073-.439.917.917,0,0,1,.193-.312.79.79,0,0,1,.277-.186.867.867,0,0,1,.321-.062.73.73,0,0,1,.587.239,1.1,1.1,0,0,1,.2.727v.056a.548.548,0,0,1,0,.064h-1.3a.693.693,0,0,0,.171.448.626.626,0,0,0,.466.153,1.243,1.243,0,0,0,.3-.031,1.1,1.1,0,0,0,.184-.06l.047.284a1.008,1.008,0,0,1-.217.069,1.541,1.541,0,0,1-.352.036,1.117,1.117,0,0,1-.428-.075.8.8,0,0,1-.3-.206.838.838,0,0,1-.173-.312A1.311,1.311,0,0,1,131.817,116.909Zm1.3-.186a.568.568,0,0,0-.115-.377.4.4,0,0,0-.326-.148.447.447,0,0,0-.206.045.487.487,0,0,0-.151.118.544.544,0,0,0-.1.168.818.818,0,0,0-.045.193Z" transform="translate(-127.462 -115.024)" fill="#161615"/>
        <path id="Path_958" data-name="Path 958" d="M142.121,112.031l.339-.058v2.773q-.117.033-.3.066a2.389,2.389,0,0,1-.419.033,1.061,1.061,0,0,1-.393-.069.838.838,0,0,1-.3-.2.866.866,0,0,1-.191-.312,1.194,1.194,0,0,1-.067-.413,1.353,1.353,0,0,1,.056-.4.9.9,0,0,1,.166-.313.753.753,0,0,1,.268-.2.859.859,0,0,1,.363-.073.879.879,0,0,1,.29.044.9.9,0,0,1,.188.084Zm0,1.275a.707.707,0,0,0-.179-.1.672.672,0,0,0-.255-.047.546.546,0,0,0-.25.053.461.461,0,0,0-.17.146.612.612,0,0,0-.094.22,1.22,1.22,0,0,0-.029.274.735.735,0,0,0,.164.512.563.563,0,0,0,.437.18,1.738,1.738,0,0,0,.231-.013,1.066,1.066,0,0,0,.144-.027Z" transform="translate(-134.417 -111.973)" fill="#161615"/>
        <path id="Path_959" data-name="Path 959" d="M151.426,116.57q-.077.084-.2.237t-.27.339q-.144.186-.288.39t-.253.39h1.042v.284h-1.447v-.226q.087-.161.215-.354t.268-.384q.14-.191.273-.361T151,116.6h-.936v-.284h1.366Z" transform="translate(-141.562 -115.338)" fill="#161615"/>
        <path id="Path_960" data-name="Path 960" d="M158.418,115.943a.987.987,0,0,1,.344.053.56.56,0,0,1,.226.149.57.57,0,0,1,.122.23,1.117,1.117,0,0,1,.036.293v1.184l-.122.02c-.052.009-.111.016-.177.024s-.137.014-.213.02-.152.009-.228.009a1.25,1.25,0,0,1-.3-.033.665.665,0,0,1-.233-.1.478.478,0,0,1-.153-.188.656.656,0,0,1-.055-.281.541.541,0,0,1,.064-.27.507.507,0,0,1,.173-.182.8.8,0,0,1,.255-.1,1.377,1.377,0,0,1,.306-.033c.034,0,.069,0,.106.005s.071.009.1.015l.086.016.051.011v-.095a.761.761,0,0,0-.018-.166.38.38,0,0,0-.065-.146.335.335,0,0,0-.129-.1.51.51,0,0,0-.213-.038,1.626,1.626,0,0,0-.293.024,1.049,1.049,0,0,0-.188.049l-.04-.281a1.054,1.054,0,0,1,.219-.056A1.892,1.892,0,0,1,158.418,115.943Zm.029,1.7c.08,0,.151,0,.213-.005a.909.909,0,0,0,.155-.02v-.565a.425.425,0,0,0-.118-.031,1.282,1.282,0,0,0-.2-.013,1.3,1.3,0,0,0-.162.011.5.5,0,0,0-.157.046.334.334,0,0,0-.118.095.248.248,0,0,0-.047.159.271.271,0,0,0,.117.253A.605.605,0,0,0,158.447,117.641Z" transform="translate(-147.5 -115.05)" fill="#161615"/>
        <path id="Path_961" data-name="Path 961" d="M170.405,116.038v-2.526h1.541v.3h-1.188v.751h1.057v.3h-1.057v.875h1.279v.3Z" transform="translate(-157.37 -113.166)" fill="#161615"/>
        <path id="Path_962" data-name="Path 962" d="M180.061,112.031l.339-.058v2.773q-.117.033-.3.066a2.39,2.39,0,0,1-.419.033,1.064,1.064,0,0,1-.394-.069.84.84,0,0,1-.3-.2.866.866,0,0,1-.191-.312,1.189,1.189,0,0,1-.067-.413,1.353,1.353,0,0,1,.056-.4.9.9,0,0,1,.166-.313.756.756,0,0,1,.268-.2.859.859,0,0,1,.363-.073.88.88,0,0,1,.29.044.911.911,0,0,1,.188.084Zm0,1.275a.711.711,0,0,0-.179-.1.674.674,0,0,0-.255-.047.545.545,0,0,0-.249.053.458.458,0,0,0-.17.146.617.617,0,0,0-.095.22,1.22,1.22,0,0,0-.029.274.734.734,0,0,0,.164.512.562.562,0,0,0,.437.18,1.742,1.742,0,0,0,.231-.013,1.065,1.065,0,0,0,.144-.027Z" transform="translate(-163.823 -111.973)" fill="#161615"/>
        <path id="Path_963" data-name="Path 963" d="M190.1,117.977q-.116.029-.308.062a2.646,2.646,0,0,1-.442.033.934.934,0,0,1-.368-.064.591.591,0,0,1-.24-.18.732.732,0,0,1-.131-.275,1.419,1.419,0,0,1-.04-.352v-1.064h.339v.991a.859.859,0,0,0,.109.5.426.426,0,0,0,.368.149c.036,0,.074,0,.113,0l.109-.009.093-.011a.283.283,0,0,0,.06-.013v-1.6h.339Z" transform="translate(-171.445 -115.2)" fill="#161615"/>
        <path id="Path_964" data-name="Path 964" d="M198.565,113.954a2.237,2.237,0,0,1,.231.208q.122.124.241.268t.224.292a3.232,3.232,0,0,1,.179.275h-.4a2.945,2.945,0,0,0-.177-.261q-.1-.133-.209-.255a3.076,3.076,0,0,0-.222-.224,2.02,2.02,0,0,0-.215-.171V115h-.339v-2.77l.339-.058V113.9l.193-.193q.106-.106.208-.215l.193-.209c.061-.067.113-.126.157-.177h.4l-.182.2q-.1.109-.2.22l-.213.222Z" transform="translate(-178.664 -112.124)" fill="#161615"/>
        <path id="Path_965" data-name="Path 965" d="M206.4,115.943a.987.987,0,0,1,.344.053.56.56,0,0,1,.226.149.567.567,0,0,1,.122.23,1.118,1.118,0,0,1,.036.293v1.184l-.122.02q-.078.013-.177.024c-.066.007-.137.014-.213.02s-.153.009-.228.009a1.248,1.248,0,0,1-.295-.033.664.664,0,0,1-.234-.1.475.475,0,0,1-.153-.188.656.656,0,0,1-.055-.281.538.538,0,0,1,.064-.27.5.5,0,0,1,.173-.182.8.8,0,0,1,.255-.1,1.379,1.379,0,0,1,.306-.033c.034,0,.069,0,.106.005s.071.009.1.015l.086.016.051.011v-.095a.777.777,0,0,0-.018-.166.38.38,0,0,0-.066-.146.333.333,0,0,0-.129-.1.509.509,0,0,0-.213-.038,1.626,1.626,0,0,0-.293.024,1.049,1.049,0,0,0-.188.049l-.04-.281a1.049,1.049,0,0,1,.218-.056A1.893,1.893,0,0,1,206.4,115.943Zm.029,1.7c.08,0,.151,0,.213-.005a.912.912,0,0,0,.155-.02v-.565a.43.43,0,0,0-.119-.031,1.282,1.282,0,0,0-.2-.013,1.3,1.3,0,0,0-.162.011.5.5,0,0,0-.157.046.336.336,0,0,0-.118.095.248.248,0,0,0-.047.159.271.271,0,0,0,.117.253A.6.6,0,0,0,206.432,117.641Z" transform="translate(-184.691 -115.05)" fill="#161615"/>
        <path id="Path_966" data-name="Path 966" d="M215.089,117.912a1.032,1.032,0,0,1-.4-.073.811.811,0,0,1-.292-.2.849.849,0,0,1-.177-.312,1.291,1.291,0,0,1-.058-.4,1.207,1.207,0,0,1,.064-.4.947.947,0,0,1,.18-.315.811.811,0,0,1,.286-.208.926.926,0,0,1,.377-.075,1.523,1.523,0,0,1,.255.022,1.179,1.179,0,0,1,.244.069l-.076.288a.822.822,0,0,0-.177-.058.992.992,0,0,0-.213-.022.538.538,0,0,0-.435.178.787.787,0,0,0-.151.521,1.073,1.073,0,0,0,.035.281.582.582,0,0,0,.109.219.486.486,0,0,0,.191.14.73.73,0,0,0,.284.049,1.074,1.074,0,0,0,.244-.026.873.873,0,0,0,.171-.055l.047.284a.364.364,0,0,1-.084.035,1.152,1.152,0,0,1-.124.029c-.046.009-.1.016-.147.022A1.315,1.315,0,0,1,215.089,117.912Z" transform="translate(-191.282 -115.037)" fill="#161615"/>
        <path id="Path_967" data-name="Path 967" d="M219.914,116.18a.765.765,0,0,1-.113-.011.59.59,0,0,1-.117-.029l.044-.277a.667.667,0,0,0,.084.018.565.565,0,0,0,.088.007.282.282,0,0,0,.249-.108.55.55,0,0,0,.075-.315V113.6h.339v1.859a.768.768,0,0,1-.166.541A.631.631,0,0,1,219.914,116.18Zm.478-2.919a.218.218,0,0,1-.155-.06.238.238,0,0,1,0-.324.23.23,0,0,1,.31,0,.238.238,0,0,1,0,.324A.217.217,0,0,1,220.392,113.261Z" transform="translate(-195.564 -112.626)" fill="#161615"/>
        <path id="Path_968" data-name="Path 968" d="M226.247,115.943a.987.987,0,0,1,.344.053.561.561,0,0,1,.226.149.57.57,0,0,1,.122.23,1.117,1.117,0,0,1,.036.293v1.184l-.122.02q-.078.013-.177.024c-.066.007-.137.014-.213.02s-.152.009-.228.009a1.25,1.25,0,0,1-.3-.033.664.664,0,0,1-.233-.1.475.475,0,0,1-.153-.188.653.653,0,0,1-.055-.281.541.541,0,0,1,.064-.27.508.508,0,0,1,.173-.182.8.8,0,0,1,.255-.1,1.377,1.377,0,0,1,.306-.033q.051,0,.106.005c.036,0,.071.009.1.015l.086.016.051.011v-.095a.763.763,0,0,0-.018-.166.377.377,0,0,0-.065-.146.335.335,0,0,0-.129-.1.51.51,0,0,0-.213-.038,1.626,1.626,0,0,0-.293.024,1.049,1.049,0,0,0-.188.049l-.04-.281a1.055,1.055,0,0,1,.219-.056A1.892,1.892,0,0,1,226.247,115.943Zm.029,1.7c.08,0,.151,0,.213-.005a.906.906,0,0,0,.155-.02v-.565a.425.425,0,0,0-.118-.031,1.282,1.282,0,0,0-.2-.013,1.3,1.3,0,0,0-.162.011.5.5,0,0,0-.157.046.335.335,0,0,0-.118.095.248.248,0,0,0-.047.159.271.271,0,0,0,.117.253A.606.606,0,0,0,226.277,117.641Z" transform="translate(-200.071 -115.05)" fill="#161615"/>
        <path id="Path_969" data-name="Path 969" d="M239.469,114.893q.058.073.148.191t.184.263q.095.144.188.3a3.108,3.108,0,0,1,.159.3h-.386q-.073-.138-.158-.281t-.173-.271c-.058-.086-.116-.167-.173-.243s-.109-.141-.155-.2c-.031,0-.064,0-.1,0h-.417v.988h-.353v-2.489a1.992,1.992,0,0,1,.333-.049q.184-.013.337-.013a1.38,1.38,0,0,1,.811.2.688.688,0,0,1,.279.6.7.7,0,0,1-.133.43A.784.784,0,0,1,239.469,114.893Zm-.536-1.184c-.151,0-.266,0-.346.011v.951h.251a2.662,2.662,0,0,0,.328-.018.746.746,0,0,0,.246-.069.37.37,0,0,0,.155-.144.482.482,0,0,0,.055-.246.467.467,0,0,0-.055-.237.4.4,0,0,0-.148-.15.644.644,0,0,0-.219-.076A1.554,1.554,0,0,0,238.934,113.709Z" transform="translate(-209.94 -113.078)" fill="#161615"/>
        <path id="Path_970" data-name="Path 970" d="M249.553,116.9a1.2,1.2,0,0,1-.065.408.936.936,0,0,1-.184.313.808.808,0,0,1-.283.2.933.933,0,0,1-.714,0,.809.809,0,0,1-.283-.2.935.935,0,0,1-.184-.313,1.3,1.3,0,0,1,0-.815.933.933,0,0,1,.184-.315.81.81,0,0,1,.283-.2.933.933,0,0,1,.714,0,.808.808,0,0,1,.283.2.934.934,0,0,1,.184.315A1.207,1.207,0,0,1,249.553,116.9Zm-.353,0a.816.816,0,0,0-.144-.509.5.5,0,0,0-.784,0,.97.97,0,0,0,0,1.017.5.5,0,0,0,.784,0A.814.814,0,0,0,249.2,116.9Z" transform="translate(-217.335 -115.024)" fill="#161615"/>
        <path id="Path_971" data-name="Path 971" d="M258.1,116.57q-.077.084-.2.237t-.27.339q-.144.186-.288.39t-.253.39h1.042v.284h-1.447v-.226q.088-.161.215-.354t.268-.384q.14-.191.273-.361t.232-.286h-.937v-.284H258.1Z" transform="translate(-224.24 -115.338)" fill="#161615"/>
        <path id="Path_972" data-name="Path 972" d="M265.716,118.21q-.1-.263-.217-.6t-.21-.7q-.094.364-.208.7t-.215.6h-.3q-.168-.375-.328-.856t-.3-1.039h.364q.036.171.087.372t.108.4q.056.2.118.386t.117.324q.062-.171.122-.362t.115-.386q.055-.195.1-.383t.086-.352h.281q.033.164.08.352t.1.383q.055.2.115.386t.122.362q.055-.138.115-.324t.119-.386q.058-.2.109-.4t.088-.372h.35q-.142.557-.3,1.039t-.328.856Z" transform="translate(-229.865 -115.338)" fill="#161615"/>
        <path id="Path_973" data-name="Path 973" d="M278.565,114a1.2,1.2,0,0,1-.065.408.937.937,0,0,1-.184.313.805.805,0,0,1-.282.2.933.933,0,0,1-.714,0,.806.806,0,0,1-.283-.2.936.936,0,0,1-.184-.313,1.3,1.3,0,0,1,0-.815.934.934,0,0,1,.184-.315.806.806,0,0,1,.283-.2.933.933,0,0,1,.714,0,.805.805,0,0,1,.282.2.934.934,0,0,1,.184.315A1.206,1.206,0,0,1,278.565,114Zm-.354,0a.815.815,0,0,0-.144-.509.5.5,0,0,0-.784,0,.971.971,0,0,0,0,1.017.5.5,0,0,0,.784,0A.814.814,0,0,0,278.212,114Zm-.095-1.622-.514.5-.171-.153.467-.561Z" transform="translate(-239.82 -112.124)" fill="#161615"/>
        <path id="Path_974" data-name="Path 974" d="M284.567,116.18a.763.763,0,0,1-.113-.011.6.6,0,0,1-.117-.029l.044-.277a.651.651,0,0,0,.084.018.561.561,0,0,0,.087.007.282.282,0,0,0,.25-.108.552.552,0,0,0,.075-.315V113.6h.339v1.859a.768.768,0,0,1-.166.541A.631.631,0,0,1,284.567,116.18Zm.477-2.919a.218.218,0,0,1-.155-.06.239.239,0,0,1,0-.324.23.23,0,0,1,.31,0,.237.237,0,0,1,0,.324A.218.218,0,0,1,285.044,113.261Z" transform="translate(-245.672 -112.626)" fill="#161615"/>
      </g>
    </g>
  </g>
</svg>
