<svg xmlns="http://www.w3.org/2000/svg" xmlns:xlink="http://www.w3.org/1999/xlink" width="80" height="19" viewBox="0 0 80 19">
  <defs>
    <clipPath id="clip-_2_RP_mobile">
      <rect width="80" height="19"/>
    </clipPath>
  </defs>
  <g id="_2_RP_mobile" data-name="2 RP mobile" clip-path="url(#clip-_2_RP_mobile)">
    <g id="Group_395" data-name="Group 395">
      <g id="Group_393" data-name="Group 393" transform="translate(33.575 3.523)">
        <path id="Path_616" data-name="Path 616" d="M216.579,54.747c-.178,0-.342.007-.493.02v1.495h.367a3.779,3.779,0,0,0,.54-.034,1.113,1.113,0,0,0,.391-.12.586.586,0,0,0,.237-.233.781.781,0,0,0,.08-.374.746.746,0,0,0-.08-.36.6.6,0,0,0-.231-.234,1.053,1.053,0,0,0-.357-.123,2.62,2.62,0,0,0-.454-.037m-.06-.726a2.675,2.675,0,0,1,1.531.367,1.382,1.382,0,0,1-.4,2.394c.085.1.18.226.288.374s.215.306.327.477.217.347.32.527.194.356.275.53h-.941q-.127-.24-.274-.484c-.1-.162-.2-.32-.3-.474s-.2-.3-.3-.434-.189-.257-.274-.363c-.062.005-.115.007-.16.007h-.533V58.69h-.842V54.134a4.571,4.571,0,0,1,.655-.09c.231-.016.438-.022.62-.022" transform="translate(-215.245 -53.68)" fill="#161615"/>
        <path id="Path_617" data-name="Path 617" d="M239.631,60.991c-.09.092-.205.225-.35.393s-.3.357-.464.564-.329.423-.5.647-.317.439-.45.644h1.8v.673H236.9v-.5a6.307,6.307,0,0,1,.367-.581q.22-.313.453-.63t.464-.6c.153-.191.29-.359.41-.5h-1.608v-.674h2.648Z" transform="translate(-232.906 -58.903)" fill="#161615"/>
        <path id="Path_618" data-name="Path 618" d="M256.685,61.442a1.055,1.055,0,0,0-.047-.317.756.756,0,0,0-.136-.26.666.666,0,0,0-.221-.174.7.7,0,0,0-.31-.063.722.722,0,0,0-.327.07.75.75,0,0,0-.236.184.832.832,0,0,0-.15.26,1.463,1.463,0,0,0-.075.3Zm-2.341.36a2.177,2.177,0,0,1,.137-.807,1.694,1.694,0,0,1,.363-.578,1.517,1.517,0,0,1,.521-.347,1.62,1.62,0,0,1,.6-.116,1.437,1.437,0,0,1,1.124.447,1.931,1.931,0,0,1,.4,1.334c0,.046,0,.1,0,.15s-.006.106-.01.15h-2.3a.915.915,0,0,0,.3.65,1.128,1.128,0,0,0,.765.231,2.534,2.534,0,0,0,.536-.054,2.215,2.215,0,0,0,.383-.114l.108.66a1.229,1.229,0,0,1-.184.071,2.562,2.562,0,0,1-.266.067c-.1.02-.208.037-.325.05a3.014,3.014,0,0,1-.353.02,2.142,2.142,0,0,1-.8-.137,1.5,1.5,0,0,1-.561-.381,1.546,1.546,0,0,1-.326-.574,2.329,2.329,0,0,1-.107-.723" transform="translate(-247.139 -58.521)" fill="#161615"/>
        <path id="Path_619" data-name="Path 619" d="M275.013,61.788a2.118,2.118,0,0,1,.121-.723,1.709,1.709,0,0,1,.342-.584,1.6,1.6,0,0,1,.544-.387,1.781,1.781,0,0,1,.721-.14,2.427,2.427,0,0,1,.934.18l-.173.66a1.844,1.844,0,0,0-.317-.1,1.686,1.686,0,0,0-.377-.04.881.881,0,0,0-.721.3,1.276,1.276,0,0,0-.246.837,1.311,1.311,0,0,0,.234.824.929.929,0,0,0,.786.3,2.142,2.142,0,0,0,.407-.04,1.941,1.941,0,0,0,.347-.1l.113.667a1.71,1.71,0,0,1-.4.12,2.82,2.82,0,0,1-.557.053,2.033,2.033,0,0,1-.777-.136,1.483,1.483,0,0,1-.546-.381,1.555,1.555,0,0,1-.323-.58,2.394,2.394,0,0,1-.108-.73" transform="translate(-263.999 -58.52)" fill="#161615"/>
        <path id="Path_620" data-name="Path 620" d="M294.293,60.991c-.088.092-.207.225-.35.393s-.3.357-.463.564-.33.423-.5.647-.317.439-.451.644h1.8v.673h-2.774v-.5a6.124,6.124,0,0,1,.367-.581q.22-.313.454-.63t.463-.6c.154-.191.291-.359.411-.5h-1.608v-.674h2.648Z" transform="translate(-277.496 -58.903)" fill="#161615"/>
        <path id="Path_621" data-name="Path 621" d="M312.984,61.859a1.3,1.3,0,0,0-.244-.84.952.952,0,0,0-.784-.3c-.075,0-.155,0-.236.009a1.31,1.31,0,0,0-.244.044v1.995a1.3,1.3,0,0,0,.283.136,1.1,1.1,0,0,0,.376.064.722.722,0,0,0,.644-.3,1.422,1.422,0,0,0,.2-.807m.827-.013a2.453,2.453,0,0,1-.1.734,1.718,1.718,0,0,1-.3.573,1.316,1.316,0,0,1-.484.373,1.551,1.551,0,0,1-.657.134,1.6,1.6,0,0,1-.453-.06,1.66,1.66,0,0,1-.34-.134V64.82h-.807V60.211q.246-.066.607-.126a4.568,4.568,0,0,1,.76-.061,2.025,2.025,0,0,1,.74.127,1.551,1.551,0,0,1,.557.363,1.592,1.592,0,0,1,.353.574,2.188,2.188,0,0,1,.123.757" transform="translate(-293.085 -58.577)" fill="#161615"/>
        <path id="Path_622" data-name="Path 622" d="M333.715,61.782a1.353,1.353,0,0,0-.223-.823.793.793,0,0,0-1.248,0,1.363,1.363,0,0,0-.224.823,1.4,1.4,0,0,0,.224.834.788.788,0,0,0,1.248,0,1.388,1.388,0,0,0,.223-.834m.828,0a2.246,2.246,0,0,1-.12.754,1.666,1.666,0,0,1-.34.581,1.541,1.541,0,0,1-.53.374,1.726,1.726,0,0,1-.685.133,1.7,1.7,0,0,1-.68-.133,1.544,1.544,0,0,1-.527-.374,1.7,1.7,0,0,1-.343-.581,2.165,2.165,0,0,1-.124-.754,2.14,2.14,0,0,1,.124-.75,1.684,1.684,0,0,1,.346-.577,1.519,1.519,0,0,1,.532-.37,1.692,1.692,0,0,1,.672-.13,1.732,1.732,0,0,1,.678.13,1.49,1.49,0,0,1,.53.37,1.723,1.723,0,0,1,.344.577,2.179,2.179,0,0,1,.123.75" transform="translate(-309.828 -58.521)" fill="#161615"/>
        <path id="Path_623" data-name="Path 623" d="M353.579,62.949a1.065,1.065,0,0,0,.468-.076.273.273,0,0,0,.148-.264.34.34,0,0,0-.158-.286,2.26,2.26,0,0,0-.517-.247,3.745,3.745,0,0,1-.4-.171,1.36,1.36,0,0,1-.317-.209.864.864,0,0,1-.21-.291,1.009,1.009,0,0,1-.076-.416.908.908,0,0,1,.353-.757,1.516,1.516,0,0,1,.961-.277,2.949,2.949,0,0,1,.586.057,2.89,2.89,0,0,1,.422.111l-.148.653a2.015,2.015,0,0,0-.34-.11,2.05,2.05,0,0,0-.48-.05.84.84,0,0,0-.4.083.272.272,0,0,0-.154.257.364.364,0,0,0,.03.153.339.339,0,0,0,.1.124,1.085,1.085,0,0,0,.194.113,2.935,2.935,0,0,0,.293.116,4.434,4.434,0,0,1,.487.21,1.325,1.325,0,0,1,.33.233.8.8,0,0,1,.189.3,1.156,1.156,0,0,1,.061.4.861.861,0,0,1-.371.757,1.84,1.84,0,0,1-1.057.257,2.907,2.907,0,0,1-.741-.076,3.827,3.827,0,0,1-.394-.123l.141-.674a3.4,3.4,0,0,0,.43.14,2.18,2.18,0,0,0,.57.067" transform="translate(-327.157 -58.52)" fill="#161615"/>
        <path id="Path_624" data-name="Path 624" d="M372.749,61.859a1.3,1.3,0,0,0-.244-.84.951.951,0,0,0-.784-.3c-.076,0-.156,0-.238.009a1.307,1.307,0,0,0-.242.044v1.995a1.247,1.247,0,0,0,.283.136,1.1,1.1,0,0,0,.376.064.724.724,0,0,0,.645-.3,1.416,1.416,0,0,0,.2-.807m.827-.013a2.5,2.5,0,0,1-.1.734,1.693,1.693,0,0,1-.3.573,1.31,1.31,0,0,1-.483.373,1.549,1.549,0,0,1-.657.134,1.686,1.686,0,0,1-.794-.194V64.82h-.807V60.211c.165-.044.366-.087.607-.126a4.571,4.571,0,0,1,.76-.061,2.033,2.033,0,0,1,.742.127,1.548,1.548,0,0,1,.556.363,1.611,1.611,0,0,1,.354.574,2.178,2.178,0,0,1,.123.757" transform="translate(-341.837 -58.577)" fill="#161615"/>
        <path id="Path_625" data-name="Path 625" d="M393.482,61.782a1.364,1.364,0,0,0-.224-.823.793.793,0,0,0-1.248,0,1.356,1.356,0,0,0-.223.823,1.391,1.391,0,0,0,.223.834.788.788,0,0,0,1.248,0,1.4,1.4,0,0,0,.224-.834m.827,0a2.242,2.242,0,0,1-.12.754,1.673,1.673,0,0,1-.34.581,1.546,1.546,0,0,1-.531.374,1.717,1.717,0,0,1-.684.133,1.694,1.694,0,0,1-.68-.133,1.546,1.546,0,0,1-.527-.374,1.7,1.7,0,0,1-.343-.581,2.165,2.165,0,0,1-.124-.754,2.141,2.141,0,0,1,.124-.75,1.677,1.677,0,0,1,.346-.577,1.529,1.529,0,0,1,.529-.37,1.708,1.708,0,0,1,.674-.13,1.739,1.739,0,0,1,.678.13,1.487,1.487,0,0,1,.53.37,1.7,1.7,0,0,1,.343.577,2.141,2.141,0,0,1,.124.75" transform="translate(-358.58 -58.521)" fill="#161615"/>
        <path id="Path_626" data-name="Path 626" d="M414.81,59.162a2.176,2.176,0,0,1-.6-.08.9.9,0,0,1-.377-.21.734.734,0,0,1-.2-.34,1.716,1.716,0,0,1-.057-.463V54.651l.807-.133v3.4a1.135,1.135,0,0,0,.023.247.388.388,0,0,0,.085.17.365.365,0,0,0,.162.107,1.247,1.247,0,0,0,.264.056Z" transform="translate(-377.034 -54.086)" fill="#161615"/>
        <path id="Path_627" data-name="Path 627" d="M424.808,57.181H424V53.693h.806Zm.087-4.509a.463.463,0,0,1-.146.36.5.5,0,0,1-.347.133.5.5,0,0,1-.353-.133.463.463,0,0,1-.147-.36.471.471,0,0,1,.147-.367.5.5,0,0,1,.353-.134.5.5,0,0,1,.347.134.471.471,0,0,1,.146.367" transform="translate(-385.452 -52.172)" fill="#161615"/>
        <path id="Path_628" data-name="Path 628" d="M434.177,54.653l.808-.133v1.088h1.24v.674h-1.24V57.7a1.028,1.028,0,0,0,.133.6.527.527,0,0,0,.453.181,1.477,1.477,0,0,0,.391-.047,2.443,2.443,0,0,0,.27-.087l.134.641a3.252,3.252,0,0,1-.368.123,2.006,2.006,0,0,1-.533.063,1.679,1.679,0,0,1-.623-.1.919.919,0,0,1-.4-.29,1.135,1.135,0,0,1-.206-.461,2.769,2.769,0,0,1-.061-.617Z" transform="translate(-393.833 -54.087)" fill="#161615"/>
        <path id="Path_629" data-name="Path 629" d="M449.662,62.963a3.032,3.032,0,0,0,.567-.041v-.894a1.714,1.714,0,0,0-.194-.04,1.919,1.919,0,0,0-.281-.02,2,2,0,0,0-.27.02.875.875,0,0,0-.247.074.452.452,0,0,0-.176.15.414.414,0,0,0-.067.243.427.427,0,0,0,.18.4.925.925,0,0,0,.487.111m-.067-3.009a1.98,1.98,0,0,1,.674.1,1.092,1.092,0,0,1,.437.28,1.062,1.062,0,0,1,.234.438,2.168,2.168,0,0,1,.069.564v2.114q-.185.04-.563.1a5.818,5.818,0,0,1-.851.057,2.554,2.554,0,0,1-.573-.06,1.209,1.209,0,0,1-.444-.194.9.9,0,0,1-.287-.347,1.2,1.2,0,0,1-.1-.527,1.027,1.027,0,0,1,.116-.507.965.965,0,0,1,.318-.337,1.363,1.363,0,0,1,.463-.186,2.635,2.635,0,0,1,.551-.057,2.37,2.37,0,0,1,.279.017,2.512,2.512,0,0,1,.314.057v-.133a1.022,1.022,0,0,0-.034-.266.537.537,0,0,0-.117-.224.549.549,0,0,0-.22-.15.951.951,0,0,0-.344-.054,3.134,3.134,0,0,0-.514.04,2.118,2.118,0,0,0-.379.093l-.1-.654a3.135,3.135,0,0,1,.447-.106,3.453,3.453,0,0,1,.627-.054" transform="translate(-405.263 -58.52)" fill="#161615"/>
        <path id="Path_630" data-name="Path 630" d="M216.612,88.308c-.212,0-.388.008-.527.02V89.9h.408a2.055,2.055,0,0,0,.934-.171.656.656,0,0,0,.327-.643.764.764,0,0,0-.088-.38.617.617,0,0,0-.239-.24,1.148,1.148,0,0,0-.365-.123,2.663,2.663,0,0,0-.45-.037m-.059-.726a2.722,2.722,0,0,1,1.543.367,1.29,1.29,0,0,1,.537,1.148,1.571,1.571,0,0,1-.142.7,1.213,1.213,0,0,1-.417.473,1.926,1.926,0,0,1-.667.271,4.191,4.191,0,0,1-.9.086h-.421v1.628h-.84V87.7a4.213,4.213,0,0,1,.65-.09q.357-.024.658-.023" transform="translate(-215.245 -81.057)" fill="#161615"/>
        <path id="Path_631" data-name="Path 631" d="M238.4,95.346a1.355,1.355,0,0,0-.224-.824.792.792,0,0,0-1.246,0,1.36,1.36,0,0,0-.224.824,1.388,1.388,0,0,0,.224.833.786.786,0,0,0,1.246,0,1.383,1.383,0,0,0,.224-.833m.827,0a2.246,2.246,0,0,1-.12.753,1.643,1.643,0,0,1-.34.581,1.522,1.522,0,0,1-.53.374,1.707,1.707,0,0,1-.685.133,1.671,1.671,0,0,1-.679-.133,1.519,1.519,0,0,1-.527-.374A1.689,1.689,0,0,1,236,96.1a2.191,2.191,0,0,1-.123-.753A2.162,2.162,0,0,1,236,94.6a1.677,1.677,0,0,1,.347-.577,1.512,1.512,0,0,1,.531-.37,1.7,1.7,0,0,1,.672-.13,1.737,1.737,0,0,1,.678.13,1.472,1.472,0,0,1,.53.37,1.713,1.713,0,0,1,.344.577,2.175,2.175,0,0,1,.123.75" transform="translate(-232.076 -85.899)" fill="#161615"/>
        <path id="Path_632" data-name="Path 632" d="M259.732,92.76a2.235,2.235,0,0,1-.6-.079.937.937,0,0,1-.377-.211.755.755,0,0,1-.2-.341,1.754,1.754,0,0,1-.056-.463V88.258l.807-.134v3.389a1.171,1.171,0,0,0,.023.247.393.393,0,0,0,.083.17.382.382,0,0,0,.164.107,1.25,1.25,0,0,0,.263.057Z" transform="translate(-250.532 -81.499)" fill="#161615"/>
        <path id="Path_633" data-name="Path 633" d="M269.023,96.511a1.061,1.061,0,0,0,.467-.077.273.273,0,0,0,.147-.263.34.34,0,0,0-.156-.287,2.3,2.3,0,0,0-.517-.247,4.056,4.056,0,0,1-.4-.171,1.35,1.35,0,0,1-.317-.21.839.839,0,0,1-.21-.29,1.019,1.019,0,0,1-.077-.417.907.907,0,0,1,.353-.757,1.521,1.521,0,0,1,.96-.278,3.014,3.014,0,0,1,.588.057,2.946,2.946,0,0,1,.42.111l-.148.654a1.932,1.932,0,0,0-.339-.11,2.051,2.051,0,0,0-.481-.05.845.845,0,0,0-.4.083.274.274,0,0,0-.152.257.384.384,0,0,0,.029.154.33.33,0,0,0,.1.124,1.036,1.036,0,0,0,.192.113c.081.038.179.076.294.117a4.425,4.425,0,0,1,.488.21,1.367,1.367,0,0,1,.331.233.815.815,0,0,1,.189.3,1.211,1.211,0,0,1,.06.4.861.861,0,0,1-.371.756,1.839,1.839,0,0,1-1.058.257,2.905,2.905,0,0,1-.739-.077,3.682,3.682,0,0,1-.394-.123l.14-.674a3.713,3.713,0,0,0,.429.14,2.209,2.209,0,0,0,.571.067" transform="translate(-258.183 -85.897)" fill="#161615"/>
        <path id="Path_634" data-name="Path 634" d="M286.674,90.565c.1-.106.211-.221.328-.343s.23-.245.34-.367.217-.24.317-.354.185-.212.256-.3h.953q-.332.373-.7.774t-.743.78a4.378,4.378,0,0,1,.42.4q.22.237.427.5c.137.178.266.355.385.534a5.627,5.627,0,0,1,.3.493h-.935q-.119-.206-.276-.433t-.337-.441c-.12-.142-.242-.276-.366-.4a3.125,3.125,0,0,0-.368-.324v1.6h-.807V88.258l.807-.134Z" transform="translate(-272.853 -81.499)" fill="#161615"/>
        <path id="Path_635" data-name="Path 635" d="M305.955,96.525a3.056,3.056,0,0,0,.568-.04v-.894a1.427,1.427,0,0,0-.195-.04,1.8,1.8,0,0,0-.281-.021,1.831,1.831,0,0,0-.269.021.855.855,0,0,0-.248.073.461.461,0,0,0-.176.15.421.421,0,0,0-.067.244.426.426,0,0,0,.182.4.921.921,0,0,0,.486.111m-.067-3.009a1.973,1.973,0,0,1,.674.1,1.08,1.08,0,0,1,.437.28,1.061,1.061,0,0,1,.234.437,2.124,2.124,0,0,1,.071.564v2.115c-.124.026-.313.059-.564.1a5.746,5.746,0,0,1-.85.057,2.6,2.6,0,0,1-.574-.06,1.211,1.211,0,0,1-.444-.194.91.91,0,0,1-.286-.347,1.192,1.192,0,0,1-.1-.527,1.03,1.03,0,0,1,.116-.507.97.97,0,0,1,.318-.336,1.348,1.348,0,0,1,.463-.186,2.557,2.557,0,0,1,.549-.057,2.385,2.385,0,0,1,.281.017,2.46,2.46,0,0,1,.315.057V94.89a1,1,0,0,0-.034-.266.55.55,0,0,0-.116-.224.559.559,0,0,0-.221-.15.958.958,0,0,0-.343-.053,3.038,3.038,0,0,0-.514.041,2.141,2.141,0,0,0-.379.093l-.1-.654a3.2,3.2,0,0,1,.448-.107,3.511,3.511,0,0,1,.627-.054" transform="translate(-288.037 -85.897)" fill="#161615"/>
      </g>
      <g id="Group_394" data-name="Group 394" transform="translate(0 0)">
        <rect id="Rectangle_1321" data-name="Rectangle 1321" width="27.484" height="9.172" transform="translate(0)" fill="#fff"/>
        <rect id="Rectangle_1322" data-name="Rectangle 1322" width="27.484" height="9.17" transform="translate(0 9.172)" fill="#a40b1f"/>
      </g>
      <path id="Path_636" data-name="Path 636" d="M33.13,33.142H60.442V51.311H33.13ZM33.044,51.4H60.529V33.055H33.044Z" transform="translate(-33.044 -33.055)" fill="#757474"/>
    </g>
  </g>
</svg>
