<svg xmlns="http://www.w3.org/2000/svg" xmlns:xlink="http://www.w3.org/1999/xlink" width="92" height="19" viewBox="0 0 92 19">
  <defs>
    <clipPath id="clip-_4_UE_mobile">
      <rect width="92" height="19"/>
    </clipPath>
  </defs>
  <g id="_4_UE_mobile" data-name="4 UE mobile" clip-path="url(#clip-_4_UE_mobile)">
    <g id="Group_401" data-name="Group 401" transform="translate(0.332 0.329)">
      <g id="Group_396" data-name="Group 396" transform="translate(63.823 0)">
        <rect id="Rectangle_1323" data-name="Rectangle 1323" width="27.513" height="18.342" fill="#003383"/>
        <path id="Path_637" data-name="Path 637" d="M329.89,55.3l.582-.424.58.424-.222-.685.59-.424h-.727l-.222-.693-.222.693h-.729l.589.424Z" transform="translate(-316.72 -51.302)" fill="#ffe800"/>
        <path id="Path_638" data-name="Path 638" d="M318.752,58.284l.582-.424.58.424-.221-.685.59-.424h-.727l-.223-.7-.222.7-.725,0,.589.424Z" transform="translate(-308.587 -53.48)" fill="#ffe800"/>
        <path id="Path_639" data-name="Path 639" d="M311.175,64.656l-.222.7h-.727l.589.424-.22.685.58-.422.582.422-.221-.685.59-.424H311.4Z" transform="translate(-302.628 -59.451)" fill="#ffe800"/>
        <path id="Path_640" data-name="Path 640" d="M308.185,77.159l.578.426-.22-.685.59-.424h-.727l-.222-.7-.225.7-.726,0,.589.424-.22.685Z" transform="translate(-300.443 -67.577)" fill="#ffe800"/>
        <path id="Path_641" data-name="Path 641" d="M311.4,87.64l-.224-.693-.221.693h-.727l.589.426-.22.683.58-.424.582.424-.221-.683.59-.426Z" transform="translate(-302.627 -75.732)" fill="#ffe800"/>
        <path id="Path_642" data-name="Path 642" d="M319.563,95.809l-.222-.693-.224.7-.727,0,.59.424-.22.685.58-.424.582.424-.221-.685.59-.424Z" transform="translate(-308.59 -81.698)" fill="#ffe800"/>
        <path id="Path_643" data-name="Path 643" d="M330.693,98.764l-.222-.7-.222.7h-.729l.59.423-.222.686.582-.424.582.424-.224-.686.593-.423Z" transform="translate(-316.72 -83.855)" fill="#ffe800"/>
        <path id="Path_644" data-name="Path 644" d="M341.828,95.809l-.224-.693-.224.7-.724,0,.587.424-.22.685.58-.424.582.424-.222-.685.593-.424Z" transform="translate(-324.853 -81.698)" fill="#ffe800"/>
        <path id="Path_645" data-name="Path 645" d="M350,87.64l-.224-.693-.221.693h-.726l.589.426-.224.683.582-.424.582.424-.222-.683.591-.426Z" transform="translate(-330.82 -75.732)" fill="#ffe800"/>
        <path id="Path_646" data-name="Path 646" d="M353.682,76.445h-.727l-.22-.7-.225.7h-.725l.59.424-.224.685.584-.424.58.424-.221-.685Z" transform="translate(-332.98 -67.554)" fill="#ffe800"/>
        <path id="Path_647" data-name="Path 647" d="M349.195,66.421l.582-.422.582.422-.222-.685.59-.422H350l-.224-.7-.221.7-.726,0,.589.422Z" transform="translate(-330.821 -59.424)" fill="#ffe800"/>
        <path id="Path_648" data-name="Path 648" d="M341.632,56.481l-.22.7-.729,0,.59.424-.22.686.582-.426.578.426-.22-.686.589-.424h-.727Z" transform="translate(-324.872 -53.481)" fill="#ffe800"/>
      </g>
      <g id="Group_398" data-name="Group 398" transform="translate(0 11.174)">
        <g id="Group_397" data-name="Group 397">
          <path id="Path_649" data-name="Path 649" d="M45.354,91.36V88.333H47.2V88.7H45.778v.9h1.267v.354H45.778V91h1.533v.363Z" transform="translate(-45.354 -87.918)" fill="#161615"/>
          <path id="Path_650" data-name="Path 650" d="M55.856,93.163q-.14.035-.369.074a3.147,3.147,0,0,1-.531.04,1.125,1.125,0,0,1-.441-.077.712.712,0,0,1-.289-.216.879.879,0,0,1-.157-.33,1.717,1.717,0,0,1-.048-.421V90.957h.406v1.188a1.03,1.03,0,0,0,.131.594.51.51,0,0,0,.441.179c.044,0,.089,0,.135,0l.131-.011.111-.013a.32.32,0,0,0,.072-.015V90.957h.406Z" transform="translate(-51.684 -89.834)" fill="#161615"/>
          <path id="Path_651" data-name="Path 651" d="M64.175,90.957c.035,0,.075,0,.12.006s.09.011.133.018l.12.022c.036.008.063.014.081.02l-.07.354a1.353,1.353,0,0,0-.159-.042,1.386,1.386,0,0,0-.286-.024,1.056,1.056,0,0,0-.225.024l-.146.033v1.909h-.406V91.1a2.767,2.767,0,0,1,.358-.1A2.308,2.308,0,0,1,64.175,90.957Z" transform="translate(-58.487 -89.834)" fill="#161615"/>
          <path id="Path_652" data-name="Path 652" d="M71.17,91.923a1.44,1.44,0,0,1-.078.489,1.122,1.122,0,0,1-.221.376.974.974,0,0,1-.338.242,1.118,1.118,0,0,1-.856,0,.975.975,0,0,1-.339-.242,1.117,1.117,0,0,1-.221-.376,1.553,1.553,0,0,1,0-.976,1.112,1.112,0,0,1,.221-.378.972.972,0,0,1,.339-.243,1.118,1.118,0,0,1,.856,0,.971.971,0,0,1,.338.243,1.116,1.116,0,0,1,.221.378A1.445,1.445,0,0,1,71.17,91.923Zm-.424,0a.979.979,0,0,0-.172-.609.6.6,0,0,0-.939,0,1.162,1.162,0,0,0,0,1.219.6.6,0,0,0,.939,0A.978.978,0,0,0,70.746,91.923Z" transform="translate(-62.652 -89.669)" fill="#161615"/>
          <path id="Path_653" data-name="Path 653" d="M80.986,92.145a1.6,1.6,0,0,1-.068.476,1.084,1.084,0,0,1-.2.376.9.9,0,0,1-.321.245,1.03,1.03,0,0,1-.435.087,1.059,1.059,0,0,1-.347-.052,1.1,1.1,0,0,1-.225-.1v.909h-.406v-3.01q.144-.035.361-.077a2.688,2.688,0,0,1,.5-.042,1.273,1.273,0,0,1,.472.083,1.012,1.012,0,0,1,.358.236,1.044,1.044,0,0,1,.229.373A1.433,1.433,0,0,1,80.986,92.145Zm-.424,0a.871.871,0,0,0-.2-.612.678.678,0,0,0-.524-.214,2.362,2.362,0,0,0-.286.013,1.139,1.139,0,0,0-.164.03V92.8a.829.829,0,0,0,.214.118.808.808,0,0,0,.306.057.654.654,0,0,0,.3-.064.546.546,0,0,0,.2-.175.738.738,0,0,0,.114-.262A1.446,1.446,0,0,0,80.562,92.145Z" transform="translate(-69.917 -89.834)" fill="#161615"/>
          <path id="Path_654" data-name="Path 654" d="M87.976,91.927a1.45,1.45,0,0,1,.087-.526,1.1,1.1,0,0,1,.231-.373.943.943,0,0,1,.332-.223,1.034,1.034,0,0,1,.384-.074.875.875,0,0,1,.7.286,1.318,1.318,0,0,1,.245.871v.068a.664.664,0,0,1,0,.076H88.4a.83.83,0,0,0,.205.537.752.752,0,0,0,.559.183,1.475,1.475,0,0,0,.361-.037,1.276,1.276,0,0,0,.221-.072l.057.341a1.211,1.211,0,0,1-.26.083,1.831,1.831,0,0,1-.421.044,1.333,1.333,0,0,1-.513-.09.956.956,0,0,1-.356-.247,1.007,1.007,0,0,1-.207-.373A1.574,1.574,0,0,1,87.976,91.927Zm1.559-.223a.682.682,0,0,0-.138-.452.474.474,0,0,0-.391-.177.535.535,0,0,0-.247.055.578.578,0,0,0-.181.142.659.659,0,0,0-.116.2.988.988,0,0,0-.054.232Z" transform="translate(-76.483 -89.669)" fill="#161615"/>
          <path id="Path_655" data-name="Path 655" d="M95.3,91.668a.887.887,0,0,1-.135-.013.688.688,0,0,1-.14-.035l.052-.332a.778.778,0,0,0,.1.022.711.711,0,0,0,.1.009.339.339,0,0,0,.3-.129.662.662,0,0,0,.09-.378V88.58h.406v2.228a.921.921,0,0,1-.2.649A.756.756,0,0,1,95.3,91.668Zm.572-3.5a.262.262,0,0,1-.186-.072.286.286,0,0,1,0-.389.275.275,0,0,1,.371,0,.286.286,0,0,1,0,.389A.262.262,0,0,1,95.87,88.169Z" transform="translate(-81.63 -87.409)" fill="#161615"/>
          <path id="Path_656" data-name="Path 656" d="M101.493,92.766a.8.8,0,0,0,.369-.066.222.222,0,0,0,.12-.21.279.279,0,0,0-.118-.236,1.864,1.864,0,0,0-.389-.2q-.131-.052-.251-.107a.887.887,0,0,1-.208-.129.563.563,0,0,1-.14-.179.571.571,0,0,1-.052-.258.578.578,0,0,1,.223-.478.949.949,0,0,1,.607-.177,1.7,1.7,0,0,1,.192.011c.064.007.124.016.179.026s.1.021.146.033.075.022.1.03l-.074.349a1.027,1.027,0,0,0-.205-.072,1.322,1.322,0,0,0-.337-.037.622.622,0,0,0-.3.068.224.224,0,0,0-.127.212.286.286,0,0,0,.029.131.3.3,0,0,0,.087.1.711.711,0,0,0,.146.085c.058.026.128.054.21.083q.161.061.288.12a.912.912,0,0,1,.216.138.527.527,0,0,1,.138.19.688.688,0,0,1,.048.273.541.541,0,0,1-.234.476,1.162,1.162,0,0,1-.666.162,1.73,1.73,0,0,1-.472-.05,2.421,2.421,0,0,1-.232-.076l.074-.349c.047.017.121.044.223.078A1.283,1.283,0,0,0,101.493,92.766Z" transform="translate(-85.842 -89.669)" fill="#161615"/>
          <path id="Path_657" data-name="Path 657" d="M109.4,89.128a2.748,2.748,0,0,1,.277.249q.146.148.288.321c.095.115.184.232.269.349a3.84,3.84,0,0,1,.214.33h-.476a3.6,3.6,0,0,0-.212-.313q-.12-.159-.251-.306a3.584,3.584,0,0,0-.266-.269,2.416,2.416,0,0,0-.258-.205v1.092h-.406v-3.32l.406-.07v2.071l.231-.231q.127-.127.249-.258t.232-.251q.109-.12.188-.212h.476l-.218.24q-.118.131-.245.265l-.255.266Z" transform="translate(-91.533 -86.936)" fill="#161615"/>
          <path id="Path_658" data-name="Path 658" d="M116.993,88.169a.262.262,0,0,1-.186-.072.286.286,0,0,1,0-.389.275.275,0,0,1,.371,0,.285.285,0,0,1,0,.389A.262.262,0,0,1,116.993,88.169Zm.205,2.682h-.406V88.58h.406Z" transform="translate(-97.485 -87.409)" fill="#161615"/>
          <path id="Path_659" data-name="Path 659" d="M124.733,91.36V88.333h1.826V88.7h-1.4v.913H126.4v.358h-1.245V91.36Z" transform="translate(-103.329 -87.918)" fill="#161615"/>
          <path id="Path_660" data-name="Path 660" d="M134.587,93.163q-.14.035-.369.074a3.147,3.147,0,0,1-.531.04,1.126,1.126,0,0,1-.441-.077.711.711,0,0,1-.288-.216.879.879,0,0,1-.157-.33,1.718,1.718,0,0,1-.048-.421V90.957h.406v1.188a1.03,1.03,0,0,0,.131.594.511.511,0,0,0,.441.179c.044,0,.089,0,.135,0L134,92.9l.111-.013a.317.317,0,0,0,.072-.015V90.957h.406Z" transform="translate(-109.186 -89.834)" fill="#161615"/>
          <path id="Path_661" data-name="Path 661" d="M142.067,91.071q.14-.035.371-.074a3.216,3.216,0,0,1,.533-.039,1.151,1.151,0,0,1,.45.077.7.7,0,0,1,.286.214.83.83,0,0,1,.151.33A1.912,1.912,0,0,1,143.9,92v1.276H143.5V92.088a1.944,1.944,0,0,0-.028-.358.6.6,0,0,0-.094-.24.371.371,0,0,0-.175-.133.772.772,0,0,0-.271-.041c-.044,0-.089,0-.135,0l-.133.011c-.042,0-.08.009-.113.015l-.072.013v1.918h-.406Z" transform="translate(-115.989 -89.834)" fill="#161615"/>
          <path id="Path_662" data-name="Path 662" d="M152.408,86.864l.406-.07v3.324q-.14.039-.358.078a2.842,2.842,0,0,1-.5.04,1.273,1.273,0,0,1-.472-.083,1.008,1.008,0,0,1-.358-.236,1.039,1.039,0,0,1-.229-.373,1.433,1.433,0,0,1-.081-.5,1.62,1.62,0,0,1,.068-.481,1.08,1.08,0,0,1,.2-.376.9.9,0,0,1,.321-.245,1.03,1.03,0,0,1,.435-.087,1.053,1.053,0,0,1,.347.052,1.1,1.1,0,0,1,.225.1Zm0,1.529a.83.83,0,0,0-.214-.118.8.8,0,0,0-.305-.057.654.654,0,0,0-.3.063.55.55,0,0,0-.2.175.737.737,0,0,0-.114.264,1.474,1.474,0,0,0-.035.328.88.88,0,0,0,.2.614.674.674,0,0,0,.524.216,2.081,2.081,0,0,0,.277-.015,1.285,1.285,0,0,0,.173-.033Z" transform="translate(-122.377 -86.794)" fill="#161615"/>
          <path id="Path_663" data-name="Path 663" d="M162.483,93.163q-.14.035-.369.074a3.147,3.147,0,0,1-.531.04,1.126,1.126,0,0,1-.441-.077.711.711,0,0,1-.288-.216.879.879,0,0,1-.157-.33,1.717,1.717,0,0,1-.048-.421V90.957h.406v1.188a1.03,1.03,0,0,0,.131.594.511.511,0,0,0,.441.179c.044,0,.089,0,.135,0l.131-.011L162,92.89a.317.317,0,0,0,.072-.015V90.957h.406Z" transform="translate(-129.56 -89.834)" fill="#161615"/>
          <path id="Path_664" data-name="Path 664" d="M170.017,92.766a.8.8,0,0,0,.369-.066.222.222,0,0,0,.12-.21.279.279,0,0,0-.118-.236,1.879,1.879,0,0,0-.389-.2q-.131-.052-.251-.107a.885.885,0,0,1-.207-.129.562.562,0,0,1-.14-.179.57.57,0,0,1-.053-.258.579.579,0,0,1,.223-.478.95.95,0,0,1,.607-.177,1.7,1.7,0,0,1,.192.011c.064.007.124.016.179.026s.1.021.146.033.075.022.1.03l-.074.349a1.036,1.036,0,0,0-.205-.072,1.32,1.32,0,0,0-.336-.037.623.623,0,0,0-.3.068.225.225,0,0,0-.127.212.289.289,0,0,0,.029.131.3.3,0,0,0,.087.1.7.7,0,0,0,.146.085c.058.026.128.054.21.083q.161.061.288.12a.907.907,0,0,1,.216.138.525.525,0,0,1,.138.19.688.688,0,0,1,.048.273.542.542,0,0,1-.234.476,1.162,1.162,0,0,1-.666.162,1.731,1.731,0,0,1-.472-.05q-.17-.05-.232-.076l.074-.349c.046.017.121.044.223.078A1.282,1.282,0,0,0,170.017,92.766Z" transform="translate(-135.889 -89.669)" fill="#161615"/>
          <path id="Path_665" data-name="Path 665" d="M178.093,91.442q-.092.1-.242.284t-.323.406q-.173.223-.345.467t-.3.468h1.249v.341h-1.734v-.271q.1-.192.258-.424t.321-.461q.168-.23.328-.433t.277-.343h-1.123v-.341h1.638Z" transform="translate(-141.06 -89.965)" fill="#161615"/>
          <path id="Path_666" data-name="Path 666" d="M188.49,90.627q.664,0,.664-.454a.454.454,0,0,0-.059-.238.572.572,0,0,0-.159-.17,1.113,1.113,0,0,0-.229-.124q-.129-.053-.273-.1a2.808,2.808,0,0,1-.315-.129,1.1,1.1,0,0,1-.258-.17.72.72,0,0,1-.172-.234.766.766,0,0,1-.063-.328.759.759,0,0,1,.271-.62,1.143,1.143,0,0,1,.747-.223,1.983,1.983,0,0,1,.5.059,1.151,1.151,0,0,1,.33.129l-.135.345a1.2,1.2,0,0,0-.273-.111,1.467,1.467,0,0,0-.422-.055.945.945,0,0,0-.227.026.584.584,0,0,0-.184.079.385.385,0,0,0-.124.133.379.379,0,0,0-.046.19.4.4,0,0,0,.048.205.472.472,0,0,0,.135.146,1.162,1.162,0,0,0,.2.116q.116.052.256.1.2.079.361.157a1.182,1.182,0,0,1,.284.188.752.752,0,0,1,.186.26.912.912,0,0,1,.066.365.714.714,0,0,1-.29.612,1.361,1.361,0,0,1-.819.214,2.114,2.114,0,0,1-.33-.024,2.5,2.5,0,0,1-.269-.057,1.491,1.491,0,0,1-.2-.07q-.085-.037-.133-.063l.127-.349a1.919,1.919,0,0,0,.306.126A1.569,1.569,0,0,0,188.49,90.627Z" transform="translate(-149.211 -87.551)" fill="#161615"/>
          <path id="Path_667" data-name="Path 667" d="M198.855,92.145a1.593,1.593,0,0,1-.068.476,1.074,1.074,0,0,1-.2.376.9.9,0,0,1-.321.245,1.031,1.031,0,0,1-.435.087,1.06,1.06,0,0,1-.347-.052,1.09,1.09,0,0,1-.225-.1v.909h-.406v-3.01q.144-.035.36-.077a2.692,2.692,0,0,1,.5-.042,1.274,1.274,0,0,1,.472.083,1.011,1.011,0,0,1,.358.236,1.045,1.045,0,0,1,.229.373A1.433,1.433,0,0,1,198.855,92.145Zm-.424,0a.872.872,0,0,0-.2-.612.678.678,0,0,0-.524-.214,2.356,2.356,0,0,0-.286.013,1.133,1.133,0,0,0-.164.03V92.8a.82.82,0,0,0,.214.118.808.808,0,0,0,.306.057.652.652,0,0,0,.3-.064.545.545,0,0,0,.2-.175.742.742,0,0,0,.114-.262A1.445,1.445,0,0,0,198.431,92.145Z" transform="translate(-156.003 -89.834)" fill="#161615"/>
          <path id="Path_668" data-name="Path 668" d="M207.977,91.923a1.433,1.433,0,0,1-.079.489,1.122,1.122,0,0,1-.221.376.975.975,0,0,1-.339.242,1.118,1.118,0,0,1-.856,0,.971.971,0,0,1-.338-.242,1.122,1.122,0,0,1-.221-.376,1.558,1.558,0,0,1,0-.976,1.116,1.116,0,0,1,.221-.378.969.969,0,0,1,.338-.243,1.118,1.118,0,0,1,.856,0,.973.973,0,0,1,.339.243,1.116,1.116,0,0,1,.221.378A1.438,1.438,0,0,1,207.977,91.923Zm-.424,0a.977.977,0,0,0-.173-.609.6.6,0,0,0-.939,0,1.162,1.162,0,0,0,0,1.219.6.6,0,0,0,.939,0A.977.977,0,0,0,207.553,91.923Z" transform="translate(-162.57 -89.669)" fill="#161615"/>
          <path id="Path_669" data-name="Path 669" d="M215.623,90.422a.78.78,0,0,1-.533-.162.638.638,0,0,1-.157-.476v-.891l-.249.126-.14-.271.389-.2V87.058l.406-.07v1.354l.319-.166.135.271-.454.236v1.035a.661.661,0,0,0,.018.166.229.229,0,0,0,.057.1.241.241,0,0,0,.1.059,1.047,1.047,0,0,0,.161.033Z" transform="translate(-168.923 -86.936)" fill="#161615"/>
          <path id="Path_670" data-name="Path 670" d="M219.89,91.927a1.449,1.449,0,0,1,.087-.526,1.1,1.1,0,0,1,.232-.373.94.94,0,0,1,.332-.223,1.034,1.034,0,0,1,.384-.074.875.875,0,0,1,.7.286,1.318,1.318,0,0,1,.245.871v.068a.669.669,0,0,1,0,.076h-1.555a.832.832,0,0,0,.205.537.752.752,0,0,0,.559.183,1.475,1.475,0,0,0,.361-.037,1.275,1.275,0,0,0,.221-.072l.057.341a1.207,1.207,0,0,1-.26.083,1.831,1.831,0,0,1-.421.044,1.333,1.333,0,0,1-.513-.09.956.956,0,0,1-.356-.247,1.007,1.007,0,0,1-.207-.373A1.574,1.574,0,0,1,219.89,91.927Zm1.559-.223a.682.682,0,0,0-.138-.452.474.474,0,0,0-.391-.177.535.535,0,0,0-.247.055.578.578,0,0,0-.181.142.659.659,0,0,0-.116.2,1,1,0,0,0-.054.232Z" transform="translate(-172.827 -89.669)" fill="#161615"/>
          <path id="Path_671" data-name="Path 671" d="M229.979,93.128a1.237,1.237,0,0,1-.483-.087.973.973,0,0,1-.349-.245,1.013,1.013,0,0,1-.212-.374,1.547,1.547,0,0,1-.07-.478,1.446,1.446,0,0,1,.076-.481,1.133,1.133,0,0,1,.216-.378.971.971,0,0,1,.343-.249,1.108,1.108,0,0,1,.452-.09,1.8,1.8,0,0,1,.306.026,1.42,1.42,0,0,1,.293.083l-.092.345a.982.982,0,0,0-.212-.07,1.194,1.194,0,0,0-.256-.026.646.646,0,0,0-.522.214.943.943,0,0,0-.181.625,1.278,1.278,0,0,0,.042.336.689.689,0,0,0,.131.262.582.582,0,0,0,.229.168.879.879,0,0,0,.341.059,1.3,1.3,0,0,0,.293-.031,1.072,1.072,0,0,0,.205-.066l.057.341a.439.439,0,0,1-.1.042,1.469,1.469,0,0,1-.149.035c-.056.01-.114.019-.177.026A1.574,1.574,0,0,1,229.979,93.128Z" transform="translate(-179.382 -89.681)" fill="#161615"/>
          <path id="Path_672" data-name="Path 672" d="M237.772,91.442q-.091.1-.242.284t-.323.406q-.173.223-.345.467t-.3.468h1.249v.341h-1.734v-.271q.105-.192.258-.424t.321-.461q.168-.23.328-.433t.277-.343h-1.123v-.341h1.638Z" transform="translate(-184.647 -89.965)" fill="#161615"/>
          <path id="Path_673" data-name="Path 673" d="M244.335,91.071q.14-.035.371-.074a3.219,3.219,0,0,1,.533-.039,1.151,1.151,0,0,1,.45.077.7.7,0,0,1,.286.214.826.826,0,0,1,.151.33,1.913,1.913,0,0,1,.044.424v1.276h-.406V92.088a1.967,1.967,0,0,0-.028-.358.608.608,0,0,0-.094-.24.373.373,0,0,0-.175-.133.772.772,0,0,0-.271-.041c-.044,0-.089,0-.135,0l-.133.011c-.042,0-.08.009-.114.015l-.072.013v1.918h-.406Z" transform="translate(-190.681 -89.834)" fill="#161615"/>
          <path id="Path_674" data-name="Path 674" d="M252.072,93.831a.788.788,0,0,0,.125.042.61.61,0,0,0,.151.02.591.591,0,0,0,.376-.107.927.927,0,0,0,.245-.347q-.275-.524-.513-1.112a9.647,9.647,0,0,1-.4-1.19h.437q.048.2.116.424t.151.467q.083.241.179.481t.2.463q.166-.458.288-.908t.231-.926h.419q-.157.642-.349,1.234t-.415,1.107a2.336,2.336,0,0,1-.181.338,1.021,1.021,0,0,1-.208.234.753.753,0,0,1-.255.135,1.091,1.091,0,0,1-.321.044.814.814,0,0,1-.1-.006c-.035,0-.069-.01-.1-.018s-.064-.015-.092-.024a.414.414,0,0,1-.059-.022Z" transform="translate(-196.278 -89.965)" fill="#161615"/>
        </g>
      </g>
      <g id="Group_400" data-name="Group 400" transform="translate(9.838 3.532)">
        <g id="Group_399" data-name="Group 399">
          <path id="Path_675" data-name="Path 675" d="M83.64,64.219a2.158,2.158,0,0,1-.807-.136,1.487,1.487,0,0,1-.56-.381,1.55,1.55,0,0,1-.328-.576,2.378,2.378,0,0,1-.106-.728V59.533h.841V62.32a1.792,1.792,0,0,0,.07.533.928.928,0,0,0,.2.361.8.8,0,0,0,.3.205,1.113,1.113,0,0,0,.394.066,1.14,1.14,0,0,0,.4-.066.792.792,0,0,0,.308-.205.935.935,0,0,0,.2-.361,1.793,1.793,0,0,0,.07-.533V59.533h.84V62.4a2.313,2.313,0,0,1-.109.728,1.584,1.584,0,0,1-.331.576,1.48,1.48,0,0,1-.566.381A2.213,2.213,0,0,1,83.64,64.219Z" transform="translate(-81.84 -59.242)" fill="#161615"/>
          <path id="Path_676" data-name="Path 676" d="M98.926,63.965a5.381,5.381,0,0,1,.6-.126,5.172,5.172,0,0,1,.821-.06,1.89,1.89,0,0,1,.708.116,1.1,1.1,0,0,1,.453.325,1.236,1.236,0,0,1,.238.5,2.806,2.806,0,0,1,.07.645v1.946h-.8v-1.82a2.654,2.654,0,0,0-.036-.473.842.842,0,0,0-.119-.318.479.479,0,0,0-.225-.179.954.954,0,0,0-.347-.056,2.62,2.62,0,0,0-.318.02c-.11.013-.192.024-.245.033v2.794h-.8Z" transform="translate(-94.319 -62.344)" fill="#161615"/>
          <path id="Path_677" data-name="Path 677" d="M113.781,58.949a.46.46,0,0,1-.146.358.5.5,0,0,1-.344.132.5.5,0,0,1-.351-.132.459.459,0,0,1-.146-.358.467.467,0,0,1,.146-.364.5.5,0,0,1,.351-.132.5.5,0,0,1,.344.132A.467.467,0,0,1,113.781,58.949Zm-.086,4.475h-.8V59.962h.8Z" transform="translate(-104.448 -58.453)" fill="#161615"/>
          <path id="Path_678" data-name="Path 678" d="M120.254,63.485a1.965,1.965,0,0,1,.669.1,1.073,1.073,0,0,1,.434.278,1.045,1.045,0,0,1,.232.434,2.119,2.119,0,0,1,.07.559v2.1q-.186.04-.56.1a5.68,5.68,0,0,1-.844.056,2.538,2.538,0,0,1-.569-.06,1.19,1.19,0,0,1-.44-.192.905.905,0,0,1-.285-.344,1.193,1.193,0,0,1-.1-.523,1.011,1.011,0,0,1,.116-.5.95.95,0,0,1,.314-.334,1.36,1.36,0,0,1,.46-.185,2.594,2.594,0,0,1,.546-.056,2.465,2.465,0,0,1,.278.017,2.611,2.611,0,0,1,.311.056v-.132a1.046,1.046,0,0,0-.033-.265.555.555,0,0,0-.116-.222.544.544,0,0,0-.218-.149.945.945,0,0,0-.341-.053,3,3,0,0,0-.51.04,2.266,2.266,0,0,0-.377.092l-.1-.648a3.15,3.15,0,0,1,.444-.106A3.474,3.474,0,0,1,120.254,63.485Zm.066,2.986a2.981,2.981,0,0,0,.562-.04v-.887a1.5,1.5,0,0,0-.192-.04,1.758,1.758,0,0,0-.278-.02,1.818,1.818,0,0,0-.268.02.827.827,0,0,0-.245.073.446.446,0,0,0-.176.149.415.415,0,0,0-.066.242.423.423,0,0,0,.179.394A.922.922,0,0,0,120.321,66.47Z" transform="translate(-108.876 -62.128)" fill="#161615"/>
          <path id="Path_679" data-name="Path 679" d="M138.447,64.464V59.877h2.946v.708h-2.112v1.132h1.88v.7h-1.88v1.344h2.27v.708Z" transform="translate(-123.183 -59.493)" fill="#161615"/>
          <path id="Path_680" data-name="Path 680" d="M154.852,67.136q-.232.059-.6.122a4.867,4.867,0,0,1-.814.063,1.793,1.793,0,0,1-.7-.119,1.117,1.117,0,0,1-.45-.331,1.3,1.3,0,0,1-.242-.506,2.686,2.686,0,0,1-.073-.645V63.78h.8v1.814a1.463,1.463,0,0,0,.162.794.635.635,0,0,0,.566.238q.146,0,.308-.013a1.643,1.643,0,0,0,.242-.033v-2.8h.8Z" transform="translate(-133.061 -62.344)" fill="#161615"/>
          <path id="Path_681" data-name="Path 681" d="M168.256,64.574a2.538,2.538,0,0,0-.274-.07,2.024,2.024,0,0,0-.407-.036,1.62,1.62,0,0,0-.281.026,1.731,1.731,0,0,0-.209.046v2.774h-.8v-3.3a4.433,4.433,0,0,1,.579-.162,3.613,3.613,0,0,1,.771-.076q.079,0,.185.01t.212.026q.106.017.205.04c.066.016.119.03.159.043Z" transform="translate(-143.514 -62.344)" fill="#161615"/>
          <path id="Path_682" data-name="Path 682" d="M178.641,65.226a2.24,2.24,0,0,1-.119.748,1.652,1.652,0,0,1-.338.576,1.511,1.511,0,0,1-.526.371,1.7,1.7,0,0,1-.678.132,1.673,1.673,0,0,1-.675-.132,1.52,1.52,0,0,1-.523-.371,1.691,1.691,0,0,1-.341-.576,2.179,2.179,0,0,1-.122-.748,2.151,2.151,0,0,1,.122-.745,1.668,1.668,0,0,1,.344-.572,1.51,1.51,0,0,1,.526-.367,1.691,1.691,0,0,1,.668-.129,1.716,1.716,0,0,1,.672.129,1.474,1.474,0,0,1,.526.367,1.7,1.7,0,0,1,.341.572A2.151,2.151,0,0,1,178.641,65.226Zm-.821,0a1.352,1.352,0,0,0-.222-.818.787.787,0,0,0-1.238,0,1.35,1.35,0,0,0-.222.818,1.378,1.378,0,0,0,.222.828.782.782,0,0,0,1.238,0A1.38,1.38,0,0,0,177.82,65.226Z" transform="translate(-150.112 -62.075)" fill="#161615"/>
          <path id="Path_683" data-name="Path 683" d="M193.68,65.587a2.447,2.447,0,0,1-.1.728,1.692,1.692,0,0,1-.294.569,1.312,1.312,0,0,1-.48.371,1.545,1.545,0,0,1-.652.132,1.613,1.613,0,0,1-.45-.06,1.694,1.694,0,0,1-.338-.132v1.344h-.8V63.965q.245-.066.6-.126a4.564,4.564,0,0,1,.754-.06,2.02,2.02,0,0,1,.735.126,1.528,1.528,0,0,1,.553.361,1.593,1.593,0,0,1,.351.569A2.179,2.179,0,0,1,193.68,65.587Zm-.821.013a1.292,1.292,0,0,0-.242-.834.944.944,0,0,0-.778-.3c-.075,0-.153,0-.235.01a1.32,1.32,0,0,0-.242.043V66.5a1.249,1.249,0,0,0,.281.136,1.1,1.1,0,0,0,.374.063.716.716,0,0,0,.639-.3A1.407,1.407,0,0,0,192.859,65.6Z" transform="translate(-161.246 -62.344)" fill="#161615"/>
          <path id="Path_684" data-name="Path 684" d="M204.333,65.27a2.172,2.172,0,0,1,.136-.8,1.68,1.68,0,0,1,.361-.573,1.49,1.49,0,0,1,.516-.344,1.6,1.6,0,0,1,.6-.116,1.426,1.426,0,0,1,1.115.444,1.918,1.918,0,0,1,.4,1.324c0,.044,0,.094,0,.149s-.006.1-.01.149H205.16a.913.913,0,0,0,.295.646,1.119,1.119,0,0,0,.758.228,2.492,2.492,0,0,0,.533-.053,2.206,2.206,0,0,0,.38-.112l.106.655a1.282,1.282,0,0,1-.182.07,2.546,2.546,0,0,1-.265.066q-.149.03-.321.05a3.008,3.008,0,0,1-.351.02,2.121,2.121,0,0,1-.794-.136,1.478,1.478,0,0,1-.556-.377,1.546,1.546,0,0,1-.324-.569A2.322,2.322,0,0,1,204.333,65.27Zm2.323-.357a1.056,1.056,0,0,0-.046-.314.759.759,0,0,0-.136-.258.644.644,0,0,0-.218-.172.7.7,0,0,0-.308-.063.716.716,0,0,0-.324.07.737.737,0,0,0-.235.182.833.833,0,0,0-.149.258,1.394,1.394,0,0,0-.073.3Z" transform="translate(-171.303 -62.092)" fill="#161615"/>
          <path id="Path_685" data-name="Path 685" d="M215.871,64.655c-.057,0-.138-.005-.242-.016a1.081,1.081,0,0,1-.275-.063l.106-.655a1.171,1.171,0,0,0,.351.046.442.442,0,0,0,.39-.162.858.858,0,0,0,.112-.486V59.962h.8v3.369a1.37,1.37,0,0,1-.321,1A1.243,1.243,0,0,1,215.871,64.655Zm1.33-5.706a.46.46,0,0,1-.146.358.5.5,0,0,1-.344.132.5.5,0,0,1-.351-.132.459.459,0,0,1-.146-.358.467.467,0,0,1,.146-.364.5.5,0,0,1,.351-.132.5.5,0,0,1,.344.132A.467.467,0,0,1,217.2,58.949Z" transform="translate(-179.354 -58.453)" fill="#161615"/>
          <path id="Path_686" data-name="Path 686" d="M225.668,66.408a1.054,1.054,0,0,0,.463-.076.27.27,0,0,0,.146-.261.339.339,0,0,0-.156-.285,2.281,2.281,0,0,0-.513-.245,4.127,4.127,0,0,1-.4-.169,1.366,1.366,0,0,1-.314-.209.85.85,0,0,1-.209-.288,1,1,0,0,1-.076-.414.9.9,0,0,1,.351-.751,1.507,1.507,0,0,1,.953-.275,2.933,2.933,0,0,1,.582.056,2.829,2.829,0,0,1,.417.109l-.146.649a1.96,1.96,0,0,0-.338-.109,2.038,2.038,0,0,0-.477-.05.833.833,0,0,0-.4.083.272.272,0,0,0-.152.255.369.369,0,0,0,.03.152.326.326,0,0,0,.1.122,1.063,1.063,0,0,0,.192.113,2.92,2.92,0,0,0,.291.116,4.5,4.5,0,0,1,.483.208,1.3,1.3,0,0,1,.328.232.8.8,0,0,1,.189.294,1.178,1.178,0,0,1,.06.4.856.856,0,0,1-.368.751,1.829,1.829,0,0,1-1.049.255,2.877,2.877,0,0,1-.735-.076,3.834,3.834,0,0,1-.39-.122l.139-.669a3.558,3.558,0,0,0,.427.139A2.2,2.2,0,0,0,225.668,66.408Z" transform="translate(-186.059 -62.092)" fill="#161615"/>
          <path id="Path_687" data-name="Path 687" d="M237.39,62.352l.324-.341q.172-.182.338-.364t.314-.351q.149-.169.255-.294h.946q-.331.371-.7.768t-.738.775a4.541,4.541,0,0,1,.417.4q.218.235.424.5t.384.53a5.362,5.362,0,0,1,.3.49h-.926q-.119-.205-.275-.43t-.334-.437q-.179-.212-.364-.4a3.131,3.131,0,0,0-.364-.321v1.589h-.8V60.009l.8-.132Z" transform="translate(-194.862 -59.493)" fill="#161615"/>
          <path id="Path_688" data-name="Path 688" d="M250.456,63.485a1.963,1.963,0,0,1,.668.1,1.069,1.069,0,0,1,.434.278,1.045,1.045,0,0,1,.232.434,2.119,2.119,0,0,1,.07.559v2.1q-.186.04-.559.1a5.676,5.676,0,0,1-.844.056,2.538,2.538,0,0,1-.57-.06,1.192,1.192,0,0,1-.44-.192.905.905,0,0,1-.285-.344,1.193,1.193,0,0,1-.1-.523,1.008,1.008,0,0,1,.116-.5.948.948,0,0,1,.314-.334,1.358,1.358,0,0,1,.46-.185,2.59,2.59,0,0,1,.546-.056,2.464,2.464,0,0,1,.278.017,2.616,2.616,0,0,1,.311.056v-.132a1.034,1.034,0,0,0-.033-.265.555.555,0,0,0-.116-.222.544.544,0,0,0-.218-.149.945.945,0,0,0-.341-.053,3,3,0,0,0-.51.04,2.252,2.252,0,0,0-.377.092l-.1-.648a3.149,3.149,0,0,1,.444-.106A3.475,3.475,0,0,1,250.456,63.485Zm.066,2.986a2.987,2.987,0,0,0,.563-.04v-.887a1.525,1.525,0,0,0-.192-.04,1.762,1.762,0,0,0-.278-.02,1.818,1.818,0,0,0-.268.02.827.827,0,0,0-.245.073.443.443,0,0,0-.175.149.415.415,0,0,0-.066.242.423.423,0,0,0,.179.394A.922.922,0,0,0,250.522,66.47Z" transform="translate(-203.969 -62.128)" fill="#161615"/>
        </g>
      </g>
    </g>
  </g>
</svg>
